<svg xmlns="http://www.w3.org/2000/svg" viewBox="0 0 67.024 51.688"><defs><style>.a{fill:#131986;}</style></defs><g transform="translate(0 0.036)"><path class="a" d="M23.69,50.84c-.23.32.04.12.27.11Z"/><path class="a" d="M23.96,50.95c.07.02.13.05.2.07A.211.211,0,0,0,23.96,50.95Z"/><path class="a" d="M25.86,51.08c-.39.37-.96.03-1.23.46C25.12,51.81,25.86,51.57,25.86,51.08Z"/><path class="a" d="M25.18,50.91l-.03.24c.12-.14.22-.27.33-.41Z"/><path class="a" d="M24.9,50.72l.06.08c.18-.1.36-.2.53-.3C25.29,50.58,25.1,50.65,24.9,50.72Z"/><path class="a" d="M27.31,50.86l-.39.2c-.48-.19.13-.49-.19-.62-.5.14.02.7-.68.76.13.29,1.06-.28,1.09.19C27.74,51.35,27.08,51.12,27.31,50.86Z"/><path class="a" d="M35.17,34.9v-.07C35.15,34.88,35.13,34.92,35.17,34.9Z"/><path class="a" d="M30.3,31.3a1.12,1.12,0,0,0-.17-.2.44.44,0,0,0,.02.16A.542.542,0,0,1,30.3,31.3Z"/><path class="a" d="M38.18,37.57c0,.11.01.19.01.26A.224.224,0,0,0,38.18,37.57Z"/><path class="a" d="M22.03,17.66a.335.335,0,0,0,.13-.07v-.02l-.15.03Z"/><path class="a" d="M24.4,30.4a.438.438,0,0,0-.19.07A.212.212,0,0,0,24.4,30.4Z"/><path class="a" d="M38.82,39.48a.277.277,0,0,0-.01-.09c-.01.03-.03.07-.04.11l.05-.02Z"/><path class="a" d="M31.55,32.88a.476.476,0,0,0-.13-.17A.763.763,0,0,0,31.55,32.88Z"/><path class="a" d="M33.36,48.98a.333.333,0,0,0,.27-.16C33.52,48.78,33.43,48.81,33.36,48.98Z"/><path class="a" d="M35.62,47.83l-.01.01C35.65,47.89,35.65,47.87,35.62,47.83Z"/><path class="a" d="M37.06,46.98l-.02.03C37.09,47.03,37.1,47.03,37.06,46.98Z"/><path class="a" d="M33.62,48.82c.26.09.57.61.54-.1l-.09-.06c.21.07.32-.26.48-.37a.634.634,0,0,0-.13-.11,3.294,3.294,0,0,1-.4.11C33.77,48.25,33.77,48.6,33.62,48.82Z"/><path class="a" d="M35.28,34.83c-.08.1.07.17,0,0Z"/><path class="a" d="M36.87,36.04l-.1-.17A.3.3,0,0,0,36.87,36.04Z"/><path class="a" d="M37.91,42.05l.04-.02C37.89,42,37.89,42.03,37.91,42.05Z"/><path class="a" d="M36.67,35.72a1.3,1.3,0,0,1,.1.15A.188.188,0,0,0,36.67,35.72Z"/><path class="a" d="M38.7,40.26c.01-.01.02-.02.02-.03C38.71,40.24,38.71,40.25,38.7,40.26Z"/><path class="a" d="M13.44,13.83c.13.17-.01.33,0,.52.54.25-.25-.81.3-.37a1.067,1.067,0,0,0-.28-.4l-.28.39C13.45,14.25,13.22,13.7,13.44,13.83Z"/><path class="a" d="M20.63,15.62l.06.07c.03-.19.11-.22-.16-.46-.37.15-.16.7-.7.82a.477.477,0,0,1,.3.15C20.07,15.89,20.33,15.73,20.63,15.62Z"/><path class="a" d="M20.13,16.21v.03a.5.5,0,0,0,.02.12.407.407,0,0,1,.14.12A.542.542,0,0,0,20.13,16.21Z"/><path class="a" d="M14.24,20.07c-.02.08-.03.15-.05.21C14.28,20.19,14.28,20.12,14.24,20.07Z"/><path class="a" d="M24.64,25.16c.1-.04.19-.09.27-.13A.359.359,0,0,0,24.64,25.16Z"/><path class="a" d="M23.61,18.94a.8.8,0,0,0,.05.21.874.874,0,0,1,.08.1Z"/><path class="a" d="M13.42,20.64c-.19-.44-.04.08-.37-.01l.01.31C13.23,20.89,13.31,20.74,13.42,20.64Z"/><path class="a" d="M13.48,13.55a.06.06,0,0,1-.04.01l.02.02Z"/><path class="a" d="M10.58,25.02a.574.574,0,0,1-.07.04A.172.172,0,0,0,10.58,25.02Z"/><path class="a" d="M21.42,17.24a7.2,7.2,0,0,1,.74.72c-.04-.1-.08-.2-.13-.3C21.77,17.74,21.73,17.1,21.42,17.24Z"/><path class="a" d="M16.09,19.63l.12.26a.741.741,0,0,1,.81-.32.65.65,0,0,0,.75-.35c.23.53.31.36.49.14.14-.19.36-.4.43.13l.04-.14a5.229,5.229,0,0,1,1.92,2.76c.57,1.33,1.03,2.74,1.36,3.71l-.2.01a1.324,1.324,0,0,1-.02.3c-.01.07-.01.07-.03.08-.01.03-.05.04-.06.06a.573.573,0,0,0-.07.04,4.4,4.4,0,0,1-.51.35,7.587,7.587,0,0,1-1.41.65,4.536,4.536,0,0,1-.69.19c-.09.01-.2.04-.25.04-.02,0-.08.02-.07.01h0c-.01.16-.03.34-.05.5l.78,2.3c-.24.07-.17-.04.17.16l.28.19c.12.09.17.16.32.29a4.494,4.494,0,0,1,.36.39l.22.25.1.12h0a3.667,3.667,0,0,1,.71-.37l.74-.32c.18-.08.36-.15.53-.21a5.045,5.045,0,0,1,.98-.25c.26-.24.01-.63.27-.9.13,0,.42-.04.43.21-.23.15-.08.36-.16.46.37-.05.84.25,1.27,0l-.29-.35c.16-.12.4,0,.54.04-.08.15.07.52-.06.58.98-.62.57.44,1.3.32.3-.62,1.4-.86,2.22-.99l.25.31c-.43-.2-.2.45-.71.18.35.36.87.29,1.22.61a.321.321,0,0,1,.33-.35c.21.22.05.53.31.72l-.38.02c.05.33.37.13.56.2-.09.26.26.58.02.79.56-.08.56.18,1.07.26-.21-.53.32-.22.42-.44l-.51-.25c.51.62-.23-.12-.47.32-.17-.38.87-.36.32-.65.75.24.75.49,1.59.68-.42-.23.27-.18.17-.46.48.38.01.23-.05.58.26.2.16.48.62.42.29.46-.3.21-.24.53-.35.11-.81-1.26-1.38-.35-.2-.17-.71-.02-.98-.26.17.31.31.84.76.91l.4-.44c.24.19.56-.08.69.11-.2.05-.21.38,0,.51.01-.11-.08-.16.01-.22.37.28.7.03,1.17.36a6.449,6.449,0,0,1-.31-1.13c.37-.22.28.17.5.32-.07.01-.11-.02-.12.1l.34.06c.29.55-.48.37-.29.85-.02.47.45.2.47.52a1.173,1.173,0,0,1,.05-.11.64.64,0,0,1,.06.11l.02-.02c.26.19.43.47.73.34-.09.11.2.19.34.21.21.05.75.19.51.69a.01.01,0,0,1-.01-.01c.19.35.21.7.03.72l.23.58-.38.16c.37.41.54.24,1.11.37a1.418,1.418,0,0,0,.51,1.01.365.365,0,0,0,.04.18,1.665,1.665,0,0,0,.12-.23c.05.38.27.3.29.56.03-.06.05-.07.01.09a.887.887,0,0,1-.02.15c-.04-.01-.04-.07-.03-.13l-.13.06c-.41.32.27.47.09.83a.277.277,0,0,1-.03-.13c-.11.2-.73.37-.39.49-.05.03.01.11.08.19l-.09.12a.623.623,0,0,1,.09-.12c.09.11.22.22.13.21a3.76,3.76,0,0,1-.2.46.347.347,0,0,0-.06.32l-.19.02c-.04.18-.14.13-.17.1a.648.648,0,0,0-.46.62.632.632,0,0,1-.5.6c.14.27.4.14.54.21.12.22,0,.65-.04.92-.51,0-1.47.36-1.7-.18-.46.32.35.16.25.49l-.07.02a.994.994,0,0,1,.67.06c.24.2-.14.62-.33.65l-.16-.41c-.36.45.11.91.02,1.48-.51.13-.47-.36-.76-.63l-.37.34-.16-.28c-.23.22-.15.53-.61.62.15-.41-.72.03-.51-.53-.26.01-.06.6-.35.27-.01.38.27.06.43.1.31.4-.38.45-.61.69-.13-.22.06-.36-.33-.37.01.21-.13.43-.41.29.12.3-.34.21-.54.27.23-.03.62.06.6.38a.854.854,0,0,1-.63.42l.32.03c-.15.57-.67-.1-1.07.22.12-.26.24-.3.31-.59a7.519,7.519,0,0,1-.75.87l-.55-.29c.04.24-.44.16-.32.46-.56,0,.23-.52.2-.75-.69.05-.28.7-1.04.49l.07-.36c-.2.06-.5.38-.59.25.04.1.12.02.23-.03.14.64-.68.78-.35,1.37l.28-.07c-.34.29-.47.82-.87.73-.32-.11.01-.49.08-.7-.39.11-.04.8-.54.91.28.01.32.25.22.47.3-.06.92-.16.71-.38l-.12-.02c-.04-.17.09-.29.12-.4.36-.15.28.21.41.3.64-.16-.21-.63.34-.84l.12.09c.19-.27.58-.46.49-.87.4.3.55-.42.91-.28.4.85-.94.31-1.05.93.36.06.02.48-.01.73l.72-.75c.12.09.55.42.58.04l-.08.01c.31-.24.08-.56.43-.56.08.06.04.24.04.31.32-.03.16-.29.32-.45.32-.03,0,.42.28.42.2-.47.56-.13.84-.27-.32-.44.86-1.15.06-1.33l.53-.62c.32.16-.16.89.2,1.22l-.56.21c.36.58.97-.89,1.64-.39.31-.12.19-.16.9-.15l-.37-.48a.816.816,0,0,1,.66.29,1.639,1.639,0,0,1,.48-.27.371.371,0,0,1-.1.29c.39.15.39.01.37-.19.04-.2.22-.3.4-.41l-.04.29c.08-.11.18-.26.13-.35a.656.656,0,0,0,.18-.19,1.448,1.448,0,0,0-.75-.22c.76-.23,1.15-.69,1.98-.79.1.14.02.5.1.45.33-.17.39-.68.18-.83a.655.655,0,0,1,.12-.15.47.47,0,0,0,.46-.02.385.385,0,0,0,.25-.1c-.28-.39.31-.8.2-1.05a1.968,1.968,0,0,0-.34.44c-.07-.42-.27-.81.06-.85-.03.6.72-.22.4.52.82-.18-.21-.48.26-.88l.38-.25c.29.2-.12.66.03.63.03-.09.07-.18.09-.27.11.38-.55,1.22-.7,1.98a9.376,9.376,0,0,0,.95-1.04,26.43,26.43,0,0,0,.84-2.69,3.617,3.617,0,0,0-.27-2.6l.02.06a.668.668,0,0,0-.23-.04l.08-.07-.28-.25a3.158,3.158,0,0,0,.28-1.57c-.08.39-.1.39-.33.49-.35.03-.49.04-.53-.43.22-.1.33.18.38-.22-.05.22-.26.12-.37-.05.03-.3-.14-.72.07-.83.11.05.09.2.09.29.12.08-.04-.56.31-.33-.1-.14-.19-.23-.28-.35.05-.32.36-.02.43-.17-.51-.55-1.19-.55-1.67-.97a2.909,2.909,0,0,0,.44-.27c-.15-.5-1.09-.51-1.46-.9.18-.04.26.16.42.24-.87-1.46-1.8-2.46-2.67-3.92l-.68.16-.08-.56A8.258,8.258,0,0,0,31.2,27.2c-.48-.18-.11-.48-.27-.73-1.05-.52-1.54-.03-2.6-.21.19-.12.58-.51.12-.67-.13.13-.25.36-.52.2l.19-.13c-.22-.3-.54-.14-1.08-.36a3.625,3.625,0,0,0-2.89.84c-.91.02.04-.61-.13-.72.69.17.47-.12.61-.32-.37.16-.79.29-1.02-.08a1.908,1.908,0,0,0-1.2.49c.22-.19.47-.02.28.2-.44-.06-1.36.39-1.46-.09-.42.16-.91.39-1.23.53-.29.13-.75.31-1.21.54a6.538,6.538,0,0,0-1.61,1.06,3.786,3.786,0,0,0-.93,1.3,3.454,3.454,0,0,0-.17,2.13l.42,1.66,1.68.14a7.023,7.023,0,0,0,1.91-.12c.39-.34-.35-.03-.14-.26.55-.46.54.07.95-.32l-.13.32c.75-.16,1.29-.9,1.78-1.41.03.33.62-.02.18.4.26-.18,1.31.84,1.44.43q-.51-.45-.99-.93c-.04-.11.4-.29.32-.34a1.753,1.753,0,0,0,1.06-.03c.28.2-.23.47-.49.63.24.51,1.09-.31.99.37.55-.51-.25-.16-.01-.59.19-.1.38-.19.58-.32-.18.08-.34.12-.51.18a3.476,3.476,0,0,0,.3-.66,1.718,1.718,0,0,1,.68-.66,4.651,4.651,0,0,0,.04-.98c.41.13.38-.49.56-.86l.18.35a4.544,4.544,0,0,1,.48-1.13c.32.42-.17.53.13.77a6.013,6.013,0,0,0,.26-.68c-.24-.05-.37-.49-.58-.04-.18-.34-.34-.58-.5-.89a2.864,2.864,0,0,1-.27-1.16c.35-.54.43.49.81.25.04-1.25-1.29-1.19-1.37-1.77-.04-.78-.4-.62-.67-1.31.35.13.11-.6.3-.83l.39.17c-.16-.19-.15-.43.07-.45-.34.18-.72-.78-1.13-1.16l-.25.23a4.073,4.073,0,0,1-.87-1.11c-.43-.49-.6-.21-1.17-.39a1.009,1.009,0,0,1,.71-.73c-.02.25.25.45.31.75.68.53,1.6.79,1.81,1.61.88-.01-.32-.47-.26-.95a.1.1,0,0,1,.1.03.169.169,0,0,1-.03-.1c.23.22.56.61.96.51-.31-.43-.87.02-.87-.7-.41-.3-.08-.96-.2-1.26-.46-.13-.94.22-1.39-.54a5.845,5.845,0,0,1,.59.04c-.65-.82-.79.03-1.41-.65.19.26-.52.1-.11.52a2.2,2.2,0,0,1-1.15-.79c-.14-.02-.11.11-.21.22.2.53.82.26.8.87.2-.04.39-.06.58-.08.19.48-.1.74-.41.67.09.08.22.12.21.24-.51.51-.14-.56-.7-.26l.23.18c-.14.2-.32.14-.5.01a3.21,3.21,0,0,1-.5-.46c-.17-.42-.46-.71-.31-1.01a4.116,4.116,0,0,1,.58.23c-.09-.43-.74-.32-1.03-.48a.23.23,0,0,0-.04-.14.18.18,0,0,1-.02.1.337.337,0,0,1-.12-.21c-.28-.17-.78-.11-1.02-.3l-.05.3.08-.15c.27.1.54.4.27.54-.6-.01-.57-.55-.67-.86.26-.42.62.15.97.13-.04-.51-.62-.29-1.25-.7.38-.47.81.19,1.1-.22-.58-.25-.81.07-1.4-.15.1-.22.74-.14.76-.44l-.41-.21c1.09.16-.09-.67.81-.61-.39-.31-.66.29-1.21-.11.16.23.54.7-.01.82l-.59-.19c-.26-.26.68-.5.28-.73-.23.04-.46.09-.68.15.03.15.33.22.14.43-.37-.15-.59.58-.94.85-.31.01-.55.02-.69-.13-.69.56-1.59.83-2.03,1.49.3-.45-.21-.48-.57-.56.47-.27.31-.71.16-.98-.32.18-.32.72-.1.79-.59.07-.2.46-.78.39-.36.01-.08-.49-.26-.59-.56.29.12.58-.5.82,0-.07.04-.12-.05-.17a.671.671,0,0,0-.48.74c-.66-.29-.79.67-1.1.16-.56.67.31.17.3.44-.1.41-.7.66-.92.74.14-.15.17-.41.39-.47l-.41-.19c-1,.54.16,1.13-.79,1.64.19-.54-.12-.34-.16-.74-.04.19-.67.76-.1.57a7.885,7.885,0,0,1-.74.66,2.015,2.015,0,0,0-.06,1.13,2.594,2.594,0,0,1-.98.8A4.846,4.846,0,0,1,5.91,23a3.623,3.623,0,0,0-.35,2.12l.03-.16c-.02.87.13.66.26.47.07-.09.14-.18.2-.14s.06.15.2.69c-.19-.03-.3.07-.19.45a2.2,2.2,0,0,0,.32.63,3.473,3.473,0,0,0,.72.65l.47.31,1.05-.16a1.2,1.2,0,0,1,.42-.01,3.853,3.853,0,0,0,1.02-.38,8.21,8.21,0,0,0,.75-.66,5.019,5.019,0,0,0,.62-.7,5.5,5.5,0,0,1,.69-.67c.08.07.15.22-.02.43a4.554,4.554,0,0,0,.84-1.15c.22-.39.31-.78.49-1.18l.05.06c.84-1.19.55-2.5.45-3.73.06.1.25.14.32.22.17-.65.17-1.7-.32-2.09.4-.8-.21-.46.13-1.49.08-.07.1.08.13.14a4.606,4.606,0,0,0-.11-1.33c-.62-.98-1.3-.99-1.61-2.21.6-.35.46.65.98.47a.879.879,0,0,1-.42-.75c.33.09.17-.03.46.01.08-.35-1.19-.72-1.11-.73-.12.05-.14.17,0,.39-.27-.03-.4-.3-.64-.71a4.342,4.342,0,0,0-.89-1.11c.18.21.6.96.16.93a1.125,1.125,0,0,0-.91-.65c-.32-.04-.6-.01-.89-.07-.26-.35-.1-.42.19-.44.27-.01.63.09.69-.18-.04-.27-.19-.9.25-.77-.73-.72-1.56-.56-2.35-.59l.04-.13a3.126,3.126,0,0,0-1.69.42,8.566,8.566,0,0,1-1.4.65,4.166,4.166,0,0,1,.49-.08c-.13.14-.62.39-.72.81-.08-.23-.76.04-.63-.3a1.62,1.62,0,0,1-.24.71c-.13.22-.28.46-.43.7a1.407,1.407,0,0,0-.28,1.2c-.27.05-.41-.26-.5-.41.36-.36.58-.39.54-.79-.28.33-.61.46-.7.3.07.62-.33,1.51-.04,1.92-.35.11-.59.29-.87.01-.41,1.17,1.29.09.62,1.24-.62.35-.15-.76-.66-.08l.02-.17c-1.15.09.41.71.09,1.29-.52-.14-.13-.6-.68-.33-.15.65.47,1.2.09,1.71l-.18-.17a12.628,12.628,0,0,0-.51,1.54c-.11,0-.08-.06-.09-.15-.36.79.19.36-.26,1.04a2.725,2.725,0,0,0,.25.23c.18-.41.55-.92.36-1.38.19.44.81-.39,1.19-.07l-.15-.12a13.58,13.58,0,0,0,2.37-2.48c-.11-.9.8-.91.93-1.71-.42-.47-.02-.2.3-.75-.16.31.33.33.52.25a.8.8,0,0,1,.04-.43,1.4,1.4,0,0,0,.49.08c.16,0,.28-.06.28-.31.25.09.02.23.04.37.17.28.05-.33.18-.14a1.042,1.042,0,0,1,.01.11c.25-.14.45,0,.66.15.17-.67.33-.15.52-.27-.13.16.01.34-.01.49a2.1,2.1,0,0,1,.41-.24c.4-.1-.04.38.24.47l.06-.12c.11.03.2.29.23.56a1.539,1.539,0,0,1-.15.77,3.449,3.449,0,0,1,.91,3.28c-.19,1.09-.61,2.1-.79,3.23.11.2.33,0,.54.19a1.742,1.742,0,0,1-.15.52c.22-.13.03-.17.17-.09l-.03-.39c.05,0,.05.04.15.04,0-.12-.1-.32-.03-.46.1.26.53.48.23.72-.05-.04-.05-.09-.06-.18-.13.23.07.32-.12.46-.18.18-.03.19-.22.13l-.54.44c.21.54-.41.55-.51.5-.2-.31.17-.34-.05-.69a2.992,2.992,0,0,1-.32-.08l.23.23a.469.469,0,0,1-.22.09l-.03-.05c.06.11.11.22,0,.16-.03-.03-.1-.09-.1-.12l-.01.24c-.11-.34-.15,0-.32-.37-.15-.03-.2.04-.26.14l1.03,2.15a1.751,1.751,0,0,1,.9-.25,2.413,2.413,0,0,1,.6-.02c.12.02.65.02.52.02.02.01.09-.04.19-.09-.19.05-.57-.28-.42-.5a.224.224,0,0,1,.34.03,3.577,3.577,0,0,1-.09-.35c.7-.14.5-.67.96-1.13l.14.1c-.07-.3-.13-.54.06-.72l.26.22c.36-.11-.46-.6-.04-.78-.28-.23-.59-.14-.9-.31.35.13.69-.18.42-.27.18-.44.21-.23.3-.19l.02-.35c.24-.22.41.27.48.49-.08-.48.35-.5.64-.66l.01.21.37-.22a.84.84,0,0,1,.75-.72l.06.53c.34.08.01-.21.02-.31.21-.41.45-.16.74-.01.14-.35.5-.3.8-.23C15.72,19.96,15.97,20.03,16.09,19.63ZM38.18,41.99l.09-.03C38.29,42.12,38.34,42.23,38.18,41.99Zm.32-3.53c.3.36.04.29-.08.35.02-.44-.21-.59-.23-.98a1.169,1.169,0,0,1-.23.22.526.526,0,0,1,.16-.5c.28-.02.34.29.35.55C38.45,38.37,38.4,38.58,38.5,38.46Zm-2.13,9.12v-.13h0Zm1.99-2.12a.341.341,0,0,0,.28-.01C38.51,45.4,38.4,45.37,38.36,45.46Zm2.9-5.24c.21-.14.14-.5.09-.75A6.724,6.724,0,0,0,41.26,40.22Zm-18.3-9.5c-.12.15-.34.49.01.47.06-.22.46-.1.44-.4h.04C23.2,30.76,23.01,30.71,22.96,30.72ZM19.6,17.29c.1-.17.3-.31.29-.48l.03.03c-.01-.08-.02-.14.03-.17-.1-.1-.22-.2-.33-.17C19.35,17.09,19.09,17.09,19.6,17.29Z"/><path class="a" d="M25.25,19.6c-.04-.06-.06-.1-.09-.14A1.514,1.514,0,0,0,25.25,19.6Z"/><path class="a" d="M19.66,16.51c-.03.03.1.14.24.3A.411.411,0,0,0,19.66,16.51Z"/><path class="a" d="M27.58,49.11,27.7,49l-.34-.07a1.118,1.118,0,0,0-.31.99c.32-.43.62-.39,1.13-.69Z"/><path class="a" d="M28.63,51.01c.08.06.29.21.37.2V51Z"/><path class="a" d="M34.66,49.51l-.55.06C34.03,49.8,34.71,49.82,34.66,49.51Z"/><path class="a" d="M31.31,47.24l-.16.29c.28.08.55-.06.51-.3C31.43,47.47,31.54,47.15,31.31,47.24Z"/><path class="a" d="M35.97,48.9c-.04-.42.57-.12.48-.5C36.38,48.58,35.81,48.55,35.97,48.9Z"/><path class="a" d="M33.94,45.82c-.29-.26-.35.13-.65.18C33.5,45.9,33.98,46.09,33.94,45.82Z"/><path class="a" d="M37.81,46.36c.16.23-.04.36-.28.47.02-.12-.02-.26.04-.36a3.468,3.468,0,0,1-.45.72c.39-.04.89-.27,1.06.03C38.23,46.85,38.21,46.34,37.81,46.36Z"/><path class="a" d="M34.52,45.45c-.26.02-.49-.13-.73.01.13.15.35.36.61.16l.05.34C34.83,46.02,34.14,45.64,34.52,45.45Z"/><path class="a" d="M39.51,45.73l-.24.05c-.11.51-.6.79-.51,1.26A2.623,2.623,0,0,0,39.51,45.73Z"/><path class="a" d="M35.81,45.34l-.22-.39c-.29.14.11.11.07.26-.11,0-.25.04-.26.15C35.67,45.11,35.62,45.66,35.81,45.34Z"/><path class="a" d="M36.33,44.3c.05-.14.11-.27.16-.41a5.7,5.7,0,0,1-.55-.16C35.73,44.15,36.1,43.96,36.33,44.3Z"/><path class="a" d="M36.89,44.19l.09.03a5.928,5.928,0,0,0-.1-.87A4.725,4.725,0,0,0,36.89,44.19Z"/><path class="a" d="M40.79,36.38c-.21,0-.19.58-.1.28C40.88,36.68,40.77,35.93,40.79,36.38Z"/><path class="a" d="M37.98,39.15c.13-.18-.27-.53-.46-.63C37.7,38.67,37.74,39.22,37.98,39.15Z"/><path class="a" d="M37.45,38.47a.231.231,0,0,1,.07.05C37.5,38.49,37.48,38.47,37.45,38.47Z"/><path class="a" d="M29.74,31.95a.1.1,0,0,0-.09.01A.248.248,0,0,1,29.74,31.95Z"/><path class="a" d="M30,31.96a.452.452,0,0,0,.59.05,2.5,2.5,0,0,0-.85-.07C29.84,31.97,29.89,32.17,30,31.96Z"/><path class="a" d="M28.02,30.93c.15-.07.27.04.31-.15C28.3,30.67,28,30.78,28.02,30.93Z"/><path class="a" d="M26.29,30.07c.4-.3.48-.6.17-.64C26.17,29.85,26.46,29.71,26.29,30.07Z"/><path class="a" d="M26.72,28.89l.15.01.33-.19A4.68,4.68,0,0,1,26.72,28.89Z"/><path class="a" d="M27.75,25.91a.338.338,0,0,1,.12.17C27.84,25.91,27.8,25.78,27.75,25.91Z"/><path class="a" d="M27.89,26.16a.188.188,0,0,0-.02-.08A.188.188,0,0,1,27.89,26.16Z"/><path class="a" d="M27.8,26.35l.15.04c-.02-.06-.04-.16-.06-.24A.175.175,0,0,1,27.8,26.35Z"/><path class="a" d="M27.75,25.13q-.195.27-.39.51c.25.48.18-.58.67-.12Z"/><path class="a" d="M27.36,23.61c.04-.44-.76-.79-.35-1.14-.6-.94-.72.48-1.3-.57.12,1.13,1.13.21,1.16,1.3C27.03,22.62,27.21,23.46,27.36,23.61Z"/><path class="a" d="M26.57,23.99c.26.01.18-.49-.03-.59C26.55,23.55,26.26,23.87,26.57,23.99Z"/><path class="a" d="M26.5,21.62l.07-.38-.18-.02Z"/><path class="a" d="M26.13,20.44l.4.17C26.38,20.56,26.2,20.12,26.13,20.44Z"/><path class="a" d="M25.68,18.71c-.07-.32-.79-.22-.35.26l-.05-.14C25.39,18.82,25.43,18.39,25.68,18.71Z"/><path class="a" d="M21.97,15.93c.18.15.46.26.51.12l-.61-.29Z"/><path class="a" d="M21.06,17.32c-.11.43.41.26.56.61C21.39,17.61,21.47,17.59,21.06,17.32Z"/><path class="a" d="M21.64,15.02c.25-.05.46.2.58.33C22.29,15.09,21.82,14.88,21.64,15.02Z"/><path class="a" d="M20.57,14.63c-.15-.24.14-.2.01-.36a1.238,1.238,0,0,0-1.28-.33c.09.2.13.71-.1.86.71.02,1.39-.52,1.5.18a8.35,8.35,0,0,1,.92-.35C21.08,14.22,20.94,14.86,20.57,14.63Z"/><path class="a" d="M21.2,16.52l-.17-.39c-.06.24-.3.13-.51.12C20.36,16.74,21,16.44,21.2,16.52Z"/><path class="a" d="M16.46,14.33a6.231,6.231,0,0,0-.77.22c.09,0,.17-.01.26-.01Z"/><path class="a" d="M15.93,14.21l-.04-.15c-.19.12-.38.25-.56.38C15.53,14.37,15.72,14.28,15.93,14.21Z"/><path class="a" d="M15.06,14.18l.1.01.45-.22Z"/><path class="a" d="M13.43,14.56l.21.16c.17-.12.62-.01.5-.28A.684.684,0,0,1,13.43,14.56Z"/><path class="a" d="M12.81,21.51a.442.442,0,0,0-.29-.29l.16.37C12.7,21.55,12.73,21.47,12.81,21.51Z"/><path class="a" d="M11.98,21.47c.02.18.06.37.09.54.29-.24.09-.51.3-.81-.21.01-.14.38-.35.43Z"/><path class="a" d="M8.44,23.21c.19.2.21.12.2.41a.789.789,0,0,1,.19-.4c.07-.14.14-.28.23-.44-.18-.04-.32-.39-.32-.25l-.04.4-.13-.15C8.27,22.89,8.73,23.11,8.44,23.21Z"/><path class="a" d="M1.03,17.18c-.1-.11-.24-.08-.39-.05C.65,17.54,1.04,17.1,1.03,17.18Z"/><path class="a" d="M50.78,34.19c-.36.14-.04.12.14.22Z"/><path class="a" d="M50.92,34.4l.1.16A.178.178,0,0,0,50.92,34.4Z"/><path class="a" d="M52.16,35.57c-.48.04-.67-.53-1.13-.33C51.23,35.69,51.86,35.95,52.16,35.57Z"/><path class="a" d="M51.81,35.03l-.17.17.48-.13Z"/><path class="a" d="M51.73,34.73l-.01.09.55.07Z"/><path class="a" d="M53.28,36.28a2.744,2.744,0,0,1-.39-.09c-.2-.45.39-.29.26-.59-.42-.2-.42.54-.93.17-.09.29.89.43.61.82C53.26,36.91,52.96,36.34,53.28,36.28Z"/><path class="a" d="M59.61,27.3a.107.107,0,0,0-.02-.06C59.59,27.29,59.58,27.33,59.61,27.3Z"/><path class="a" d="M54.41,25.32a.863.863,0,0,0-.18-.16.442.442,0,0,0,.05.15Z"/><path class="a" d="M62.75,28.76a1.138,1.138,0,0,0,.05.23A.23.23,0,0,0,62.75,28.76Z"/><path class="a" d="M44.52,10.62a.42.42,0,0,0,.03-.14l-.01-.01-.07.13Z"/><path class="a" d="M49.91,22.45a.744.744,0,0,0,.03-.17A.829.829,0,0,1,49.91,22.45Z"/><path class="a" d="M63.76,30.33a.488.488,0,0,0-.03-.07.34.34,0,0,0-.01.1l.04-.03Z"/><path class="a" d="M55.87,26.54a.569.569,0,0,0-.16-.13A.4.4,0,0,0,55.87,26.54Z"/><path class="a" d="M59.05,37.83a.3.3,0,0,0,.29-.06C59.27,37.71,59.18,37.7,59.05,37.83Z"/><path class="a" d="M61.45,37.48l-.01.01C61.46,37.54,61.46,37.53,61.45,37.48Z"/><path class="a" d="M62.99,36.98l-.02.02C63,37.03,63.02,37.03,62.99,36.98Z"/><path class="a" d="M59.35,37.78c.2.18.32.77.52.1l-.06-.09c.17.15.37-.13.54-.19a1.019,1.019,0,0,0-.08-.15,1.948,1.948,0,0,1-.39-.02C59.66,37.3,59.55,37.62,59.35,37.78Z"/><path class="a" d="M59.69,27.21c-.04.11.1.13,0,0Z"/><path class="a" d="M61.34,27.77l-.12-.12C61.25,27.71,61.28,27.76,61.34,27.77Z"/><path class="a" d="M63.51,32.62l.03-.02C63.47,32.58,63.48,32.6,63.51,32.62Z"/><path class="a" d="M61.11,27.55c.04.03.08.07.12.1A.157.157,0,0,0,61.11,27.55Z"/><path class="a" d="M63.84,31.02c0-.01.01-.02.01-.03A.037.037,0,0,0,63.84,31.02Z"/><path class="a" d="M34.97,1.46c.22.08.22.3.33.47.64-.05-.75-.59.03-.49a1.534,1.534,0,0,0-.51-.21l.01.5C35.25,1.83,34.69,1.46,34.97,1.46Z"/><path class="a" d="M42.61,9.86l.07.03c-.06-.18-.03-.24-.29-.32-.18.31.19.7-.13,1.05a.351.351,0,0,1,.27-.01A.674.674,0,0,1,42.61,9.86Z"/><path class="a" d="M42.53,10.62c0,.01.01.01.01.02a.879.879,0,0,0,.06.1.4.4,0,0,1,.15.03A.328.328,0,0,0,42.53,10.62Z"/><path class="a" d="M38.49,6.33c.02.07.03.13.04.18C38.57,6.4,38.55,6.35,38.49,6.33Z"/><path class="a" d="M47.14,22.78c.03-.16.07-.32.09-.45A.744.744,0,0,0,47.14,22.78Z"/><path class="a" d="M46.18,10.22a.886.886,0,0,0,.17.08c.04,0,.07-.01.11-.01Z"/><path class="a" d="M36.98,16.02c-.21-.43-.02.06-.29-.07l.05.27C36.88,16.21,36.91,16.09,36.98,16.02Z"/><path class="a" d="M34.82,1.19c-.01.01-.01.02-.03.03a.037.037,0,0,1,.03.01Z"/><path class="a" d="M34.46,13a.637.637,0,0,1,.07.02A.145.145,0,0,0,34.46,13Z"/><path class="a" d="M43.91,10.72l.86.02-.25-.11C44.41,10.85,44.03,10.44,43.91,10.72Z"/><path class="a" d="M39.55,15.18l.14.25c.51-.79,1.52-.12,1.93-1.06,1.03.84.46-.98,1.39-.2l-.04-.14a7.849,7.849,0,0,1,.97.01c.35.02.7.05,1.05.08a19.943,19.943,0,0,1,2,.31c1.27.26,2.35.59,3.14.83l-.11.17a2.6,2.6,0,0,1,.52.57,3.25,3.25,0,0,1,.34.7,6.352,6.352,0,0,1,.41,2.09,4.585,4.585,0,0,1-.04.52,3.243,3.243,0,0,1-.46.71,4.146,4.146,0,0,1-.74.72c-.12.08-.23.15-.29.18s-.04,0-.06.02c0,0-.01-.01,0,.01a.358.358,0,0,0,.04.11l.07.18a2.339,2.339,0,0,1,.09.38,2.068,2.068,0,0,1,.06.39v.25a.375.375,0,0,1-.01.1c-.01.04-.03.1-.02.07h0c0-.01.01-.01,0,.01L51.1,24.5a.477.477,0,0,1-.18-.06c-.07-.03-.16-.13-.08-.05a.243.243,0,0,1,.07.09c0,.01,0,.01.01.02l.06.08a1.505,1.505,0,0,1,.1.17,1.644,1.644,0,0,0-.14-.22c-.05-.06-.02-.04-.04-.07a.06.06,0,0,1,.01.04,1.855,1.855,0,0,1,.12.18,1.154,1.154,0,0,1,.15.36c-.02-.08.04.2.01.03a1.431,1.431,0,0,0,.1.29c.02.06.03.11.05.16l-.01-.04V25.4c-.01-.02.06.04.09.11a1.2,1.2,0,0,0,.11.2c.03.04.08.05.21-.01.07-.68.91-1.15,1.64-1.46l.27.25c-.41-.11-.12.47-.6.33.35.27.81.11,1.18.33a.331.331,0,0,1,.24-.41c.22.17.14.49.4.62l-.34.11c.1.29.37.04.55.07-.04.28.35.48.17.75.51-.21.56.04,1.05-.02-.3-.45.25-.3.3-.53l-.52-.1c.6.45-.24-.05-.36.43-.24-.33.73-.56.17-.7.73.03.78.28,1.6.21-.43-.09.2-.25.05-.48.52.21.06.21.09.56.28.11.26.4.66.2.37.34-.22.29-.09.57-.29.22-1.03-.93-1.34.09-.23-.09-.66.17-.97.01.23.24.48.73.92.66l.26-.53c.27.11.49-.23.66-.1a.272.272,0,0,0,.13.47c-.02-.1-.11-.13-.05-.21.4.15.63-.2,1.12-.05a4.992,4.992,0,0,1-.53-.94c.28-.33.28.07.52.14-.06.03-.11.02-.08.13l.32-.06c.38.41-.34.5-.06.88.08.44.44.03.53.32.01-.04.01-.08.02-.11a.593.593,0,0,1,.08.08l.01-.03c.26.09.48.28.72.06-.05.13.22.1.35.08.2-.02.72-.08.59.46-.01,0-.01-.01-.02-.01.23.26.3.55.14.63a4.08,4.08,0,0,1,.28.44l-.32.25c.39.23.51.04,1.04.01a1.234,1.234,0,0,0,.7.84c0,.04.03.08.08.15a1.027,1.027,0,0,0,.05-.24c.15.32.31.19.42.41.01-.06.03-.07.03.07a.572.572,0,0,1,.01.14c-.04,0-.05-.05-.05-.11l-.11.09c-.33.39.38.32.28.67a.207.207,0,0,1-.06-.1c-.08.2-.59.48-.25.5-.04.04.03.08.12.13l-.05.12c.02-.05.03-.08.05-.12.12.06.27.13.18.14a3.1,3.1,0,0,1-.08.42c-.07.07-.01.19.03.27l-.18.04c-.01.14-.11.12-.15.09-.35.15-.26.33-.27.5s.01.39-.32.43c.16.23.41.17.53.22.16.2.06.54.06.8a2.53,2.53,0,0,0-.39,0,3.421,3.421,0,0,1-.46-.04.665.665,0,0,1-.61-.43c-.38.15.29.24.21.51h-.06a.942.942,0,0,1,.56.19c.21.22-.12.59-.32.55l-.11-.42c-.35.33.01.87-.15,1.42-.49-.01-.37-.47-.58-.8l-.37.22-.09-.31c-.23.16-.23.48-.64.41.21-.34-.6-.21-.3-.67-.21-.08-.19.55-.34.14-.1.37.2.14.32.23.16.48-.43.32-.68.44-.04-.25.15-.31-.16-.46-.05.2-.24.36-.41.13.01.33-.34.07-.51.04.19.07.47.32.35.59a.751.751,0,0,1-.66.13l.24.16c-.34.45-.51-.34-.94-.25.2-.17.31-.16.48-.39a3.431,3.431,0,0,1-.94.44l-.29-.51c-.08.23-.39-.1-.44.22-.39-.3.42-.31.49-.54-.49-.31-.53.44-.94-.14l.2-.25c-.16-.05-.53.04-.51-.12-.03.1.07.09.17.11-.25.6-.88.22-1.01.88l.23.11c-.4.02-.83.38-1.04.04-.15-.28.31-.37.48-.49-.32-.17-.52.59-.92.37.18.18.06.39-.14.5.24.14.73.45.73.15l-.07-.1c.08-.15.23-.16.33-.23.34.1.07.33.1.48.56.27.23-.63.75-.46l.04.14c.29-.09.69-.06.83-.44.15.46.6-.04.81.23-.1.96-.87-.21-1.26.23.24.24-.26.41-.43.59.33-.06.66-.14.98-.22.04.14.23.67.45.34l-.07-.03c.38-.06.33-.46.62-.29.04.09-.07.23-.11.29.28.12.26-.19.46-.25.28.12-.18.37.05.5.36-.33.53.11.83.1-.05-.27.24-.44.46-.61s.36-.36.07-.58l.63-.4c.23.27-.41.77-.21,1.22a5.23,5.23,0,0,1-.56,0c.12.67,1.13-.47,1.57.21.31-.02.21-.1.86.13L60.9,37a.838.838,0,0,1,.53.47,1.646,1.646,0,0,1,.51-.15.386.386,0,0,1-.16.26c.33.25.37.11.4-.09.08-.18.28-.21.47-.3l-.09.29c.1-.1.23-.23.2-.33a.8.8,0,0,0,.21-.15,1.474,1.474,0,0,0-.67-.36,5.406,5.406,0,0,0,.98-.24,2.941,2.941,0,0,1,1.04-.25c.09.15-.02.5.06.46.37-.14.45-.67.24-.83a1.418,1.418,0,0,1,.11-.16.466.466,0,0,0,.47-.03.357.357,0,0,0,.25-.11c-.26-.35.24-.86.12-1.09a1.855,1.855,0,0,0-.29.48c-.13-.43-.36-.77-.03-.85.04.59.71-.31.46.47.8-.3-.22-.43.12-.91l.32-.31c.32.13.01.67.16.62l.03-.29c.23.36-.37,1.33-.49,2.13a8.016,8.016,0,0,0,.9-1.22,13.836,13.836,0,0,0,.26-2.82,3.17,3.17,0,0,0-.94-2.27l.03.05a.587.587,0,0,0-.23.03l.06-.08-.34-.13c.19-.39-.01-.9-.04-1.43-.03.37-.03.36-.24.52-.33.13-.45.16-.57-.22.2-.14.34.07.32-.29-.01.19-.23.18-.36.06,0-.28-.21-.59-.03-.75.12.04.11.16.13.23.12.04-.11-.47.25-.35l-.33-.28c-.01-.33.35-.08.39-.25-.61-.45-1.26-.28-1.81-.54a3.976,3.976,0,0,0,.36-.37c-.26-.44-1.14-.17-1.57-.42.15-.09.27.07.44.1-1.13-1.09-2.25-1.7-3.3-2.76l-.56.36-.18-.49a7.688,7.688,0,0,0-3.88-1.22c-.45-.09-.16-.45-.35-.66a1.88,1.88,0,0,0-1.23.04,4.788,4.788,0,0,1-1.24.3c.15-.16.45-.63-.05-.68-.09.15-.15.41-.49.33l.17-.18c-.35-.22-.57-.04-1.37.05-.14.03-.28.08-.42.12a4.756,4.756,0,0,0-.45.24,2.583,2.583,0,0,0-.78.67,2.652,2.652,0,0,0-.64,1.81l-.03,1.89.77.04a2.968,2.968,0,0,0,.61-.03c.6.17.58.27.38.42s-.58.22-.45.31c-.45-.23-.63-.32-.75-.31l-.8.06-.15-2.55c-.01-.14-.16-.15-.2-.32l-.05.23-.49,2.45,1.58.37a7.574,7.574,0,0,1,.83.23,1.1,1.1,0,0,1,.58.37,2.241,2.241,0,0,0,1.78-.5c-.29.26-.62.11-.37-.14a3.309,3.309,0,0,0,.99-.26c.3-.11.57-.17.68.06a11.552,11.552,0,0,0,2.58-2.44,8.033,8.033,0,0,0,1.04-1.7,6.645,6.645,0,0,0,.47-2.09c-.23-.44-.12.31-.29.07-.3-.61.2-.47-.07-.94l.27.19a3.4,3.4,0,0,0-.92-1.91c.33.04.15-.55.43-.08-.11-.27,1.15-1,.79-1.19-.38.24-.76.47-1.15.69-.12.01-.17-.41-.24-.35.17-.32.35-.74.27-.93.28-.21.38.29.45.55.54-.12.02-1.01.63-.78-.31-.56-.23.18-.55-.1-.03-.18-.06-.36-.11-.55,0,.16.01.31,0,.46-.33-.36-.75-.3-.79-.99a6.962,6.962,0,0,0-.81-.26c.31-.3-.21-.45-.36-.74l.35-.03a1.676,1.676,0,0,1-.49-.82c.45-.08.24.37.57.2l-.29-.48c-.17.17-.53.11-.37.46a2.234,2.234,0,0,1-1.85-.4c-.18-.6.61-.05.67-.5-.9-.76-1.65.33-2.13.07-.6-.4-.69-.04-1.36-.19.29-.22-.39-.42-.46-.7l.34-.23c-.23.04-.41-.11-.31-.3-.04.38-.98.17-1.47.3l.04.34a3.139,3.139,0,0,1-1.25.1c-.56.07-.45.37-.88.71a1.151,1.151,0,0,1-.1-1.01c.14.17.4.08.64.2.71-.24,1.37-.88,2.09-.6.45-.74-.52.01-.84-.3.02-.05.04-.06.07-.06a.318.318,0,0,1-.09-.03c.28-.06.74-.14.88-.52-.48.01-.44.74-.96.33-.43.18-.72-.47-.97-.54-.3.29-.34.91-.99.77l.3-.44c-.76-.02-.37.64-1.05.62.24.05-.23.44.22.45a1.085,1.085,0,0,1-1.06.17c-.09.07-.01.15-.02.3.4.3.62-.32.95.12l.28-.48a.444.444,0,0,1,.17.75c.1-.02.19-.08.27,0,.05.73-.43-.27-.56.35l.25-.05c.1.47-.59.41-.91.39-.37-.21-.71-.27-.76-.61l.5-.17c-.27-.26-.65.19-.94.21a.293.293,0,0,0-.09-.1.161.161,0,0,1,.03.09.318.318,0,0,1-.18-.12c-.26,0-.61.27-.86.19l.07.3.01-.17c.24-.02.57.12.43.37-.48.28-.67-.28-.84-.52.05-.49.52-.07.76-.27-.22-.43-.55.02-1.15-.18.14-.54.64-.1.7-.58-.47-.02-.53.36-1.03.31.02-.24.48-.34.4-.63l-.34-.09c.77-.16-.25-.6.35-.82-.33-.15-.34.47-.8.23.16.19.55.53.2.79l-.46-.06c-.23-.2.35-.62.02-.76l-.43.26c.05.14.28.17.19.4-.3-.11-.3.67-.55.95-.24.05-.44.06-.57-.08-.48.6-1.24.82-1.62,1.43.25-.43-.2-.48-.51-.59.41-.23.25-.68.11-.95-.26.16-.26.68-.06.77-.52.01-.17.41-.7.31-.33-.02-.07-.49-.23-.6-.52.23.11.58-.47.75,0-.07.04-.11-.04-.17a.627.627,0,0,0-.48.69c-.64-.36-.81.67-1.11.13-.6.67.31.17.3.44-.11.38-.71.74-.94.83.14-.17.17-.43.4-.52l-.43-.15a.778.778,0,0,0-.42.98c.08.31.13.5-.27,1.01.08-.7-.2-.35-.29-.79-.03.22-.55,1.2,0,.71a6.581,6.581,0,0,0-.52,1.15c.03.19.06.38.1.55l.78,3.31,1.68-1.15a1.144,1.144,0,0,0,.45-.48,3.831,3.831,0,0,1,1.33.09c.49-.38,1-.6,1.52-.93a3.255,3.255,0,0,0,1.33-1.41l-.08.07c.7-.85-.71.07-.09-.83.37.4.65-.42,1-.71a2.9,2.9,0,0,0,.24-1.97,4.3,4.3,0,0,1-.16-1.5.26.26,0,0,1,.29.23,6.339,6.339,0,0,0-.42-2.02l.07.01c.06-1.16-.78-1.87-1.36-2.76.1.05.28-.02.37.01-.14-.54-.5-1.37-1.12-1.46.07-.84-.34-.28-.47-1.29.04-.1.12.02.18.06a3.7,3.7,0,0,0-.68-1.13c-1.11-.65-1.69-.31-2.75-1.13.25-.65.83.25,1.14-.17-.31-.07-.6-.05-.87-.39.34-.13.12-.13.39-.27-.23-.35-1.45.14-1.39.1-.06.12.01.21.27.3-.43.27-1.26-.4-1.88-.29.19.04.76.29.46.57-.73-.29-1.06.35-1.53.59-.6-.35.49-.56.43-1.04-.1-.19-.34-.59-.04-.76-.56-.1-1,.31-1.49.42l.01-.14c-.69.06-1.33.69-1.83.43l.27.15c-.1.08-.39.05-.55.33.01-.23-.35-.43-.2-.62-.22.74-1.38.41-1.72,1.11-.17-.18-.03-.48.02-.65.42.07.55.22.77-.07-.34,0-.59-.19-.53-.35-.36.45-1.19.63-1.35,1.1-.26-.21-.53-.32-.46-.71-1.1.33.62,1.11-.59,1.22-.61-.29.5-.57-.31-.58l.14-.08c-.74-.87-.31.74-.93.85-.23-.49.38-.48-.19-.74-.65.34-.6,1.13-1.24,1.4l-.04-.25c-.1.08-.22.19-.35.3-.09.11-.2.24-.3.36a1.539,1.539,0,0,0-.29.79c-.1-.03-.08-.08-.09-.18-.32.72.22.42-.13.97l.28.25a1.232,1.232,0,0,0,.18-.54,1.271,1.271,0,0,0-.02-.72c.07.26.26.19.48.15s.42-.08.58.13c-.04-.06-.07-.11-.11-.16a4.678,4.678,0,0,1,1.32-.06,8.685,8.685,0,0,1,1.38.12c.56-.61,1.06.15,1.74-.23.11-.62.13-.13.75-.24-.33.06-.06.46.15.55a.9.9,0,0,1,.44-.27c.12.22.99.71,1.27.28.39.19-.08.2-.17.33.17.32.31-.26.45-.05a.141.141,0,0,1-.04.1,5.942,5.942,0,0,1,1.48.18c.05-.61.53-.23.76-.42-.08.19.27.25.38.38l.31-.41c.33-.34.28.33.61.21l-.03-.12c.29-.12.68.47.63.84,1.07-.05,1.59.98,1.83,1.93a14.47,14.47,0,0,0,.9,3.17c.23.1.25-.21.55-.17a1.5,1.5,0,0,1,.22.53c.1-.25-.09-.16.08-.18l-.27-.3c.04-.03.07,0,.14-.06-.1-.1-.25-.2-.28-.37.23.16.67.09.61.45-.07-.01-.1-.04-.16-.11.05.26.25.21.2.44-.03.26.09.17-.09.25-.03.26-.03.51-.08.75.6.26.13.74.07.8-.39-.02-.16-.38-.57-.47a3.084,3.084,0,0,1-.27.24l.32-.02a1.148,1.148,0,0,1-.07.28l-.06-.01c.13.02.25.06.14.09-.04.01-.13.02-.15,0,.07.04.11.06.17.1-.33-.08-.1.06-.49-.01-.1.05,0,.12.05.22.06.08.02.21-.28.15.18.08.35.52.17.57a.284.284,0,0,1-.24-.23c-.01.09-.02.17-.04.27-.51-.39-.51.05-.92-.02l-.04-.17c-.04.21-.13.39-.29.39l3.11,2.73h.02c.08.01.08.01.07,0h0c.01.01,0,.01-.01.01-.08-.01-.36-.09-.2-.08a3.246,3.246,0,0,0-.89-.17c.34.03.49-.06.22-.14-.07-.25.07-.12.14-.09-.03-.07-.07-.15-.1-.23.12-.14.4.26.56.4-.28-.33.12-.3.27-.38l.06.18a1.47,1.47,0,0,1,.25-.12c-.05-.34.24-.53.56-.55.02.18.05.35.07.52.28.12,0-.19,0-.29.17-.36.41-.1.67.07C38.31,14.99,39.3,16.01,39.55,15.18ZM63.76,32.54l.08-.04C63.9,32.63,63.96,32.7,63.76,32.54Zm-.55-3.03c.36.25.1.26,0,.35-.07-.4-.34-.49-.42-.87a1.024,1.024,0,0,1-.19.25.431.431,0,0,1,.08-.49C63.21,28.59,63.09,29.82,63.21,29.51Zm-1,7.91.03-.12h0Zm2.21-1.79a.341.341,0,0,0,.28-.01C64.57,35.57,64.46,35.54,64.42,35.63Zm1.87-5.36c.16-.18,0-.48-.12-.68A3.35,3.35,0,0,0,66.29,30.27ZM55.36,16.28c.11.14.38.4.46.08-.2-.09.02-.43-.26-.47,0-.02.01-.02.01-.03A2.487,2.487,0,0,0,55.36,16.28ZM42.63,11.82c0-.2.08-.42,0-.57l.04.01c-.04-.06-.08-.12-.06-.16-.12-.03-.25-.06-.32.01C42.34,11.76,42.13,11.89,42.63,11.82Z"/><path class="a" d="M47.49,9.23a.744.744,0,0,0-.15,0A.744.744,0,0,0,47.49,9.23Z"/><path class="a" d="M42.33,11.11c-.01.04.14.09.31.14A.379.379,0,0,0,42.33,11.11Z"/><path class="a" d="M54.53,35.09a.675.675,0,0,0,.14-.02c-.06-.08-.12-.18-.18-.27-.46.06-.59.31-.81.57.49-.15.64.1,1.17.15C54.74,35.38,54.63,35.24,54.53,35.09Z"/><path class="a" d="M54.1,37.2c.02.1.08.34.15.38l.13-.17Z"/><path class="a" d="M60.07,38.79l-.53-.14C59.38,38.83,60.01,39.1,60.07,38.79Z"/><path class="a" d="M57.99,35.43l-.23.21c.18.18.44.17.49-.07C57.99,35.69,58.2,35.44,57.99,35.43Z"/><path class="a" d="M61.5,38.61c.08-.42.59.01.6-.37C61.99,38.39,61.44,38.23,61.5,38.61Z"/><path class="a" d="M60.44,35.06c-.18-.34-.31.01-.56-.04C60.07,34.99,60.41,35.33,60.44,35.06Z"/><path class="a" d="M63.81,36.48c.13.24-.08.39-.34.44.04-.11.02-.24.09-.35-.25.4-.31.35-.56.62.39.04.93-.1,1.06.2C64.18,37,64.21,36.5,63.81,36.48Z"/><path class="a" d="M60.97,34.9c-.21-.05-.36-.26-.58-.22.07.18.22.46.46.34l-.02.34C61.13,35.52,60.64,34.98,60.97,34.9Z"/><path class="a" d="M65.58,35.88l-.25.06a2.214,2.214,0,0,1-.36.7.882.882,0,0,0-.27.61A2.357,2.357,0,0,0,65.58,35.88Z"/><path class="a" d="M62.05,35.14l-.16-.42c-.25.05.08.13.04.27-.1-.03-.21-.02-.23.09C61.95,34.88,61.87,35.4,62.05,35.14Z"/><path class="a" d="M62.52,34.3l.11-.31a3.717,3.717,0,0,1-.48-.27C62.03,34.02,62.31,33.96,62.52,34.3Z"/><path class="a" d="M63.01,34.31l.08.04a3.79,3.79,0,0,0-.22-.76A6.02,6.02,0,0,0,63.01,34.31Z"/><path class="a" d="M65.09,27.09c-.2.05-.12.55-.07.27C65.21,27.32,65.02,26.72,65.09,27.09Z"/><path class="a" d="M62.88,30.28c.07-.18-.37-.42-.6-.48C62.5,29.92,62.66,30.42,62.88,30.28Z"/><path class="a" d="M62.19,29.77a.465.465,0,0,0,.09.03A.19.19,0,0,0,62.19,29.77Z"/><path class="a" d="M53.99,26.07a.1.1,0,0,0-.08.03A.689.689,0,0,0,53.99,26.07Z"/><path class="a" d="M54.24,26.03a.439.439,0,0,0,.56-.09,2.022,2.022,0,0,0-.8.13C54.1,26.08,54.17,26.26,54.24,26.03Z"/><path class="a" d="M52.35,25.44c.11-.11.22-.03.23-.22C52.54,25.13,52.31,25.3,52.35,25.44Z"/><path class="a" d="M55.88,13.39c-.09-.36-.28-.51-.46-.27C55.62,13.45,55.66,13.18,55.88,13.39Z"/><path class="a" d="M55.1,12.78l.08-.13.03-.32Z"/><path class="a" d="M53.66,10.76a.241.241,0,0,1,.19-.01C53.71,10.69,53.59,10.67,53.66,10.76Z"/><path class="a" d="M53.91,10.79a.487.487,0,0,0-.07-.03Z"/><path class="a" d="M53.98,10.96l.12-.1a1.145,1.145,0,0,1-.19-.07A.129.129,0,0,1,53.98,10.96Z"/><path class="a" d="M53.09,10.33c.05.2.1.4.14.6.5.08-.31-.47.32-.6Z"/><path class="a" d="M51.72,9.75c-.32-.3-1.05.16-1.09-.38-1.06-.05-.04.86-1.17.74.92.52.79-.8,1.65-.21C50.76,9.43,51.51,9.78,51.72,9.75Z"/><path class="a" d="M51.54,10.6c.16-.21-.27-.41-.46-.31C51.19,10.37,51.26,10.78,51.54,10.6Z"/><path class="a" d="M49.69,9.31l-.25-.26-.11.14A3.036,3.036,0,0,1,49.69,9.31Z"/><path class="a" d="M48.58,8.96c.11-.08.23-.16.35-.23C48.81,8.81,48.38,8.72,48.58,8.96Z"/><path class="a" d="M47.07,8.38c-.26-.12-.56.54.01.43l-.12-.04C47,8.68,46.72,8.42,47.07,8.38Z"/><path class="a" d="M43.59,9.36c.17.01.37-.08.33-.22l-.47.16Z"/><path class="a" d="M43.72,11.01c.16.41.42-.05.71.09A1.326,1.326,0,0,0,43.72,11.01Z"/><path class="a" d="M42.97,8.81c.13-.18.36-.08.49-.06C43.39,8.52,43.02,8.6,42.97,8.81Z"/><path class="a" d="M42.18,9.03c-.18-.15.01-.23-.12-.33a.708.708,0,0,0-.89.19,1.081,1.081,0,0,1,.2.84c.5-.22.69-1.02,1.03-.46l.4-.76C42.33,8.44,42.49,9.04,42.18,9.03Z"/><path class="a" d="M43.4,10.3l-.3-.22c.07.23-.14.28-.28.38C42.94,10.97,43.23,10.34,43.4,10.3Z"/><path class="a" d="M39.28,9.88l-.56.27.2-.03Z"/><path class="a" d="M38.86,9.81l-.05-.14-.39.39Z"/><path class="a" d="M38.18,9.81l.08.01.32-.23Z"/><path class="a" d="M36.88,10.13l.19.17c.13-.11.52.02.4-.25A.484.484,0,0,1,36.88,10.13Z"/><path class="a" d="M36.74,16.59a.893.893,0,0,0-.31-.27,3.358,3.358,0,0,0,.24.29C36.66,16.59,36.66,16.54,36.74,16.59Z"/><path class="a" d="M36.14,16.36a.882.882,0,0,0,.36.26.9.9,0,0,1-.08-.11c-.05-.07-.12-.15-.11-.24-.14-.03.08.21-.06.18Z"/><path class="a" d="M35.42,12.02c.28-.01.23-.08.44.13a4.014,4.014,0,0,1-.34-.98c-.15.11-.52-.1-.41.02l.26.39-.2-.02C35.02,11.88,35.52,11.69,35.42,12.02Z"/><path class="a" d="M20.66,2.68c-.01-.15-.14-.21-.29-.27-.17.2-.07.25.06.24S20.69,2.65,20.66,2.68Z"/></g></svg>