<svg xmlns="http://www.w3.org/2000/svg" viewBox="0 0 75.785 88.235"><defs><style>.a{fill:#131986;}</style></defs><g transform="translate(-1.02 14.778) rotate(-19)"><path class="a" d="M53.29,69.4c-.35-.22-.11.08-.07.35Z"/><path class="a" d="M53.22,69.76l-.05.25A.278.278,0,0,0,53.22,69.76Z"/><path class="a" d="M53.05,72.08c-.3-.52.06-1.16-.37-1.49C52.43,71.14,52.57,71.96,53.05,72.08Z"/><path class="a" d="M53.3,71.27l-.24-.05.38.45Z"/><path class="a" d="M53.5,70.93l-.08.07.26.72Z"/><path class="a" d="M52.91,73.76l-.07-.42c.31-.49.44.31.64-.01-.01-.66-.67-.21-.59-1.04-.29.06.04,1.35-.44,1.15C52.31,73.88,52.74,73.47,52.91,73.76Z"/><path class="a" d="M24.38,72.84a.339.339,0,0,0-.06-.06C24.33,72.83,24.35,72.88,24.38,72.84Z"/><path class="a" d="M16.03,68.37a1.78,1.78,0,0,0-.23-.31.68.68,0,0,0,.03.19Z"/><path class="a" d="M29.93,73.42a2.29,2.29,0,0,0,.31.2A.506.506,0,0,0,29.93,73.42Z"/><path class="a" d="M3.58,28.95a.375.375,0,0,0,.14.05.035.035,0,0,0,.01-.02l-.13-.1Z"/><path class="a" d="M8.71,60.38a2.841,2.841,0,0,0-.22-.34A.8.8,0,0,0,8.71,60.38Z"/><path class="a" d="M33,74.21c-.05-.01-.09-.03-.13-.04a.988.988,0,0,0,.15.09L33,74.21Z"/><path class="a" d="M17.88,70.66a1.093,1.093,0,0,0-.22-.25A1.356,1.356,0,0,0,17.88,70.66Z"/><path class="a" d="M48.41,75.12a.516.516,0,0,0-.38-.04C48.1,75.17,48.22,75.2,48.41,75.12Z"/><path class="a" d="M45.29,74.52h.02C45.3,74.46,45.29,74.47,45.29,74.52Z"/><path class="a" d="M43.34,74.09h.04C43.36,74.04,43.35,74.03,43.34,74.09Z"/><path class="a" d="M48.02,75.08c-.21-.24-.16-.84-.64-.27l.05.1c-.17-.19-.52,0-.77-.03a.428.428,0,0,0,.06.17,4.216,4.216,0,0,1,.5.17C47.48,75.42,47.73,75.15,48.02,75.08Z"/><path class="a" d="M24.44,72.73c0,.13.22.12,0,0Z"/><path class="a" d="M27.19,72.96l-.25-.09A.422.422,0,0,0,27.19,72.96Z"/><path class="a" d="M37.1,75.54l-.04-.04C37.03,75.57,37.07,75.56,37.1,75.54Z"/><path class="a" d="M26.7,72.8a2.171,2.171,0,0,1,.24.07A.379.379,0,0,0,26.7,72.8Z"/><path class="a" d="M34.16,74.59c-.01-.01-.03-.02-.04-.03C34.13,74.58,34.14,74.59,34.16,74.59Z"/><path class="a" d="M33.2,8.88c-.18.09-.33-.05-.53-.07-.33.51.85-.15.33.35a1.2,1.2,0,0,0,.44-.21l-.34-.36C32.77,8.82,33.37,8.68,33.2,8.88Z"/><path class="a" d="M4.61,26.58l-.05.08c.19-.03.24.02.38-.27-.25-.3-.73.06-.98-.46a.625.625,0,0,1-.07.36C4.18,26.12,4.41,26.35,4.61,26.58Z"/><path class="a" d="M3.9,26.28l-.02.01a1.091,1.091,0,0,0-.11.06.4.4,0,0,1-.07.19A.618.618,0,0,0,3.9,26.28Z"/><path class="a" d="M26.64,10.18c-.08.01-.16.01-.23.02C26.53,10.24,26.6,10.23,26.64,10.18Z"/><path class="a" d="M13.68,58.62a1.5,1.5,0,0,0,.23.17A.448.448,0,0,0,13.68,58.62Z"/><path class="a" d="M4.06,31.16a.93.93,0,0,0-.05.24c.01.05.02.09.03.15Z"/><path class="a" d="M5.19,14.26c.24.44.05-.11.45-.16v-.39A1.983,1.983,0,0,0,5.19,14.26Z"/><path class="a" d="M33.46,8.97c0-.01-.01-.03,0-.04l-.02.02Z"/><path class="a" d="M13.68,7.77a1.087,1.087,0,0,1,.18.01A.259.259,0,0,0,13.68,7.77Z"/><path class="a" d="M3.53,28.1c-.03.4-.06.79-.07,1.19l.12-.35C3.35,28.77,3.8,28.28,3.53,28.1Z"/><path class="a" d="M1.7,19.34l-.31.01c.02,1.51-1.23,2.81-.64,4.08-.67.71-.48,1.03-.29,1.31s.39.55-.14,1.23l.15-.03a34.5,34.5,0,0,0-.4,3.68c-.08,1.21-.02,2.61-.04,3.49-.01,1.03-.07,2.18.02,3.43A12.786,12.786,0,0,0,.32,38.5,12.245,12.245,0,0,0,.9,40.33l-.2.06a27.527,27.527,0,0,0,.83,2.64l.43,1.17c.13.36.24.67.35,1.03.45,1.39.82,2.97,1.35,4.68a27.823,27.823,0,0,0,.94,2.63c.37.86.78,1.68,1.18,2.46.82,1.58,1.6,2.94,2.26,4.38.43.47.67-.06,1.1.32.09.22.35.69.13.8-.33-.36-.41-.03-.56-.12.35.67.58,1.74,1.22,2.25-.02-.24-.02-.47-.03-.7a2.642,2.642,0,0,1,.52.86c-.2-.02-.29.5-.48.34,1.54.96.4,1.29,1.54,2.26a3.034,3.034,0,0,1,1.54.35c.64.25,1.28.51,1.83.67l.29.48c-.54-.47-.31.39-.96-.24.44.66,1.15.88,1.62,1.4,0-.22.17-.36.43-.25.27.34.09.62.44.94l-.5-.13c.09.4.51.31.77.45-.1.28.42.75.13.92.73.09.75.39,1.47.64-.4-.69.38-.17.46-.41l-.71-.42c.78.86-.33-.2-.55.24-.27-.5,1.05-.17.32-.66a10.914,10.914,0,0,0,2.21,1.15c-.63-.33.29-.18.06-.51.73.48.08.26.14.67.42.26.45.6,1.04.51.7.51-.29.26.03.63-.23.08-.74-.31-1.16-.6s-.82-.48-1.04.01c-.36-.24-1.01-.24-1.45-.61.3.41.69,1.16,1.43,1.38l.36-.47c.45.29.76,0,1.07.24-.27.04-.07.46.38.63-.09-.14-.26-.21-.16-.27.77.34,1.14.07,2.07.21a4.29,4.29,0,0,1-1.38-1.15c.35-.29.46.17.9.27-.08.03-.17.01-.08.13.17-.01.34-.02.5-.04.77.4-.25.56.36.93.36.46.67-.02.97.26-.01-.04-.03-.09-.04-.12a1.833,1.833,0,0,1,.17.07v-.03c.44.06.88.21,1.08-.06.01.15.38.06.54,0,.27-.06.92-.26,1.15.32h-.03c.51.2.88.46.73.59l.82.35-.19.37c.8.1.78-.15,1.41-.41a3.26,3.26,0,0,0,1.92.41.945.945,0,0,0,.31.08l-.29-.24c.6.18.58-.05.97.06-.07-.06-.08-.08.13.04.07.03.14.06.22.09-.03.04-.12.01-.2-.04l.04.15c.39.55.8-.08,1.29.18a.449.449,0,0,1-.2,0c.27.16.57.81.77.49.06.06.18.01.3-.06l.2.1c-.08-.04-.15-.07-.2-.1.16-.09.32-.2.32-.11l.74.22a.769.769,0,0,0,.5.05l.09.19c.28.03.26.13.22.17.83.76,1.54,0,2.46.7.25-.24-.15-.44-.15-.6a3.97,3.97,0,0,1,1.16-.34c.38.47,1.72,1.08,1.39,1.59.84.21-.2-.39.26-.5l.09.04a1.249,1.249,0,0,1-.6-.6c-.01-.31.76-.25.97-.12l-.24.39c.81.01.77-.66,1.33-.98.59.29.16.6.22,1l.67.02-.06.32c.44,0,.59-.28,1.16-.04-.47.22.81.46.17.76.28.16.49-.43.57.03.29-.29-.25-.23-.38-.36-.04-.51.74-.1,1.15-.13-.02.26-.32.24.1.5a.413.413,0,0,1,.67.04c.07-.31.54.05.81.12-.29-.12-.67-.44-.42-.68a1.511,1.511,0,0,1,.98.04l-.33-.22c.54-.38.68.48,1.39.42-.28.17-.46.13-.76.33.38-.09,1.01-.24,1.44-.37a8.183,8.183,0,0,0,.72.48c-.02-.23.69-.02.52-.33.84.12-.37.42-.4.64.55.07.7-.09.83-.21s.25-.19.89-.08c-.03.11-.07.22-.11.33.28-.06.81-.24.85-.36.01-.02.03-.02.05-.01q-.045-.045-.06,0c-.07,0-.05.15-.22.17a.537.537,0,0,1-.05-.21,2.336,2.336,0,0,1-.04-.26c-.15-.64-.11-1.27-.59-1.5l-.07.33c-.07-.67-.51-1.21-.26-1.47.22-.23.45.36.6.67.07-.55-.71-.72-.64-1.22-.11.27-.35.13-.52-.03-.04.26-.19.7.09.75l.07-.07a1.022,1.022,0,0,1,.31.42c-.03.42-.31.01-.44.01-.16.53.66.51.56,1.17l-.14-.03c.14.31-.13.31-.22.46a.381.381,0,0,0-.13.44c-.57-.35-.81.25-1.31-.02-.17-.48.11-.46.49-.4s.92.12.9-.19c-.5-.13-.16-.48-.32-.75a1.424,1.424,0,0,1-.6.59c-.18-.12-.65-.61-.67-.25l.08.02c-.33.1-.14.51-.53.34-.07-.09.02-.24.03-.3-.31-.11-.22.19-.45.26-.32-.13.15-.37-.1-.51-.34.32-.58-.18-.94-.23.07.57-1.69.39-.95,1.03l-1.02.15c-.23-.34.81-.59.65-1.09l.74.18c.02-.67-1.64.08-2.01-.75a1.923,1.923,0,0,1-1.03-.47l.02.61a.793.793,0,0,1-.43-.67,2.274,2.274,0,0,1-.65-.13.4.4,0,0,1,.31-.14c-.23-.38-.34-.28-.48-.13a.866.866,0,0,1-.67-.01l.26-.17c-.16.02-.35.05-.39.15a1.008,1.008,0,0,0-.3-.01,1.369,1.369,0,0,0,.47.71c-.87-.41-1.6-.42-2.29-1.06.06-.16.43-.31.34-.35-.37-.16-.85.05-.87.31a1.274,1.274,0,0,1-.22-.02.509.509,0,0,0-.28-.4.373.373,0,0,0-.22-.17c-.23.44-.92.06-1.13.24a2.11,2.11,0,0,0,.6.15c-.38.25-.73.54-.92.25.64-.18-.52-.6.38-.56-.49-.71-.41.36-1.02.02l-.37-.31c.14-.32.72-.03.65-.18l-.3-.02c.35-.19,1.41.19,2.17-.06l-1.32-.46c-1.79.05-3.83-.79-5.45-.4l.06.01a.723.723,0,0,0-.11.21l-.05-.1-.34.18c-.25-.4-.84-.63-1.29-1.01.27.29.27.29.24.55-.14.32-.23.45-.68.19.05-.24.35-.15.04-.44.15.17-.05.29-.26.26-.23-.23-.67-.38-.62-.62.14-.03.22.08.3.14.14-.03-.45-.35-.04-.45l-.5-.06c-.23-.28.27-.26.18-.42-.85-.06-1.4.38-2.17.34a2.4,2.4,0,0,0,.16-.49c-.52-.31-1.35.25-2.01.12.14-.13.36,0,.57-.03-.96-.35-1.83-.67-2.69-.98l-.63-.25a3.681,3.681,0,0,1-.4-.25,4.372,4.372,0,0,1-.79-.77c-.21.08-.44.16-.66.23l-.15-.56a11.432,11.432,0,0,0-2.06-1.76c-.73-.49-1.47-.91-2.22-1.44-.45-.34,0-.52-.09-.81-.85-.86-1.44-.55-2.26-1.33.23.01.76-.11.49-.47-.18.03-.42.15-.51-.15l.23.02c.05-.36-.29-.42-.51-.95a6.638,6.638,0,0,0-2.31-2.1c-.39-.92.59-.17.61-.4.12.71.3.39.54.43-.3-.25-.59-.61-.31-.96a2.453,2.453,0,0,0-.82-1.04c.24.18.15.48-.13.34-.07-.45-.72-1.39-.25-1.56-.64-1.11-1.27-2.24-1.81-3.36A24.058,24.058,0,0,1,9,48.64c-.37-.32,0,.33-.24.17-.5-.49.03-.51-.37-.91l.32.12a7.371,7.371,0,0,0-1.3-2.04c.33.04.08-.67.43-.11-.15-.34,1.07-1.16.71-1.38l-1.13.77c-.13.01-.2-.52-.27-.44a2.247,2.247,0,0,0,.24-1.11c.28-.21.39.39.48.7.55-.1,0-1.17.63-.86-.31-.67-.23.18-.56-.17l-.09-.64-.01.53c-.32-.44-.78-.5-.74-1.23l-.74-.43c.38-.22-.1-.47-.13-.82l.33.09a1.232,1.232,0,0,1-.1-.88c.44.09.05.39.42.36l-.04-.47c-.23.09-.51-.12-.53.24a1.659,1.659,0,0,1-1.28-1.36c.28-.55.49.38.84.07-.1-1-1.36-.95-1.4-1.59.09-.8-.29-.74-.35-1.6.29.27.29-.61.56-.78l.32.37c-.09-.26.02-.52.22-.45-.39.06-.36-1.16-.57-1.82l-.32.13a5.793,5.793,0,0,1-.32-1.71c-.15-.73-.42-.55-.8-1.12a.875.875,0,0,1,1-.19c-.16.2-.06.53-.15.86.33.85,1.1,1.71.94,2.71.8.42-.1-.67.15-1.2a.086.086,0,0,1,.07.09.274.274,0,0,1,.02-.13c.12.38.26.98.66,1.07-.1-.62-.8-.42-.49-1.23-.26-.63.34-.98.38-1.3-.31-.3-.95-.3-.84-1.12l.45.35c0-.9-.65-.42-.63-1.28-.06.3-.44-.31-.45.27a1.668,1.668,0,0,1-.09-1.4c-.06-.13-.15-.04-.3-.07-.35.51.25.85-.21,1.27l.48.38c-.18.49-.57.54-.75.24.02.14.08.26,0,.37-.73.09.26-.6-.35-.78l.05.36c-.47.16-.41-.85-.34-1.32.24-.52.38-.99.71-.99l.09.7c.3-.34-.09-.89-.03-1.29a.294.294,0,0,0,.12-.1.116.116,0,0,1-.1.02.421.421,0,0,1,.17-.21c.05-.35-.07-.89.09-1.2l-.31-.01.16.07c-.07.32-.32.73-.51.45-.08-.77.51-.82.81-.94.43.25-.12.7-.03,1.09.5-.14.15-.72.61-1.38.43.38-.17.83.27,1.07.18-.56-.14-.77.12-1.35.21.13.11.71.41.73l.22-.34c-.17.91.65-.03.62.69.27-.28-.31-.54.1-.93-.24.07-.71.37-.81-.13.08-.16.18-.32.28-.48.29-.14.38.65.67.38l-.03-.56c-.15-.02-.29.21-.45,0,.23-.26-.42-.65-.51-1.09.1-.29.21-.51.42-.54-.17-.88.26-1.76.23-2.59.04.58.46.22.8.1-.21.5.22.73.5.84.09-.3-.22-.72-.44-.66.45-.36-.08-.49.44-.73.3-.16.31.38.52.39.33-.44-.39-.45.06-.89.03.07.01.12.11.13a.676.676,0,0,0,.19-.82c.64.18.72-.93,1.1-.46.52-.86-.34-.1-.37-.39.06-.48.69-.89.9-.99-.15.19-.15.45-.37.57l.45.11c.96-.68-.25-1.18.73-1.72-.2.54.11.34.16.73.03-.19.64-.68.09-.55a2.667,2.667,0,0,1,.73-.47,2.509,2.509,0,0,0,.26-.92,1.461,1.461,0,0,1,1.1-.05c.86-.75,2.05-.64,3.13-1.31h-.1c.95-.21-.58-.4.4-.68.01.53.68.16,1.07.33,1.27-.07,2.02-.9,3.26-.84.01.11-.03.25-.25.31a15.627,15.627,0,0,0,2.45-.47l-.02.07c1.4.1,2.47-.67,3.77-1.11-.09.09-.08.28-.14.37.7-.05,1.78-.23,2.14-.8.9.31.49-.28,1.61-.03.08.07-.08.1-.14.14a6.483,6.483,0,0,0,1.39-.13c1.03-.55,1.18-1.25,2.5-1.3.19.67-.76.31-.68.86a.847.847,0,0,1,.81-.25c-.16.3-.02.18-.11.45.3.13.95-.91.96-.84-.04-.12-.14-.18-.39-.12.23-.46,1.25-.24,1.84-.49-.2.02-.86-.03-.67-.39.86.03,1.05-.68,1.61-1.01.82.22-.51.64-.3,1.11.15.16.5.51.21.74.69.03,1.14-.45,1.74-.6l-.01.14c.84-.13,1.73-.78,2.46-.51L41.24,7c.14-.09.57-.06.81-.34-.02.22.53.43.31.62.36-.75,1.88-.38,2.37-1.01.21.21-.01.48-.09.64-.52-.12-.69-.27-.99,0,.44.02.74.23.66.4.47-.42,1.54-.45,1.84-.85.29.27.56.46.38.81,1.38.04-.44-1.29,1.1-.95.61.52-.79.32.13.67l-.19.02c.43,1.11.65-.56,1.43-.29-.06.54-.63.19-.24.72.71.09,1.3-.53,1.91-.07l-.2.16a10.188,10.188,0,0,1,1.55.88c-.04.1-.09.05-.17.03.53.62.46-.03.72.67l.31-.07c-.11-.35-.5-.99-1.05-.96.56-.02-.26-.94.15-1.22l-.17.11c-.75-1.3-2.37-2.01-3.91-2.65-1.13.31-1.71-.56-2.88-.32-.24.61-.22.09-1.18.15.51-.04.09-.47-.23-.57a1.614,1.614,0,0,1-.66.25c-.19-.23-1.42-.71-1.84-.27-.58-.19.13-.2.25-.33-.25-.31-.46.26-.66.06a.143.143,0,0,1,.07-.1c-.88.07-1.42-.06-2.35-.06-.02.61-.88.32-1.26.58.11-.21-.54-.17-.81-.25l-.42.52c-.42.45-.7-.18-1.29.13l.17.08a3.285,3.285,0,0,1-2.15-.14c-3.85,1.97-6.44.77-10.53,2.05-.23.24.27.25.12.57a4.879,4.879,0,0,1-.89.26c.38.08.28-.1.27.07l.55-.3c.04.04-.02.07.05.14a1.693,1.693,0,0,1,.65-.3c-.33.24-.33.7-.87.65.02-.07.08-.1.21-.17-.42.06-.39.27-.73.23-.4-.01-.28.1-.37-.08l-1.25.03c-.48.66-1.33.34-1.54.34.04-.43.77-.31.98-.77l-.5-.18.05.32-.64.06.02-.07c-.04.14-.09.28-.28.21-.04-.04-.12-.11-.05-.14l-.4.29c.18-.39-.42,0-.45-.39-1.53.21-1.73,1.01-3.2.93.27.1-.22.72-.64.8-.26,0-.36-.06-.26-.25l-.46.35a1.548,1.548,0,0,0-1.18.11c-.19.08-.38.19-.59.29s-.54.26-.84.39l-.03-.17a5.433,5.433,0,0,1-1.2,1.26l-.13-.34c-.79.38.01.94-.74,1.38.27.25.76.01,1.06.21-.4-.14-1.04.45-.7.49-.41.67-.36.39-.48.38l-.12.48c-.35.38-.47-.18-.5-.47-.02.63-.57.85-.94,1.2l.01-.26-.48.46a2.69,2.69,0,0,1-1.06,1.5c-.04-.23-.06-.45-.08-.67-.52.23-.04.3-.05.45-.26.76-.62.7-1.07.9a3.147,3.147,0,0,1-1.02,1.53A1.7,1.7,0,0,0,1.7,19.34ZM36.9,75.27l-.08-.09C37.05,75.14,37.19,75.09,36.9,75.27Zm-5.56-1.39c.71,0,.45.16.47.3-.63-.3-1.03-.25-1.57-.56a.753.753,0,0,1,.07.33.609.609,0,0,1-.45-.51C30.25,73.06,31.56,74.23,31.34,73.88Zm13.07.31a.9.9,0,0,1-.1.09h0ZM41,73.95a.415.415,0,0,0-.19-.24C40.85,73.85,40.89,73.97,41,73.95Zm-6.49-1.89c-.11-.23-.47-.22-.73-.25A2.531,2.531,0,0,0,34.51,72.06ZM6.99,45.43c.13.18.43.51.48.12-.21-.12-.01-.53-.31-.6,0-.02.01-.03.01-.04A2.216,2.216,0,0,0,6.99,45.43ZM2.7,26.08c.19.06.39.24.55.16a.169.169,0,0,0-.02.05c.07-.04.13-.08.17-.03.06-.16.13-.32.08-.44C2.85,25.69,2.8,25.32,2.7,26.08Z"/><path class="a" d="M5.25,32.74c-.01-.08-.01-.15-.02-.2A1.909,1.909,0,0,0,5.25,32.74Z"/><path class="a" d="M3.48,25.86c-.04-.02-.13.16-.23.38C3.34,26.21,3.41,26.1,3.48,25.86Z"/><path class="a" d="M54.41,75.37l.04.28c.07-.13.15-.27.23-.42a1.445,1.445,0,0,0-.77-1.26,4.676,4.676,0,0,1,.14,2.01C54.16,75.79,54.29,75.59,54.41,75.37Z"/><path class="a" d="M52.29,74.55c-.09-.01-.31-.05-.33-.02l.19.19C52.19,74.67,52.24,74.61,52.29,74.55Z"/><path class="a" d="M47.44,73.87l.6.31C48.28,74.05,47.61,73.59,47.44,73.87Z"/><path class="a" d="M49.52,77.77c.12-.05.3-.1.44-.15-.39-.22-.73-.27-.86-.06C49.53,77.51,49.18,77.71,49.52,77.77Z"/><path class="a" d="M45.73,73.48c-.26.34-.58-.29-.78.04C45.13,73.45,45.62,73.86,45.73,73.48Z"/><path class="a" d="M45.5,77.18c.14.4.52.14.86.3C46.06,77.43,45.68,76.96,45.5,77.18Z"/><path class="a" d="M42.22,73.91c.08-.26.34-.19.62-.07-.11.06-.2.18-.34.19a6.87,6.87,0,0,1,.97-.12c-.35-.27-.91-.51-.78-.83C42.35,73.28,41.91,73.59,42.22,73.91Z"/><path class="a" d="M44.54,77.04c.31.17.46.46.86.52a.579.579,0,0,0-.58-.55l.22-.28C44.66,76.41,45.13,77.18,44.54,77.04Z"/><path class="a" d="M40.59,72.82l.17.18c.5-.16,1.06.08,1.4-.27A3.5,3.5,0,0,0,40.59,72.82Z"/><path class="a" d="M43.05,76.13l-.15.43c.45.15,0-.15.18-.23.12.09.31.17.42.1C42.97,76.4,43.53,76.08,43.05,76.13Z"/><path class="a" d="M41.45,76.32l-.62.07.36.57C41.91,76.94,41.28,76.7,41.45,76.32Z"/><path class="a" d="M40.79,75.89l-.05-.1-1.01.48A3.389,3.389,0,0,0,40.79,75.89Z"/><path class="a" d="M30.87,70.71c-.14.16.3.53.14.26C31.14,70.85,30.53,70.42,30.87,70.71Z"/><path class="a" d="M32.09,74.78c-.21-.21-1.09-.16-1.47-.13C31.06,74.68,32.09,75.05,32.09,74.78Z"/><path class="a" d="M30.46,74.66c.03,0,.09-.01.16-.01A.711.711,0,0,0,30.46,74.66Z"/><path class="a" d="M15.28,68.84a.18.18,0,0,0-.12-.03C15.2,68.82,15.23,68.83,15.28,68.84Z"/><path class="a" d="M15.64,68.99c.16.21.63.43.82.32a6.146,6.146,0,0,0-1.19-.47C15.43,68.93,15.51,69.18,15.64,68.99Z"/><path class="a" d="M12.83,66.38c.25.07.41.32.49.13C13.29,66.38,12.82,66.19,12.83,66.38Z"/><path class="a" d="M7.5,42.04c-.03-.37-.18-.52-.41-.33C7.24,42.07,7.32,41.81,7.5,42.04Z"/><path class="a" d="M6.88,41.32,7,41.23l.12-.28Z"/><path class="a" d="M6.51,39.14a.206.206,0,0,1,.15.08C6.6,39.13,6.53,39.04,6.51,39.14Z"/><path class="a" d="M6.7,39.27c-.01-.02-.02-.03-.03-.05Z"/><path class="a" d="M6.66,39.43l.15-.03a.812.812,0,0,1-.11-.13A.111.111,0,0,1,6.66,39.43Z"/><path class="a" d="M6.39,38.57c-.11.15-.2.32-.3.48.32.31.08-.49.63-.26Z"/><path class="a" d="M6,37.41c.04-.17-.11-.34-.22-.51-.11-.19-.16-.37.08-.49-.32-1.05-.84.32-1.08-.95-.22,1.23.99.59.79,1.58C5.84,36.57,5.85,37.29,6,37.41Z"/><path class="a" d="M5.19,37.71c.26.01.21-.42.03-.54C5.2,37.3,4.89,37.58,5.19,37.71Z"/><path class="a" d="M5.62,35.46l.19-.35-.16-.09Z"/><path class="a" d="M5.71,34.1l.3.36C5.89,34.34,5.91,33.8,5.71,34.1Z"/><path class="a" d="M6.01,31.98a.307.307,0,0,0-.26-.37c-.14-.01-.27.06-.17.47l.02-.18C5.71,31.94,5.92,31.48,6.01,31.98Z"/><path class="a" d="M4.91,27.83c-.03.21.05.47.19.44-.04-.2-.07-.4-.1-.6Z"/><path class="a" d="M3.26,27.8c-.43.19,0,.59-.15,1A2.926,2.926,0,0,0,3.26,27.8Z"/><path class="a" d="M5.56,27.21c.16.17.03.4-.01.54C5.79,27.7,5.76,27.31,5.56,27.21Z"/><path class="a" d="M5.52,26.28c.19-.16.22.07.35-.05a.941.941,0,0,0,.1-1.04c-.19.07-.69.13-.86-.07.03.68.74,1.11.12,1.34l.65.62C6.07,26.59,5.44,26.64,5.52,26.28Z"/><path class="a" d="M4.02,27.47l.27-.34c-.24.05-.26-.23-.31-.43C3.44,26.74,4,27.27,4.02,27.47Z"/><path class="a" d="M5.98,22.75c.04-.24.06-.49.11-.73l-.11.21Z"/><path class="a" d="M6.28,22.36l.15.03-.07-.6Z"/><path class="a" d="M6.71,21.73l-.05.07-.02.43Z"/><path class="a" d="M7.39,20.46l-.26.01c-.04.17-.4.4-.11.49C6.99,20.78,7.18,20.46,7.39,20.46Z"/><path class="a" d="M6.05,12.82c.02.21.17.22.33.24l-.13-.43C6.21,12.7,6.15,12.83,6.05,12.82Z"/><path class="a" d="M7.19,12.43c.04-.26.08-.52.13-.79-.58.54-.39.84-.75,1.36.27-.11.29-.6.61-.79Z"/><path class="a" d="M19.23,7.02c.01.28.14.21-.27.49a8.438,8.438,0,0,1,1.78-.57c-.16-.14.29-.56.04-.42l-.73.34.07-.21C19.54,6.57,19.84,7.03,19.23,7.02Z"/><path class="a" d="M50.22,7.31c-.11.1-.08.25-.05.39C50.63,7.73,50.13,7.3,50.22,7.31Z"/><path class="a" d="M40.9,82.45c.13-.35-.05-.11-.19-.09Z"/><path class="a" d="M40.72,82.36a.374.374,0,0,1-.12-.07C40.62,82.37,40.66,82.37,40.72,82.36Z"/><path class="a" d="M39.63,81.65c.39-.06.53.42.84.08C40.35,81.41,39.97,81.32,39.63,81.65Z"/><path class="a" d="M39.89,82.13l.14-.19a4.08,4.08,0,0,1-.42.18Z"/><path class="a" d="M39.98,82.41v-.09a3.031,3.031,0,0,1-.52-.01A4.765,4.765,0,0,0,39.98,82.41Z"/><path class="a" d="M38.9,80.85l.28.16c.03.44-.43.2-.41.49.33.26.53-.42.85-.05.14-.25-.61-.47-.24-.79C39.17,80.29,39.18,80.87,38.9,80.85Z"/><path class="a" d="M25.3,65.05l.03-.06C25.28,65.02,25.26,65.05,25.3,65.05Z"/><path class="a" d="M23.58,59.42a1.229,1.229,0,0,0,.05-.25.426.426,0,0,0-.11.12Z"/><path class="a" d="M27.53,68.13a2.44,2.44,0,0,0-.01.26A.292.292,0,0,0,27.53,68.13Z"/><path class="a" d="M23.92,32.5a.332.332,0,0,0,.13.04l.01-.01-.12-.07Z"/><path class="a" d="M21.62,53.29a1.064,1.064,0,0,0-.09-.25C21.55,53.19,21.58,53.26,21.62,53.29Z"/><path class="a" d="M28.47,69.96a.3.3,0,0,0-.04-.08.574.574,0,0,0,.01.12l.03-.04Z"/><path class="a" d="M23.35,61.37a.385.385,0,0,0,.01-.21A.376.376,0,0,0,23.35,61.37Z"/><path class="a" d="M35.91,76.63a.223.223,0,0,0-.2-.16C35.69,76.56,35.74,76.63,35.91,76.63Z"/><path class="a" d="M34.47,75.15h0C34.52,75.11,34.5,75.12,34.47,75.15Z"/><path class="a" d="M33.65,74.2l.02.01C33.69,74.17,33.69,74.16,33.65,74.2Z"/><path class="a" d="M35.7,76.47c.02-.25.43-.7-.21-.42l-.04.09c.02-.2-.3-.17-.42-.27a.548.548,0,0,0-.08.15,2.25,2.25,0,0,1,.18.29C35.16,76.54,35.47,76.42,35.7,76.47Z"/><path class="a" d="M25.42,65.03c-.11.06,0,.18,0,0Z"/><path class="a" d="M26.53,66.57l-.05-.17A.216.216,0,0,0,26.53,66.57Z"/><path class="a" d="M29.31,72.63c0-.01.01-.02.01-.04C29.25,72.61,29.28,72.63,29.31,72.63Z"/><path class="a" d="M26.43,66.24l.06.15A.2.2,0,0,0,26.43,66.24Z"/><path class="a" d="M28.72,70.72c0-.01.01-.02,0-.03Z"/><path class="a" d="M38.22,11.52c-.06.13-.23.05-.35.09.1.5.41-.37.39.18a.5.5,0,0,0,.14-.29l-.4-.18C37.93,11.59,38.21,11.31,38.22,11.52Z"/><path class="a" d="M24.98,31.08l-.05.05c.19,0,.24.04.37-.14-.25-.22-.72-.03-.97-.39a.254.254,0,0,1-.07.22A.794.794,0,0,1,24.98,31.08Z"/><path class="a" d="M24.27,30.82h-.02c-.04.01-.08.02-.11.03a.19.19,0,0,1-.07.11A.352.352,0,0,0,24.27,30.82Z"/><path class="a" d="M35.18,14.32c-.04.03-.08.05-.12.08C35.16,14.4,35.18,14.37,35.18,14.32Z"/><path class="a" d="M26.84,52.76c.05.05.11.11.16.15A.257.257,0,0,0,26.84,52.76Z"/><path class="a" d="M24.26,33.96a.413.413,0,0,0-.07.15c0,.03.01.06.01.1Z"/><path class="a" d="M23.32,22.72c.36.32.01-.1.36-.18l-.12-.31A.978.978,0,0,0,23.32,22.72Z"/><path class="a" d="M38.43,11.52l-.03-.04v.02Z"/><path class="a" d="M26.28,17.23a.925.925,0,0,1,.1-.05A.159.159,0,0,0,26.28,17.23Z"/><path class="a" d="M23.89,31.95l-.11.76.14-.21C23.7,32.37,24.16,32.09,23.89,31.95Z"/><path class="a" d="M21.58,25.98l-.29-.02c.27,1.02-.86,1.76-.21,2.66-1.22.83.7.87-.35,1.65l.14-.01a32.881,32.881,0,0,0-.79,4.73,16.594,16.594,0,0,0,.13,4.36h-.2c-.24,4.55.72,8.86,1.31,13.19.25.37.64.05.92.36.01.15.09.49-.15.53-.18-.27-.37-.06-.48-.15.11.48-.05,1.15.32,1.53l.24-.42c.16.14.12.42.14.58-.17-.03-.47.25-.57.13.95.76-.19.77.26,1.47.69.02,1.42.86,2.02,1.38l-.1.36c-.09-.43-.48.11-.56-.44-.1.49.27.84.26,1.29a.334.334,0,0,1,.48.01c-.04.28-.36.37-.33.67l-.27-.25c-.2.25.16.35.24.52-.26.12-.22.57-.54.56.46.32.28.51.61.88.19-.51.39.04.6-.06l-.22-.48c-.03.75-.1-.22-.55-.07.14-.38.87.29.68-.25.38.62.2.8.74,1.4-.18-.39.32.01.42-.24.13.52-.14.16-.4.39.08.28-.16.47.25.66-.02.52-.37.01-.5.31-.18-.05-.17-.43-.23-.73s-.18-.52-.68-.34c-.06-.24-.52-.45-.57-.8-.07.33-.31.84,0,1.16l.58-.11c.07.27.49.27.49.5-.2-.08-.39.19-.28.44.06-.09.02-.19.13-.19.16.46.57.42.83.92a3.644,3.644,0,0,1,.31-1.09c.43.01.13.27.25.49-.06-.02-.09-.07-.15.02l.26.2c-.01.58-.6.1-.65.61-.24.42.32.36.21.66l.08-.08a.615.615,0,0,1,.01.13l.03-.01c.15.27.23.58.55.55-.12.08.13.23.25.28.18.11.66.33.29.74-.01,0,0-.01-.01-.02.09.36.05.68-.13.68l.13.59-.39.11c.32.45.52.3,1.05.45a1.441,1.441,0,0,0,.66,1.11.326.326,0,0,0,.1.18l.04-.27c.17.37.34.23.46.47.01-.07.03-.08.04.08a1.546,1.546,0,0,1,.04.15c-.04.01-.07-.05-.07-.11l-.1.11c-.23.48.44.33.47.7a.258.258,0,0,1-.09-.09c-.01.22-.39.73-.04.64-.02.06.07.09.18.11l.01.15a.864.864,0,0,1-.01-.15c.14.02.31.03.24.08l.16.47c-.01.11.09.2.19.26l-.11.15c.1.15.02.19-.03.2-.18.9.78.8.78,1.68.31-.05.24-.37.35-.47a3.639,3.639,0,0,1,.88.25c-.13.48.24,1.45-.28,1.69.36.48.14-.36.48-.27l.03.06a.9.9,0,0,1,.05-.66c.2-.22.59.1.63.27l-.39.2c.46.3.87-.22,1.4-.27.15.41-.29.51-.52.83l.37.24-.24.22c.25.15.52-.01.69.35-.41.01.17.62-.39.62.06.23.56-.15.32.22.35-.13,0-.25,0-.41.3-.4.49.18.75.28-.18.19-.33.08-.26.41.18-.09.42-.05.35.24.24-.21.27.21.36.34-.07-.18-.07-.54.22-.63a.636.636,0,0,1,.51.37l-.03-.28c.56-.07.05.59.42.82-.26-.01-.32-.1-.6-.07a5.152,5.152,0,0,1,.95.33l-.16.6c.21-.12.23.32.48.11.11.47-.52-.02-.73.1.18.56.69-.01.66.71l-.34.06c.1.15.47.3.37.42.08-.07-.01-.11-.08-.19.55-.34.88.3,1.32-.2l-.13-.2c.34.18.84.04.86.39,0,.3-.42.23-.63.25.21.28.71-.33.95-.01-.08-.22.12-.36.32-.41-.13-.18-.36-.59-.5-.34l.01.1c-.14.11-.27.06-.37.08-.22-.22.12-.31.17-.44-.27-.45-.51.43-.82.06l.05-.13c-.28-.06-.54-.32-.89-.1.19-.44-.49-.32-.44-.66.7-.63.48.68,1.06.56-.02-.32.44-.19.66-.25-.27-.1-.55-.21-.82-.33.06-.13.28-.61-.08-.5l.02.06c-.28-.18-.53.13-.6-.16.04-.09.21-.12.27-.14-.09-.25-.3-.03-.47-.11-.09-.25.38-.14.33-.37-.47-.01-.23-.43-.42-.62-.34.42-1.24-.32-1.22.42l-.68-.21c.08-.33.84-.19,1.06-.62l.32.39c.45-.51-1.02-.5-.7-1.24-.16-.21-.19-.1-.29-.69l-.4.44a.784.784,0,0,1,.17-.65.953.953,0,0,1-.29-.31.361.361,0,0,1,.27-.01c.11-.37-.02-.32-.19-.25-.18.03-.27-.1-.37-.22l.26-.05c-.1-.04-.23-.08-.31-.01a.336.336,0,0,0-.16-.1,1.247,1.247,0,0,0-.2.68c-.22-.59-.62-.85-.54-1.54.15-.09.44-.08.42-.14-.08-.23-.47-.25-.66-.07a.3.3,0,0,1-.1-.09c.09-.13.19-.26.14-.37a.206.206,0,0,0,.01-.19c-.44.21-.48-.29-.71-.25a.614.614,0,0,0,.18.32c-.36.02-.77.07-.63-.2.44.14.23-.57.61-.2.33-.62-.47.07-.48-.38l.09-.33c.32-.13.34.26.42.14l-.12-.12c.29.02.47.63,1.01.72a6.751,6.751,0,0,1-.24-.72,1.739,1.739,0,0,1-.51-.56c-.16-.26-.31-.54-.47-.81a2.822,2.822,0,0,0-1.19-1.27l.03.03a.7.7,0,0,0-.22.07l.06-.08-.32-.05c.19-.34.07-.72.15-1.13-.1.28-.1.28-.32.42-.33.12-.47.15-.5-.19.22-.11.3.07.37-.23a.194.194,0,0,1-.34.03c.07-.23-.03-.51.19-.62.09.04.05.14.04.2.09.04.06-.39.34-.26l-.2-.25c.11-.25.34-.03.43-.15-.37-.39-.99-.4-1.33-.77a5.088,5.088,0,0,0,.48-.18c.01-.39-.84-.48-1.03-.85.17,0,.17.16.29.25a7.493,7.493,0,0,1-.29-3.4c-.2-.05-.41-.13-.62-.19l.3-.39a8.069,8.069,0,0,0-.9-3.4c-.11-.37.34-.3.45-.51-.1-.83-.77-.9-1.05-1.66.19.07.7.16.66-.18-.17-.03-.43-.02-.37-.25l.19.07c.21-.24-.06-.38-.03-.81a2.935,2.935,0,0,0-1.38-1.78c-.05-.64.61-.04.7-.18-.12.48.15.29.36.35-.2-.21-.34-.47.03-.66a1.1,1.1,0,0,0-.41-.75c.16.14-.03.31-.23.19.09-.29-.17-.94.33-.99a49.377,49.377,0,0,1-.7-4.9c-.29-.25-.07.22-.27.09-.38-.37.13-.34-.16-.63l.28.1c-.01-.48-.56-.95-.86-1.4.32.05.23-.41.44-.03-.07-.23,1.29-.62,1-.77l-1.27.36c-.13,0-.08-.33-.16-.29.24-.22.52-.49.51-.63.32-.09.28.26.29.45.55-.01.3-.66.82-.42-.12-.39-.27.08-.5-.15l.1-.36-.17.28c-.18-.28-.6-.36-.32-.77l-.56-.38c.43-.06.06-.3.16-.52l.28.12a.664.664,0,0,1,.2-.57c.38.14-.08.26.28.31l.12-.31c-.24.01-.44-.18-.58.05-.46-.27-.86-.41-.83-1.14.41-.33.37.34.79.2.17-.74-1.1-.89-1.05-1.34.17-.57-.22-.54-.24-1.12.28.18.31-.4.58-.5l.25.27a.194.194,0,0,1,.23-.29c-.39.03-.35-.74-.53-1.13l-.33.06a1.874,1.874,0,0,1-.19-1.05c-.08-.48-.38-.39-.71-.79a1.305,1.305,0,0,1,1.01-.04c-.18.11-.09.33-.21.54.25.62.93,1.1.76,1.7.79.27-.09-.41.2-.69a.081.081,0,0,1,.07.05.091.091,0,0,1,.03-.07c.09.21.21.57.61.63-.07-.35-.79-.28-.43-.71-.21-.33.43-.57.49-.75-.28-.22-.93-.28-.76-.79l.43.26c.06-.58-.63-.33-.56-.87-.07.19-.42-.23-.47.13a.761.761,0,0,1-.05-.9c-.06-.09-.15-.04-.3-.07-.35.3.23.57-.24.8l.45.28a.487.487,0,0,1-.76.09c.01.09.07.18-.02.24-.73,0,.29-.36-.31-.53l.03.23c-.48.06-.36-.58-.29-.88.26-.31.39-.6.73-.57l.08.46c.3-.19-.08-.58-.02-.84a.334.334,0,0,0,.12-.05.17.17,0,0,1-.1,0,.3.3,0,0,1,.16-.12c.06-.22-.08-.58.07-.77l-.3-.04.16.06c-.05.2-.29.44-.48.24-.12-.52.49-.48.77-.53.43.21-.11.44.01.7.48-.05.14-.45.55-.84.45.3-.13.53.3.72.17-.34-.17-.52.06-.87.21.11.14.48.44.52l.2-.2c-.11.58.63.05.65.52.25-.15-.33-.38.05-.6-.23.02-.68.17-.8-.17l.23-.29c.27-.07.42.48.68.32l-.07-.37c-.15-.03-.27.11-.44-.05.21-.15-.47-.49-.6-.79.07-.18.15-.33.34-.33-.26-.62-.01-1.22-.22-1.82.15.42.48.19.76.1-.09.36.35.54.64.64.04-.22-.35-.54-.54-.5.33-.26-.2-.37.23-.54.24-.12.38.29.57.3.18-.35-.48-.34-.19-.68.05.05.05.09.14.1a.444.444,0,0,0-.08-.64c.66.05.27-.67.77-.35.12-.58-.33-.08-.46-.27-.13-.33.28-.62.42-.7-.06.13.03.33-.12.41l.42.09c.6-.49-.61-.85.05-1.3.01.43.22.26.38.56-.04-.14.34-.57-.11-.44a2.042,2.042,0,0,1,.48-.46,1.586,1.586,0,0,0-.16-.83,1.511,1.511,0,0,1,.87-.47c.14-.84.97-1.27,1.11-2.14l-.05.04c.38-.48-.62-.04-.27-.58.39.33.49-.15.83-.19.62-.51.43-1.33,1.13-1.73.08.07.16.18.08.3a5.547,5.547,0,0,0,.96-1.13l.04.06c.83-.34.89-1.22,1.38-1.91,0,.09.13.24.15.32.36-.24.87-.67.75-1.2.71-.01.12-.35.92-.46.09.04.01.1,0,.15a2.34,2.34,0,0,0,.74-.47c.28-.73-.03-1.33.73-1.75.5.48-.26.47.1.89.04-.2.05-.4.33-.44.08.29.09.15.19.4.25.02.03-1.01.08-.96-.08-.11-.18-.12-.29.01-.14-.45.6-.57.79-.97-.09.07-.49.25-.59-.1.51-.25.21-.88.33-1.34.6-.1.09.69.48.99.18.08.59.24.55.52.41-.22.39-.75.64-1.09l.08.11c.4-.41.49-1.27,1.03-1.36l-.3.04c.02-.12.27-.28.21-.6.13.19.55.1.56.35-.27-.73.73-1.18.52-1.9.24.04.33.35.4.51-.32.19-.51.15-.47.5.23-.2.52-.2.59-.04-.05-.55.39-1.15.22-1.6.32.03.56-.01.74.33.57-.79-1.1-.6-.28-1.28.61-.03-.04.68.55.35l-.06.12c1,.44-.19-.75.25-1.08.4.36-.05.53.49.58.3-.43-.05-1.17.44-1.37l.09.22c.22-.24.76-.57.97-.81.08.07.04.09.01.15.58-.24.01-.37.62-.41l-.07-.28c-.31.02-.83.14-.86.57.03-.43-.8-.19-.99-.63l.07.18a6.167,6.167,0,0,0-2.91.93c-.14.82-.97.52-1.26,1.25.31.55-.02.18-.39.65.19-.26-.27-.39-.48-.33a.807.807,0,0,1-.13.46c-.23-.09-1.12,0-1.06.5-.4.08-.06-.21-.08-.36-.32-.15-.07.38-.29.29a.166.166,0,0,1-.03-.1,8.155,8.155,0,0,1-1.26.78c.36.5-.28.54-.34.88-.06-.2-.4.04-.6.06l.06.55c.02.49-.5.08-.66.5l.14.02c-.1.32-.91.57-1.34.52a5.259,5.259,0,0,1-2.39,2.54,7.753,7.753,0,0,0-2.8,2.41c.02.26.33.09.45.37a2.706,2.706,0,0,1-.35.53c.27-.09.09-.18.21-.06.04-.14.07-.29.12-.43.05.01.03.06.13.08a.843.843,0,0,1,.19-.46c-.04.3.26.63-.09.79a.237.237,0,0,1,.01-.2c-.21.2-.04.35-.27.45-.24.15-.09.18-.26.09l-.69.51c.19.64-.5.77-.62.85-.28-.3.21-.53,0-.93l-.41.08.25.2-.32.31-.04-.06c.08.11.15.23-.01.26-.05-.01-.14-.02-.13-.07l-.03.35c-.18-.33-.24.17-.53-.08-.7.76-.26,1.41-1.13,1.86.22-.02.4.52.22.7-.15.08-.25.07-.33-.09l.01.38c-.73.06-.59.6-1.08,1.03l-.13-.11a.928.928,0,0,1-.15.86l-.26-.22c-.42.25.46.63.04.94.32.18.63.01.95.14-.38-.09-.67.32-.38.35-.1.48-.17.28-.26.27l.06.35c-.17.28-.47-.14-.59-.35.19.46-.21.63-.43.91l-.08-.2-.28.39a1.124,1.124,0,0,1-.37,1.1L23,23.13c-.35.15.08.2.13.31.02.51-.31.46-.66.56C22.61,24.9,21.13,25.1,21.58,25.98Zm7.86,46.4.04-.09C29.61,72.38,29.72,72.41,29.44,72.38Zm-1.56-3.35c.37.32.1.29,0,.38-.08-.45-.33-.61-.36-1.03a1.169,1.169,0,0,1-.23.22.426.426,0,0,1,.18-.49C27.98,68.08,27.71,69.33,27.88,69.03Zm6.3,5.59c-.04.01-.08.03-.11.04h0Zm-1.69-1.31a.322.322,0,0,0,.07-.23C32.48,73.19,32.42,73.28,32.49,73.31Zm-1.57-3.89c.13-.18-.03-.35-.14-.48A1.328,1.328,0,0,0,30.92,69.42Zm-6.4-26c.09.12.31.35.44.11-.18-.09.1-.32-.17-.39.01-.01.01-.02.02-.02A3,3,0,0,0,24.52,43.42ZM23.09,30.57c.19.06.39.19.54.16l-.02.03c.07-.02.13-.04.17,0,.05-.1.13-.19.08-.27C23.23,30.33,23.18,30.08,23.09,30.57Z"/><path class="a" d="M25.32,34.99c-.01-.05,0-.08-.01-.11A.491.491,0,0,0,25.32,34.99Z"/><path class="a" d="M23.85,30.51c-.04-.02-.13.09-.22.23A.382.382,0,0,0,23.85,30.51Z"/><path class="a" d="M37.31,81.47l-.14-.05.05.33a.979.979,0,0,0,.99-.19c-.49-.05-.57-.33-.98-.63Z"/><path class="a" d="M38.7,79.81a1.236,1.236,0,0,0,.1-.36l-.18.09Z"/><path class="a" d="M36.11,75.35l.16.43C36.5,75.77,36.38,75.19,36.11,75.35Z"/><path class="a" d="M34.75,78.95l.3.03c.02-.26-.16-.43-.37-.31C34.94,78.77,34.62,78.8,34.75,78.95Z"/><path class="a" d="M35.38,74.51c-.37.17-.15-.41-.47-.22C35.06,74.29,35.09,74.76,35.38,74.51Z"/><path class="a" d="M32.9,77.24c-.18.34.2.28.31.52C33.07,77.6,33.15,77.12,32.9,77.24Z"/><path class="a" d="M33.17,73.7c.22-.16.31-.03.38.15-.1.01-.23.06-.31.03a3.024,3.024,0,0,1,.6.23c-.02-.31-.16-.66.13-.86C33.65,73.29,33.22,73.36,33.17,73.7Z"/><path class="a" d="M32.45,76.82c.07.23-.03.5.16.67.11-.16.26-.42.02-.61l.31-.14C32.91,76.37,32.7,77.11,32.45,76.82Z"/><path class="a" d="M33.09,72.4l-.05.18c.36.05.47.4.88.25A1.427,1.427,0,0,0,33.09,72.4Z"/><path class="a" d="M32.16,75.62l-.36.27c.16.27.1-.12.25-.11.01.11.07.24.18.22C31.94,75.8,32.48,75.75,32.16,75.62Z"/><path class="a" d="M31.11,75.17l-.41-.2-.18.57C30.97,75.81,30.76,75.38,31.11,75.17Z"/><path class="a" d="M31.03,74.59l.04-.09c-.3-.02-.6-.06-.91-.1A1.855,1.855,0,0,0,31.03,74.59Z"/><path class="a" d="M30.18,67.06c-.2.03-.28.42-.14.21C30.21,67.25,30.25,66.75,30.18,67.06Z"/><path class="a" d="M27.55,69.88c.06-.21-.44-.58-.66-.74C27.1,69.36,27.33,70.04,27.55,69.88Z"/><path class="a" d="M26.8,69.07c.02.01.05.04.09.07A.243.243,0,0,0,26.8,69.07Z"/><path class="a" d="M22.73,59.42a.108.108,0,0,0-.07-.06A.435.435,0,0,0,22.73,59.42Z"/><path class="a" d="M22.89,59.63a.459.459,0,0,0,.37.47,2.744,2.744,0,0,0-.53-.68C22.77,59.53,22.66,59.69,22.89,59.63Z"/><path class="a" d="M22.52,57.37c.14.09.11.27.29.19C22.88,57.47,22.63,57.26,22.52,57.37Z"/><path class="a" d="M25.94,41.54c.09-.21,0-.33-.27-.26C25.68,41.51,25.84,41.37,25.94,41.54Z"/><path class="a" d="M25.59,41.01l.14-.04.2-.14Z"/><path class="a" d="M25.95,39.55a.287.287,0,0,1,.13.08C26.03,39.55,25.99,39.49,25.95,39.55Z"/><path class="a" d="M26.09,39.68a.076.076,0,0,0-.02-.04Z"/><path class="a" d="M26,39.77l.15.01a.542.542,0,0,1-.06-.11C26.1,39.71,26.08,39.76,26,39.77Z"/><path class="a" d="M25.99,39.12l-.42.28c.22.28.21-.33.68-.06Z"/><path class="a" d="M25.85,38.17c.13-.26-.54-.66-.03-.81-.26-.77-.85.18-1.04-.7-.26.83.98.42.69,1.16C25.79,37.46,25.73,38.06,25.85,38.17Z"/><path class="a" d="M25,38.3c.25.04.27-.29.1-.4C25.08,38,24.73,38.17,25,38.3Z"/><path class="a" d="M25.62,36.68l.2-.24-.16-.06Z"/><path class="a" d="M25.73,35.8l.29.23C25.91,35.95,25.94,35.62,25.73,35.8Z"/><path class="a" d="M26.13,34.63c.11-.19-.56-.41-.43.03l.03-.1C25.83,34.59,26.08,34.37,26.13,34.63Z"/><path class="a" d="M25.28,31.91c-.04.13.03.31.18.29l-.09-.39Z"/><path class="a" d="M23.63,31.74c-.43.08-.01.38-.18.63C23.57,32.07,23.62,32.12,23.63,31.74Z"/><path class="a" d="M25.92,31.58c.15.12.02.25-.02.34C26.15,31.91,26.12,31.65,25.92,31.58Z"/><path class="a" d="M25.88,30.98c.19-.08.22.07.35,0a.42.42,0,0,0,.07-.65,1.492,1.492,0,0,1-.85-.14c.05.44.77.79.15.88l.65.46C26.42,31.23,25.8,31.2,25.88,30.98Z"/><path class="a" d="M24.39,31.6l.27-.19c-.24.01-.25-.17-.31-.31C23.83,31.07,24.38,31.46,24.39,31.6Z"/><path class="a" d="M26.13,28.71l.03-.49-.07.14Z"/><path class="a" d="M26.38,28.47l.15.04-.15-.43Z"/><path class="a" d="M26.71,28.07l-.04.04.04.3Z"/><path class="a" d="M27.16,27.2h-.24c.01.13-.31.26-.02.35A.272.272,0,0,1,27.16,27.2Z"/><path class="a" d="M23.62,21.52c.08.16.22.17.37.18l-.26-.32C23.73,21.43,23.72,21.53,23.62,21.52Z"/><path class="a" d="M24.48,21.24l-.18-.56c-.28.37-.02.6-.15.98.2-.09.05-.44.26-.58Z"/><path class="a" d="M28.87,14.55c.21.19.23.09.2.45a3.242,3.242,0,0,1,.61-1.1c-.19-.04-.21-.51-.27-.32l-.19.53-.1-.18C28.72,14.12,29.22,14.31,28.87,14.55Z"/><path class="a" d="M45.74,2.5a.483.483,0,0,0,.3.24C46.18,2.43,45.71,2.56,45.74,2.5Z"/></g></svg>