<svg xmlns="http://www.w3.org/2000/svg" viewBox="0 0 85.903 72.092"><defs><style>.a{fill:#131986;}</style></defs><g transform="translate(0.003 0.004)"><path class="a" d="M23.03,28.55c.08.42.14.02.31-.23Z"/><path class="a" d="M23.34,28.32l.22-.16A.345.345,0,0,0,23.34,28.32Z"/><path class="a" d="M25.08,26.48c-.1.64-.82.98-.72,1.53C24.95,27.7,25.4,26.86,25.08,26.48Z"/><path class="a" d="M24.36,27.03l.14.2c.01-.21.01-.42,0-.62C24.46,26.75,24.41,26.89,24.36,27.03Z"/><path class="a" d="M23.97,27.19l.11-.01c.09-.26.19-.51.26-.77C24.23,26.68,24.1,26.93,23.97,27.19Z"/><path class="a" d="M26.26,24.91l-.24.53c-.55.3-.18-.53-.55-.33-.37.61.45.56-.13,1.27.3.11.77-1.24,1.1-.87C26.94,24.93,26.21,25.34,26.26,24.91Z"/><path class="a" d="M18.53,10.96c-.03-.02-.05-.03-.08-.05C18.48,10.96,18.51,11,18.53,10.96Z"/><path class="a" d="M11.87,11.2a1.488,1.488,0,0,0-.26-.1c.07.04.14.08.22.13Z"/><path class="a" d="M24.46,9.89a3.418,3.418,0,0,0,.38.09A.6.6,0,0,0,24.46,9.89Z"/><path class="a" d="M35.37,32.37a1.963,1.963,0,0,0,.11.24l.03.03-.05-.19Z"/><path class="a" d="M12.43,12.3a.783.783,0,0,0,.14.03C12.57,12.31,12.52,12.31,12.43,12.3Z"/><path class="a" d="M27.81,9.68h-.14a.709.709,0,0,0,.17.04l-.03-.04Z"/><path class="a" d="M13.12,11.84c-.03-.03-.06-.06-.07-.06C13.08,11.82,13.1,11.84,13.12,11.84Z"/><path class="a" d="M30.99,17.83a.584.584,0,0,0,.22-.35A.339.339,0,0,0,30.99,17.83Z"/><path class="a" d="M33.04,15.15l-.01.02C33.08,15.19,33.08,15.18,33.04,15.15Z"/><path class="a" d="M34.65,12.94l-.01.05C34.69,12.96,34.71,12.95,34.65,12.94Z"/><path class="a" d="M31.21,17.49c.32-.1.84.21.55-.48h-.11c.25-.07.25-.49.39-.7a.615.615,0,0,0-.18-.03c-.08.09-.2.21-.39.39C31.16,16.82,31.28,17.17,31.21,17.49Z"/><path class="a" d="M18.57,10.83c.03.13.26.07,0,0Z"/><path class="a" d="M21.51,10.32c-.1,0-.19-.01-.29-.01A.567.567,0,0,0,21.51,10.32Z"/><path class="a" d="M31.24,10.2c0-.01-.01-.02-.01-.03C31.17,10.24,31.2,10.23,31.24,10.2Z"/><path class="a" d="M20.95,10.31h.27A.415.415,0,0,0,20.95,10.31Z"/><path class="a" d="M29.08,9.78c-.02-.01-.03-.02-.04-.02A.076.076,0,0,0,29.08,9.78Z"/><path class="a" d="M21.03,5.79c.05-.44.24-.45.37-.67-.05-.65-.17-.31-.26.04s-.17.7-.17-.13a5,5,0,0,0-.13,1.09,2.262,2.262,0,0,1,.45-.02C21.33,5.23,21.06,6.38,21.03,5.79Z"/><path class="a" d="M38.92,35.82l-.14-.13a4.2,4.2,0,0,0,.85.93c-.12-.39-1.18-1.56-1.15-1.87a1.217,1.217,0,0,1-.39-.29A3.809,3.809,0,0,1,38.92,35.82Z"/><path class="a" d="M38.08,34.46c-.01-.02-.03-.03-.04-.05-.08-.09-.15-.17-.21-.25a2.182,2.182,0,0,1-.25-.22A4.894,4.894,0,0,0,38.08,34.46Z"/><path class="a" d="M25.47.91c.06.08.11.16.16.23C25.55.94,25.5.89,25.47.91Z"/><path class="a" d="M1.15,11.38c-.15-.05-.3-.11-.43-.16A1.4,1.4,0,0,0,1.15,11.38Z"/><path class="a" d="M33.41,31.51q-.165-.18-.33-.33c-.06-.04-.1-.06-.17-.11Z"/><path class="a" d="M31.31,24.04c.65.25-.06-.03.26,0-.12-.05-.23-.09-.34-.13C31.15,23.93,31.27,23.99,31.31,24.04Z"/><path class="a" d="M20.8,6.12a.333.333,0,0,1,.03.06V6.12Z"/><path class="a" d="M28.12,17.37c0-.06-.01-.12-.01-.18A.382.382,0,0,0,28.12,17.37Z"/><path class="a" d="M36.06,32.79l-1.14-.89.46.48C35.26,32.03,36.25,33.24,36.06,32.79Z"/><path class="a" d="M31.16,24.33l-.61-.55c.66.61.56.58.48.51-.07-.04-.09-.09.98,1.29-.94-1.12-.89-1.08-.66-.76.28.38.54.76.81,1.13.18.27.1.21-.52-.62l.27.38a17.026,17.026,0,0,1-1.31-1.44c-.06-.07-.11-.13-.15-.17l-.07-.06-.56-.39a32.474,32.474,0,0,0-2.98-1.81l.12-.16c-2.9-2.17-5.96-4.1-8.92-5.94-1.45-.91-2.91-1.88-4.41-2.86l-.66-.43a.384.384,0,0,1-.13-.12c-.39-.02-1.15.02-1.73-.06-.03-.04-.26-.12.28-.08.4.06.8.06,1.02.08-.07-.02.02-.03.05-.04s0-.01-.46-.09l-.76-.07c-.3-.05-.32-.07-.3-.08s.02-.01.02-.02c.51.08,1.09.16,1.7.25a5.191,5.191,0,0,1-.93-.2c-.04-.03.17-.01.4.03.47.07,1.05.24.64.1a10.329,10.329,0,0,1-2.18-.9,2.479,2.479,0,0,1-.91-.8l.61.16c-.37.01.87.49.46.47.63.18.38-.11.83-.01-.28-.17-.59-.39-.53-.47.35.09.75.43.96.46a.83.83,0,0,0,.06.21c.37.25.09-.08.18-.12.29.28.5.33.67.65-.1-.38.07-.17.18-.41-.3-.3-.01-.37-.04-.6l-.35.11c.55.19-.16.05.12.53a.693.693,0,0,1-.2-.47c-.01-.16-.01-.28-.22-.25a1.35,1.35,0,0,1,.58-.15,1.556,1.556,0,0,0,.3-.07,5.224,5.224,0,0,0,.72-.19c-.7.08.14-.31-.23-.46.88,0,.22.17.48.48.48-.01.65.27,1.1-.08.78.16-.12.36.27.56-.3.32-2.16-.45-1.96.61-.58,0-.47.41-.58.38a.776.776,0,0,1,.14.27c-.05.04.16.06.32.07a1.659,1.659,0,0,0,.49-.07l.04-.59c.48-.01.59-.41.93-.35-.19.17.14.42.53.38-.11-.09-.26-.07-.22-.17.72-.03.82-.43,1.68-.53a7.9,7.9,0,0,1-1.5-.62c.18-.41.46-.05.85-.1-.06.06-.14.07-.03.15l.42-.19c.88.19-.12.6.6.81.5.36.69-.19,1.08.02-.03-.04-.05-.08-.07-.11a1.525,1.525,0,0,1,.19.03c0-.01-.01-.02-.01-.03.47-.06.97-.02,1.11-.33.05.14.41-.04.57-.14.27-.13.89-.5,1.3-.02h-.03c.59.04,1.06.17.94.35l.95.07-.08.41c.86-.16.75-.39,1.31-.84a3.7,3.7,0,0,0,2.06-.22,1.017,1.017,0,0,0,.33-.02l-.36-.14c.66-.01.57-.23,1-.24-.09-.03-.1-.06.14,0,.07.01.15.01.25.02-.02.04-.12.04-.21.02l.08.13c.53.41.79-.26,1.35-.12a.448.448,0,0,1-.2.04c.32.1.78.68.8.33.04.05.11-.03.19-.11l.13.07a.539.539,0,0,1-.13-.07c.11-.11.24-.25.23-.17q.27.045.51.09c.07.06.23.02.38-.03l-.03.17c.2-.01.12.09.07.13.06.31.28.26.62.21a1.72,1.72,0,0,1,.45-.01.21.21,0,0,1,.14.07c.02.04-.04.17-.12.28.43-.09.61-.45.8-.61.41-.08.66.29.76.47-.35.3-.78.73-1.18,1.01a1.6,1.6,0,0,1-1.08.38c-.29.38.5-.12.6.08l-.06.05a3.444,3.444,0,0,1,.85-.46c.43-.11.18.51-.05.68a3.523,3.523,0,0,0-.42-.15c-.17.53.6.56.7,1.17-.58.53-.69,0-1.12-.06-.09.18-.15.33-.28.55l-.26-.19c-.21.41-.03.68-.52,1.1.04-.55-.82.56-.75-.19-.3.21.12.67-.32.55.12.41.33-.14.53-.21.48.19-.29.75-.46,1.17-.22-.13-.06-.41-.5-.12a.456.456,0,0,1-.36.62c.25.2-.3.49-.5.72.25-.24.73-.45.82-.12a1.884,1.884,0,0,1-.5.93c.12-.09.23-.16.35-.24.1.66-.74.49-.96,1.16a4.713,4.713,0,0,0,0-.84c-.05.36-.15,1-.26,1.51l-.69.27c.17.18-.32.56-.04.71-.52.52-.07-.68-.24-.86-.62.69.13.88-.7,1.41l-.13-.39c-.15.24-.26.82-.41.78.1.05.12-.1.21-.25.49.46-.21,1.36.42,1.58l.22-.32c-.17.59.02,1.18-.41,1.48-.36.21-.27-.44-.32-.7-.31.47.42.76.03,1.32.27-.26.44-.08.48.19.24-.32.75-.99.43-1l-.13.09c-.13-.11-.09-.33-.11-.47.25-.47.38-.08.55-.11.51-.74-.55-.38-.15-1.09l.16-.03c.03-.43.29-.97-.02-1.25.55-.11.28-.89.7-1.11.86.39-.71,1.18-.47,1.83.37-.29.29.43.39.68l.27-1.38c.16-.03.76-.15.58-.53l-.07.08c.16-.51-.25-.58.09-.91.11-.02.17.18.21.24.28-.32-.01-.41.05-.69.28-.32.23.38.49.13-.06-.6.46-.61.65-.9-.56-.17.44-1.76-.5-1.33L30,16.09c.42-.08.15,1.02.68,1.08l-.51.62c.6.31.71-1.6,1.64-1.57.29-.33.15-.3.93-.75l-.56-.25a.827.827,0,0,1,.81-.12,3.1,3.1,0,0,1,.48-.63.81.81,0,0,1-.06.42c.49-.1.52-.36.45-.56a1.938,1.938,0,0,1,.45-.86l.02.36c.09-.22.18-.47.08-.52a1.311,1.311,0,0,0,.18-.38,3.684,3.684,0,0,0-1.06.5c.91-.93,1.29-1.73,2.14-2.77.19-.01.29.36.36.23.26-.54.01-.98-.27-.84a1.852,1.852,0,0,1,.01-.25.828.828,0,0,0,.34-.56.5.5,0,0,0,.07-.36.308.308,0,0,1-.27-.14c-.08-.09-.13-.25-.25-.29-.21-.12-.39-.27-.57-.24a1.652,1.652,0,0,0,.49.37c-.54-.03-1.19.14-1.16-.15.43.01.4-.13.41-.28s.03-.27.45-.04c.03-.21,0-.33-.08-.37-.34-.02-.81.42-1.31.17l-.4-.3c.36-.29,1.15.01,1.12-.12l-.41.03a4.674,4.674,0,0,1,1.35.06c.19.17.37.32.57.48.09.09.22.12.3.26s.16.25.24.35a2.827,2.827,0,0,0-.1-.47,2.03,2.03,0,0,0-.17-.33c-.12-.22-.22-.42-.34-.67l-.1-.03c-.82-.06-1.61-.15-2.38-.26-.8-.08-1.61-.17-2.44-.18-.41-.02-.82-.03-1.22-.01a7.664,7.664,0,0,0-.81.07,4.722,4.722,0,0,0-1.35.4l.07-.01c-.03.03-.04.1-.06.23l-.08-.08-.3.27a7.053,7.053,0,0,0-1.65-.56c.37.19.37.19.42.45-.05.35-.1.5-.64.4-.02-.24.31-.26-.1-.43.21.11.04.29-.19.33-.31-.14-.81-.14-.83-.39.13-.07.25,0,.35.03.14-.07-.58-.19-.18-.41l-.53.1c-.33-.19.19-.33.06-.46-.89.22-1.3.81-2.1,1.01A4.966,4.966,0,0,0,22,7.16c-.62-.14-1.28.64-1.98.69.1-.16.36-.1.57-.18a32.646,32.646,0,0,1-5.95-.8l-.54.55-.53-.38-.2-.03-.31-.03c-.22-.02-.43-.03-.64-.05-.42-.03-.83-.04-1.24-.05-.81-.01-1.58.01-2.3.06a14.119,14.119,0,0,0-3.76.61c-.61.2-.96-.2-1.48-.22-.69.24-.79.49-.91.73a1.956,1.956,0,0,1-.68.88.5.5,0,0,0-.84-.18c.1.13.33.25-.09.5l-.04-.2a1.267,1.267,0,0,0-.59.4c-.08.1-.18.2-.29.32a3.071,3.071,0,0,1-.17.31.6.6,0,0,0,.01.42,15.594,15.594,0,0,0,3.58,1.33c.81.68-1.33-.13-1.39-.02-.17-.42-.59-.3-1.08-.43.56.22,1.15.52.54.71a6.593,6.593,0,0,0,.74.59,7.436,7.436,0,0,0,1.23.6c-.59-.23-.43-.47.22-.27.04.21.78.55,1.24.85.52.28.93.53.52.6l.51.2c.15.07.27.15.4.22.26.15.53.3.79.45.51.31,1.03.61,1.53.93.46.3.93.6,1.4.91.29.19.58.39.87.59,1.17.79,2.36,1.62,3.57,2.4.55.05-.25-.28.07-.29.77.1.37.45,1,.53l-.34.1a7.864,7.864,0,0,0,2.5.74c-.28.19.41.57-.24.37.36.17,0,1.59.41,1.51l.33-1.33c.09-.1.5.27.5.16a2.416,2.416,0,0,0,.53,1c-.08.34-.54-.04-.81-.22-.34.43.72.89.06,1.05.63.3.07-.29.53-.23l.46.44-.29-.41c.51.14.88-.12,1.28.51l.88-.06c-.18.4.38.35.63.63l-.34.11a1.624,1.624,0,0,1,.68.71c-.43.17-.31-.31-.6-.08l.37.39c.13-.2.52-.18.29-.51a2.112,2.112,0,0,1,2.08.44c.22.65-.7-.02-.74.45.95.85,1.89-.03,2.47.43.69.68.84.32,1.67.87-.52-.02.6.8.73,1.23-.19-.02-.39-.04-.6-.07.42.19.74.56.57.69.07-.42,1.73.78,2.54,1.2l-.19-.55a8.558,8.558,0,0,1,1.96,1.21c.82.48.42-.21.67-.48a8.473,8.473,0,0,1,1.11,2.1,12.157,12.157,0,0,0-1.16-1.05c-.46-.15-.9-.19-1.42-.35a5.2,5.2,0,0,1-1.83-1.11c-.32.26-.08.41.33.6a3.783,3.783,0,0,1,1.32.91c-.01.05-.05.04-.11.01a1.406,1.406,0,0,1,.18.17c-.49-.26-1.34-.79-1.5-.4.98.67.57-.54,1.76.83a3.931,3.931,0,0,1,1.21,1.12,15.222,15.222,0,0,0,1.14,1.31c.19-.06.16-.39.23-.59.08-.18.26-.24.85.23a3.3,3.3,0,0,1-.07.56c1.31.83-.04-.91,1.01-.2-.4-.34-.17-.66-.82-1.12.06-.26.64.11,1.29.71.04-.05-.17-.29-.34-.58-.89-1-.47.01-1.42-1.2.06.23.1.46.14.69-.73-.72-1.13-1.51-1.03-1.67a.59.59,0,0,1-.35-.26c-.79-1.49.84.94.35-.16l-.26-.14c-.6-1.03.25-.27.68.12a20.972,20.972,0,0,1,1.72,2.01l-.45-.18c.69.8.62.29,1,.58.09.11.17.21.25.29a2.354,2.354,0,0,1-.16-.21,5.021,5.021,0,0,1,.41.44c.37.27.56.19,1.06.62l-.52-.66.22.33a4.047,4.047,0,0,1-1.14-1.21c.15.01.41.25.73.57.41.42.87.94,1.15,1.23.25.37.2.42.06.36-.28-.21-.72-.61-.79-.56a3.366,3.366,0,0,0,1.07.94c.11-.03.27-.01.6.16.37.63.03.49-.01.62-.09-.03-.1.02.06.27a2.718,2.718,0,0,0,.29.19c.06-.1.01-.29.01-.43a.286.286,0,0,1,.04-.17c.01-.03.05-.01.05-.08a1.477,1.477,0,0,1-.01-.21c.41.64.2.88.65,1.42a1.142,1.142,0,0,0,.27-.02,1,1,0,0,0,.41.87,1.74,1.74,0,0,1,.6.98c.13-.02-.04-.36-.16-.65-.11-.26-.25-.64-.11-.82-.24-.08-.64-.1-1-1.13l.05-.57c.25.01.81,1.6.97,1.37l-.35-1.08c-.18-.18-.21.1-.51-.43.12-.23-.86-1.51-1.25-2.26-.08-.35-.11-.59.09-.49a30.29,30.29,0,0,0-2.13-3.8c.67.88.79.59.99.47a4.392,4.392,0,0,0,1.49,1.6c-.17-.47-1.05-1.32-1.21-1.28.03-.51-.68-.82-.46-1.16.08-.28.82.68,1.04.71-.31-.88-.97-.77-1.24-1.66.12.11.19.21.29.21a3.352,3.352,0,0,0-1.15-1.53c.31-.1.02-.59-.19-.94s-.39-.63.04-.48c-1.05-1.56-.3.14-.74-.23a4.151,4.151,0,0,1-1.02-1.97c.19.34.56.68.64,1.02a2.806,2.806,0,0,0,.31-.29,2.525,2.525,0,0,0-1.15-1.5,2.361,2.361,0,0,1-.51-.4,1.221,1.221,0,0,1-.21-.36,1.483,1.483,0,0,1-.11-.39c.23.24.32.25.41.24s.16-.1.41.09a2.49,2.49,0,0,1-.2-.32c-.05-.09-.11-.2-.16-.28-.1-.16-.18-.23-.21.1a6.023,6.023,0,0,1-.28-1.06,2.776,2.776,0,0,0-.94-.75,3.144,3.144,0,0,1-.12-1.5c-.83-1.09-.88-2.43-1.76-3.58l.02.11c-.39-1.03-.3.67-.76-.37.53-.08.03-.76.12-1.21a4.2,4.2,0,0,0-.36-.92c-.07-.14-.15-.27-.23-.4l-.12-.19-.06-.09-.09-.16a12,12,0,0,1-1.23-2.72c.08-.09.22-.08.41.3-.6-1.7-1.25-2.87-1.87-4.3l.05-.04a8.781,8.781,0,0,0-.35-1c-.11-.16-.22-.31-.33-.44a4.3,4.3,0,0,0-.7-.61,11.608,11.608,0,0,1-1.4-1.05c.07,0,.09-.26.15-.29-.12-.17-.27-.35-.42-.53L24.79.12c-.08-.07-.15-.23-.26-.02a3.281,3.281,0,0,0-.81,1.47c-.67.01-.28.67-1.07.82-.07-.08.03-.2.06-.28-.38.14-.59.5-.93.99a11.088,11.088,0,0,0-.29,2.65,12.958,12.958,0,0,1-.37,2.86c-.62-.49.13-1.74-.31-2.43a4.787,4.787,0,0,1-.23,1.91c-.16-.71-.13-.25-.29-.81a4.592,4.592,0,0,0,.01,1.67c.07.64.18,1.15.15,1.12.12.1.22-.03.3-.52a3.408,3.408,0,0,1-.13,1.63,8.018,8.018,0,0,0-.3,1.75c.02-.1.37-1.29.61-.77a3.169,3.169,0,0,0-.1.48c-.01.11-.01.2-.01.29a1.688,1.688,0,0,0,.14.5,5.606,5.606,0,0,1,.42.93c-.43.82-.48-.72-.99-.63-.2.12-.63.42-.77.02a6.211,6.211,0,0,0,.13,2.12l-.13-.04c-.07.99.42,2.09.06,2.87l.2-.41c.06.17-.03.65.22.95-.22-.05-.49.56-.65.28.68.51.23,2.24.88,2.78-.21.24-.48.01-.64-.09.12-.6.28-.79.02-1.14-.04.51-.26.86-.42.76.41.55.47,1.75.9,2.05-.26.34-.42.67-.79.5.06,1.54,1.25-.62,1.05,1.1-.46.74-.4-.82-.66.24l-.03-.2c-1.07.65.62.63.46,1.51-.54.04-.28-.66-.75-.12,0,.79.74,1.34.39,2l-.19-.17c-.06.44-.56,1.39-.63,2.05-.11.01-.08-.08-.08-.2-.22.56-.14.73-.11.83.05.11.04.17-.1.72.1.09.2.18.3.26.05-.27.12-.64.2-1a2.406,2.406,0,0,0,.07-1.02c.08.31.29.13.54-.04s.52-.35.7-.16l-.14-.15a3.988,3.988,0,0,0,.78-.89,7.367,7.367,0,0,0,.53-1.15c.29-.78.51-1.63.75-2.46-.41-1.13.42-1.79.15-2.97-.6-.23-.1-.22-.14-1.21.03.52.47.1.58-.21a1.464,1.464,0,0,1-.21-.67c.23-.18.85-1.33.48-1.82.26-.56.18.16.3.3.34-.2-.2-.5.04-.67a.143.143,0,0,1,.09.08,14.639,14.639,0,0,1,.49-2.31c-.6-.15-.11-.93-.27-1.37.18.16.3-.48.46-.72l-.37-.56c-.3-.54.33-.35.2-.76l-.12.03a.547.547,0,0,1,.17-.53.37.37,0,0,1,.48-.06,5.965,5.965,0,0,1-.07-1.94c.08-.46.25-.64.49-.59a.6.6,0,0,1,.19.08c.03.03.07.02.1.1l.06.27c.07.31.14.62.22.95a2.264,2.264,0,0,0,.37,1.01c.11-.21.07-.58.21-.95.12.09.13.18.22.35,0-.4-.08-.08,0-.3a.747.747,0,0,0-.2-.03c.01-.09.03-.08.05-.25-.07-.01-.15.09-.2-.08.11-.13.3-.8.38-.22-.04.07-.06.06-.11.05.09.28.19-.02.22.34.05.35.1.12.01.4.05.31.1.6.12.86.25-.11.35.09.36.28a2.151,2.151,0,0,1-.06.43c-.37.15-.26-.28-.61-.07a1.4,1.4,0,0,1-.18.32l.26-.21.01.23-.06.02a.618.618,0,0,1,.16-.04c.03-.01.04.01.04.13-.03.05-.08.14-.13.08l.36.36c-.42-.11.08.42-.29.52.47,1.49,1.29,1.57,1.38,3.04.07-.28.73.14.84.55.02.26-.04.35-.24.28l.41.42c-.26.88.37,1.33.61,2.34l-.18.02a2.2,2.2,0,0,1,.83,1.09l-.35.05c.07.73.87.18.98.96.33-.16.3-.67.58-.88-.26.32.03,1.08.19.8.11.15.19.28.22.33.02.03.02.06.01.07-.02.03-.09.04-.12.06a2.342,2.342,0,0,1,.3.12c.1.24-.46.14-.68.15.46.06.28.31.27.43l-.23-.08.01.15c.42.19.59.46.45.5-.27-.16-.52-.31-.77-.44-.35-.13.27.15.4.23.45.34-.04.1-.49-.17.47.34.18.22-.14-.02S30.38,23.61,31.16,24.33Zm.09-14.37-.02-.07C31.45,9.82,31.59,9.76,31.25,9.96Zm-5.21-.08c.72-.23.5.01.56.14-.72-.09-1.11.08-1.76-.04a.64.64,0,0,1,.17.29.66.66,0,0,1-.62-.34C24.68,9.44,26.37,10.14,26.04,9.88Zm7.83,4.41-.03-.15h0Zm1.66-4.06a.862.862,0,0,0,.26-.34C35.64,10.01,35.51,10.12,35.53,10.23Zm-6.72-3c-.18-.2-.57-.13-.85-.07A5.688,5.688,0,0,0,28.81,7.23ZM18.7,21.39c-.23-.05-.68-.1-.44.22.24-.05.38.39.65.25.01.02.01.03.02.04A2.645,2.645,0,0,0,18.7,21.39ZM36.22,31.8c.16.24.33.51.49.75a6.362,6.362,0,0,0,.4.57l-.07-.07a2.291,2.291,0,0,1,.28.37c.2.18.43.39.45.35-.47-.69-.76-1.12-.92-1.34A2.224,2.224,0,0,0,36.22,31.8Z"/><path class="a" d="M31.71,31.6c.12.08.2.15.28.2C31.91,31.74,31.83,31.68,31.71,31.6Z"/><path class="a" d="M37.74,33.74c-.05-.07-.32-.33-.63-.63A4.137,4.137,0,0,0,37.74,33.74Z"/><path class="a" d="M25.5,23.11l.04-.22-.37.27a1.2,1.2,0,0,0,.27,1.19c.05-.7.37-.96.68-1.72Z"/><path class="a" d="M27.56,23.81a1.023,1.023,0,0,0,.46-.17l-.12-.19Z"/><path class="a" d="M32.58,17.47l-.55.42C32.02,18.16,32.74,17.74,32.58,17.47Z"/><path class="a" d="M28.04,17.84l-.01.43c.31-.19.53-.58.4-.79C28.26,17.96,28.24,17.52,28.04,17.84Z"/><path class="a" d="M33.75,16.04c-.17-.41.55-.44.37-.8C34.07,15.48,33.47,15.77,33.75,16.04Z"/><path class="a" d="M30.55,14.17c-.42-.06-.38.41-.71.69C30.06,14.58,30.67,14.44,30.55,14.17Z"/><path class="a" d="M35.36,11.56c.3.01.13.36-.15.73-.03-.13-.12-.21-.1-.37a4.753,4.753,0,0,1-.32,1.18c.53-.46,1.08-1.28,1.42-1.21C36.12,11.46,35.83,11.08,35.36,11.56Z"/><path class="a" d="M31.12,13.34c-.29.21-.62.22-.86.56a.59.59,0,0,0,.76-.29l.15.33C31.64,13.73,30.73,13.83,31.12,13.34Z"/><path class="a" d="M36.61,9.08a1.978,1.978,0,0,1-.12.31c.3.49-.01,1.3.32,1.61A2.331,2.331,0,0,0,36.61,9.08Z"/><path class="a" d="M32.4,12.6l-.46-.14c-.24.24.17.02.22.13-.12.07-.24.16-.2.25C32.12,12.52,32.34,12.95,32.4,12.6Z"/><path class="a" d="M32.38,11.66a1.079,1.079,0,0,0-.1-.27,6.509,6.509,0,0,1-.78.35C31.58,11.98,31.86,11.71,32.38,11.66Z"/><path class="a" d="M33.02,11.12l.14-.08a1.916,1.916,0,0,0-.83-.19C32.71,10.97,32.62,11.01,33.02,11.12Z"/><path class="a" d="M24.59,7.02c-.1.2.48.41.23.21C24.91,7.06,24.15,6.86,24.59,7.02Z"/><path class="a" d="M27.05,10.5c-.27-.14-1.14.19-1.51.34C26,10.72,27.13,10.76,27.05,10.5Z"/><path class="a" d="M25.39,10.91c.03-.01.09-.04.15-.06A.262.262,0,0,0,25.39,10.91Z"/><path class="a" d="M12.88,12.04c0,.01.02.02.06.05Z"/><path class="a" d="M12.78,11.93c.11.06.03-.05-.14-.26.02.1,0,.16.24.38C12.87,12.02,13.06,12.17,12.78,11.93Z"/><path class="a" d="M12.08,11.85c-.26-.12-.06-.06-.49-.25C11.37,11.52,11.74,11.72,12.08,11.85Z"/><path class="a" d="M20.4,24.34c.24.28.46.33.54.04C20.6,24.16,20.69,24.42,20.4,24.34Z"/><path class="a" d="M21.36,24.58l-.04.15.08.31Z"/><path class="a" d="M23.19,26.29a.289.289,0,0,1-.19.02C23.13,26.36,23.25,26.39,23.19,26.29Z"/><path class="a" d="M22.93,26.29a.185.185,0,0,0,.07.02Z"/><path class="a" d="M22.84,26.12l-.11.11a.584.584,0,0,1,.19.06A.154.154,0,0,1,22.84,26.12Z"/><path class="a" d="M23.77,26.75l-.15-.62c-.52-.1.34.49-.32.6Z"/><path class="a" d="M25.19,27.57c.29.37,1.21.18,1.13.74.6.25.66.04.73-.16.04-.1.08-.19.19-.22.14-.01.22-.04.76.28-.45-.4-.55-.43-.74-.47a.911.911,0,0,0-.44.08c-.27.11-.51.23-.94-.23C26.2,28.2,25.42,27.58,25.19,27.57Z"/><path class="a" d="M25.5,26.75c-.2.17.25.51.5.47C25.87,27.1,25.84,26.64,25.5,26.75Z"/><path class="a" d="M27.54,28.93l.5.59.22-.04Z"/><path class="a" d="M29.71,30.61c-.2-.03-.42-.06-.64-.1C29.3,30.53,30.17,31.2,29.71,30.61Z"/><path class="a" d="M32.99,33.62c.66.65.81-.1-.28-.77l.28.25C32.95,33.2,33.73,34.12,32.99,33.62Z"/><path class="a" d="M38.15,35.8c-.26-.19-.45-.2-.22.11l.51.16Z"/><path class="a" d="M35.96,32.41c-.7-.98-.47-.34-1.01-.9A7.2,7.2,0,0,0,35.96,32.41Z"/><path class="a" d="M39.7,37.49c.04.23-.41-.18-.62-.34C39.47,37.67,39.89,37.85,39.7,37.49Z"/><path class="a" d="M40.64,37.89c.48.49.28.44.63.78a4.016,4.016,0,0,0,1.22.83,3.746,3.746,0,0,0-.25-.61,8.222,8.222,0,0,1-1.3-1.61,1.236,1.236,0,0,0,.04.23c-.32.06.12.98-.99-.31.13.35.24.7.34,1.05C41.16,38.88,40.13,37.53,40.64,37.89Z"/><path class="a" d="M37.26,34.14l.69.74c-.39-.52-.17-.41-.08-.44C37.04,33.32,37.43,34.23,37.26,34.14Z"/><path class="a" d="M41.04,34.76l-.36-1.06.03.25Z"/><path class="a" d="M41.13,34.4l.19.17c-.17-.36-.34-.7-.52-1.04Z"/><path class="a" d="M41.17,33.69l-.01.08.28.69Z"/><path class="a" d="M40.9,31.99l-.28-.09c.14.29-.12.43.3.75C40.73,32.33,40.68,31.93,40.9,31.99Z"/><path class="a" d="M30.85,23.77a2.032,2.032,0,0,0,.44-.02,2.944,2.944,0,0,0-.42,0C30.9,23.75,30.95,23.76,30.85,23.77Z"/><path class="a" d="M31.4,23.5a1.785,1.785,0,0,0-.23.02,2.687,2.687,0,0,1-.32-.19,1.224,1.224,0,0,0,.1.23c.04.09.03.03.05.05a.487.487,0,0,1,.12.01.476.476,0,0,1,.29.09c.11-.09-.24-.11-.15-.19Z"/><path class="a" d="M26.78,12.6c.22-.18.16-.23.4-.14-.27-.17-.32-.44-.49-.71-.08.24-.33.43-.25.43a.787.787,0,0,1,.22.09l-.14.15C26.46,12.79,26.78,12.25,26.78,12.6Z"/><path class="a" d="M19.85,28.45c-.12-.09-.26-.03-.39.02C19.5,28.9,19.84,28.37,19.85,28.45Z"/><path class="a" d="M49.06,55.52c.12.41.14.01.31-.23Z"/><path class="a" d="M49.36,55.28l.22-.16A.345.345,0,0,0,49.36,55.28Z"/><path class="a" d="M51.25,53.69c-.23.58-.96.79-.9,1.33C50.93,54.8,51.45,54.13,51.25,53.69Z"/><path class="a" d="M50.44,54.08l.12.22.1-.62Z"/><path class="a" d="M50.04,54.18l.11.01.39-.73Z"/><path class="a" d="M52.81,52.58l-.4.41c-.62.09,0-.55-.42-.49-.55.46.24.66-.49,1.17.24.17,1.06-.93,1.26-.47C53.43,52.85,52.62,52.96,52.81,52.58Z"/><path class="a" d="M75.75,33.82a1.364,1.364,0,0,1,.17-.04C75.75,33.81,75.63,33.83,75.75,33.82Z"/><path class="a" d="M73.25,33.14c.04-.05.04-.07.03-.09-.05.04-.1.09-.16.14Z"/><path class="a" d="M74.67,35.34c-.16.03-.29.05-.39.08A.881.881,0,0,0,74.67,35.34Z"/><path class="a" d="M76.6,47.05a1.507,1.507,0,0,0,.12.2.01.01,0,0,0,.01-.01l-.1-.24Z"/><path class="a" d="M66.08,33.61a2.06,2.06,0,0,0-.43,0A.928.928,0,0,0,66.08,33.61Z"/><path class="a" d="M72.54,36.54c.03-.02.06-.03.09-.05a.784.784,0,0,0-.14.02l.05.03Z"/><path class="a" d="M72.61,33.84c.07-.04.12-.08.09-.07C72.62,33.82,72.6,33.83,72.61,33.84Z"/><path class="a" d="M60.33,48.06a.565.565,0,0,0,.33-.27C60.53,47.79,60.42,47.85,60.33,48.06Z"/><path class="a" d="M63.16,46.05l-.02.01C63.2,46.1,63.2,46.08,63.16,46.05Z"/><path class="a" d="M64.97,44.7l-.02.03C64.99,44.75,65.01,44.75,64.97,44.7Z"/><path class="a" d="M60.66,47.79c.34,0,.75.45.69-.31l-.11-.03c.27,0,.4-.4.6-.56a.653.653,0,0,0-.17-.08,4.191,4.191,0,0,1-.5.26C60.83,47.13,60.84,47.51,60.66,47.79Z"/><path class="a" d="M76.11,33.77c-.38.06-.29.09,0,0Z"/><path class="a" d="M75.97,34.41l.21-.08C76.07,34.36,75.97,34.38,75.97,34.41Z"/><path class="a" d="M68.26,38.58c.02,0,.04-.01.06-.01C68.3,38.51,68.27,38.54,68.26,38.58Z"/><path class="a" d="M76.35,34.26a1.473,1.473,0,0,1-.17.07C76.29,34.31,76.38,34.28,76.35,34.26Z"/><path class="a" d="M71.35,37.06a.075.075,0,0,0,.05-.01A.434.434,0,0,1,71.35,37.06Z"/><path class="a" d="M63.22,35.06c.09-.21.31-.2.48-.34-.05-.64-.61.75-.49-.02a1.211,1.211,0,0,0-.23.49l.51.02C63.62,34.79,63.21,35.34,63.22,35.06Z"/><path class="a" d="M77.46,44.16l-.03.13c.18-.02.25.1.34-.44-.29-.55-.71-.01-1.04-.81a1.468,1.468,0,0,1-.01.51C76.96,43.35,77.24,43.7,77.46,44.16Z"/><path class="a" d="M76.71,43.55c-.01.01-.01.01-.02.01a.879.879,0,0,0-.1.06.625.625,0,0,1-.04.25A.478.478,0,0,0,76.71,43.55Z"/><path class="a" d="M67.89,29.41c.1-.11.19-.21.28-.3C67.99,29.21,67.88,29.35,67.89,29.41Z"/><path class="a" d="M67.41,28.5c.11-.03.22-.06.31-.09A.437.437,0,0,0,67.41,28.5Z"/><path class="a" d="M76.19,49.82c-.11-.03-.22-.06-.33-.1a.97.97,0,0,1-.17-.01A3.364,3.364,0,0,0,76.19,49.82Z"/><path class="a" d="M73.31,32.67c.5-.21-.04,0,.27-.24-.09.03-.18.07-.27.11C73.22,32.64,73.3,32.63,73.31,32.67Z"/><path class="a" d="M62.95,35.19l.03.03a.037.037,0,0,1,.01-.03Z"/><path class="a" d="M73.26,31.32a2.5,2.5,0,0,0,.07-.26C73.31,31.12,73.29,31.2,73.26,31.32Z"/><path class="a" d="M76.55,45.95c-.01.49-.03.93-.06,1.38l.12-.28C76.4,46.63,76.82,46.44,76.55,45.95Z"/><path class="a" d="M72.75,36.83l-.29.12c.58,1.38-.26,2.93.61,3.98a1.5,1.5,0,0,0-.28.88c.03.19.14.37.26.34.24.02.49.21.04.22l.14.04c-.07.33-.1.55-.22.63-.02.05-.11-.01-.18-.07a.863.863,0,0,1-.16-.18,1.825,1.825,0,0,0-.21-.27.55.55,0,0,0-.09-.07l-.05-.03-.02-.02-.01-.01-.09-.07c-.58-.46-1.14-.9-1.7-1.34l.15-.14c-.45-.49-.87-.98-1.28-1.48s-.78-1.01-1.21-1.59c-.83-1.13-1.68-2.32-2.62-3.53l-.14-.18-.01-.01-.02-.02-.06-.05-.14-.11a.261.261,0,0,1-.11-.16c-.02-.09.07-.05.12-.07a.7.7,0,0,1,.35.06c.02-.22.03-.3.04-.41.03-.16-.01-.33.17-.42.24.05.81.09.78.34-.5.07-.26.32-.43.4a8.191,8.191,0,0,0,2.64.27l-.6-.38a2.533,2.533,0,0,1,1.03.08c-.13.15.23.53-.01.59.86-.32,1.17-.22,1.46-.05a2.383,2.383,0,0,0,.48.23c.31.06.19.07.24-.01a1.549,1.549,0,0,1,.56-.93,7.993,7.993,0,0,1,1.42-.88.38.38,0,0,1,.09.13c-.36.06-.59.54-.9.56.06.17.66-.21.79-.15a4.209,4.209,0,0,1,.85-.57c.07.06-.53.47-.41.48l-.57.29c-.38.29.33-.13.54-.2a10.67,10.67,0,0,1-1.25.8,8.275,8.275,0,0,1,1.41-.57,12.909,12.909,0,0,1,1.76-.81c-.24.05-.47.1-.69.16,0,.22-.32.07-1.46.71a11.243,11.243,0,0,1,1.2-.62c.47-.22.84-.39.51-.31a4.418,4.418,0,0,1,1.05-.24c.27-.03.57-.1,1.55-.31-.72.06,1.09-.4,1.3-.63.72.08-.38.25-1.2.68.35.07-.53.41.97.13-.01.04-.01.06-.08.1-.64.43-1.18.27-1.91.65a.71.71,0,0,1-.23.02c-.55-.01.31-.77-2.56.5a5.1,5.1,0,0,0-.8.27c-.34.13-.65.26-.66.25-.25.18-1.3.64-.51.33l1.94-.77a12.814,12.814,0,0,1,1.52-.38c-.63.18-1.35.5-1.24.53l.01.01.13-.05a2.034,2.034,0,0,1,.46-.19c.02.01.08,0,.1.01.26.05,1.49-.23,1.59-.01.74-.39,1.42-.6,2.53-1.28a.01.01,0,0,0,.01-.01l.05-.01c1.39-.33.05.25.08.41a1.091,1.091,0,0,0-.52.12l.53.05a4.321,4.321,0,0,1-1.5.49,6.956,6.956,0,0,0-1.46.38c-1.3.37.39.09-.39.31.12-.03.26-.05.35-.07a1.22,1.22,0,0,1-.17.07.277.277,0,0,1,.09-.01c-.01.1-.32.24.46.18-.41.05-.1.1.06.13.21.03.62.22-.76.35l.01-.01a3.3,3.3,0,0,1-1.3.21l-.66.19-.67-.1c-.1.17.33.21.64.52a1.169,1.169,0,0,0-1,.66.413.413,0,0,0-.18.1h.33c-.4.2-.21.34-.5.5.08,0,.1.01-.09.05-.06.02-.13.05-.2.08,0-.05.1-.1.16-.11l-.12-.09c-.67-.12-.61.62-1.19.78a1.07,1.07,0,0,1,.16-.14c-.34.07-1.05-.18-.98.2-.09,0-.15.12-.21.26l-.24.08a2.226,2.226,0,0,1,.24-.08c-.07.18-.12.38-.18.32l-.76.4a.876.876,0,0,0-.44.35l-.21-.06c-.24.2-.3.12-.3.06-1.24.16-1.2,1.22-2.44,1.58,0,.36.47.15.59.24a5.33,5.33,0,0,1-.54,1.19,9.578,9.578,0,0,0-1.28.38c-.44.12-.81.16-.91-.13-.68.55.43.08.23.51l-.09.05a1.245,1.245,0,0,1,.86-.13c.26.17-.29.79-.53.88l-.15-.44c-.55.65,0,1.03-.15,1.71-.65.29-.58-.26-.92-.47l-.5.51-.19-.26c-.31.35-.23.65-.83.92.2-.51-.96.31-.67-.4-.35.11-.09.68-.48.43-.01.42.36-.04.57-.05.4.32-.51.64-.8.98-.17-.19.07-.41-.44-.27a.465.465,0,0,1-.54.48c.18.27-.44.37-.7.51.31-.12.83-.18.8.17a1.674,1.674,0,0,1-.8.7l.41-.09c-.17.67-.88.17-1.38.67a4.013,4.013,0,0,0,.37-.75,14.372,14.372,0,0,1-.92,1.24l-.74-.07c.07.24-.56.34-.38.61-.72.22.27-.64.2-.88-.88.32-.31.85-1.31.93l.07-.41c-.25.15-.64.62-.76.52.06.09.16-.04.31-.14.22.63-.84,1.15-.36,1.63l.35-.2c-.43.46-.49,1.08-1,1.17-.42.05-.08-.51-.01-.78-.48.32.06.86-.5,1.23.34-.14.43.09.38.36.33-.21,1.05-.59.77-.73l-.15.03c-.08-.16.06-.34.09-.47.43-.32.38.1.54.14.78-.43-.33-.58.35-1.04l.16.04c.22-.37.72-.73.58-1.13.54.15.69-.66,1.16-.67.58.75-1.21.72-1.3,1.42.47-.08.05.51.03.79l.89-1.1c.16.05.75.22.77-.2l-.1.04c.39-.39.06-.63.52-.78.11.03.07.24.07.31.41-.16.18-.38.38-.61.41-.16.03.44.39.33.22-.58.71-.36,1.07-.62-.45-.35,1.05-1.56.01-1.44l.67-.88c.43.05-.18,1.02.31,1.24l-.71.44c.48.48,1.22-1.32,2.09-1.03a2.434,2.434,0,0,1,1.13-.47l-.47-.4a.863.863,0,0,1,.83.11,3.135,3.135,0,0,1,.6-.45.481.481,0,0,1-.13.35c.47.06.48-.1.46-.31.06-.23.29-.38.51-.56l-.06.34c.1-.15.23-.33.18-.43a1.338,1.338,0,0,0,.23-.25,1.478,1.478,0,0,0-.89-.05c.95-.45,1.49-1.12,2.46-1.34.1.15-.02.54.08.48.36-.22.48-.73.29-.9a.894.894,0,0,1,.16-.17.522.522,0,0,0,.5.01.357.357,0,0,0,.27-.08c-.2-.45.57-.77.58-1.04a1.805,1.805,0,0,0-.53.38c.06-.46.09-.93.45-.89-.31.62.82-.01.16.66.88.08.01-.55.7-.8l.5-.07c.14.32-.49.56-.33.61l.22-.22c-.1.38-1.14.94-1.43,1.7.4-.25.81-.49,1.22-.72a10.471,10.471,0,0,1,2.26-1.8,8.676,8.676,0,0,0,2.19-1.83l-.08.06c.02-.05.01-.11-.03-.24l.14.02.24-.43a14.416,14.416,0,0,0,2.64-.69c-.73.14-.71.13-1.01,0-.23-.27-.33-.38.43-.64.29.12-.14.34.58.18-.4.07-.36-.14-.11-.3a6.494,6.494,0,0,1,1.67-.34c-.09.13-.38.17-.56.21-.12.13,1.13-.3.81.07.25-.14.46-.29.69-.44.8-.18.2.27.59.22,1.22-.82.58-1.26,1.03-1.73.21.03,1.24.05.95.04.87-.43-.02-.79.45-1.15.21.03-.11.19-.12.3a10.145,10.145,0,0,0,2.01-1.59A12.542,12.542,0,0,0,85.9,29.9c-.22-.24-.5-.45-.69-.63a11.5,11.5,0,0,0-1.18.07,2.166,2.166,0,0,1,.01-.36c-1.23-.82-2.85-.86-5.88-.37-.96.14-.02-.43-.28-.58a12.847,12.847,0,0,0-3.18.79,12.884,12.884,0,0,1-1.32.45,11.46,11.46,0,0,1-1.4.25c.29-.19.98-.71-.04-.68-.18.17-.45.41-.73.3l.18-.17c-.3-.26-.6-.03-1.25-.19a7.219,7.219,0,0,0-3.43.65c-1.09-.19.19-.58,0-.73.74.3.54-.03.73-.2-.42.11-.93.14-1.09-.28a6.407,6.407,0,0,0-2.27.04c.44-.09.87.17.48.31-.78-.23-2.53-.15-2.73-.63-1.2.03-2.31.12-3.59.2-.3.4-.57.72-.85,1.06a3.868,3.868,0,0,0-.45,1.84,4.4,4.4,0,0,0,.37,1.59,7.05,7.05,0,0,0,1.09,1.8c.84.6-.25-.48.26-.15,1.16.82.4.75,1.39,1.38l-.59-.21a21.7,21.7,0,0,0,1.68,1.53,3.7,3.7,0,0,0,.65.44c.19.11.38.23.55.35-.33.08.19.68-.36.26.28.28-.56,1.49-.15,1.56l.78-1.13c.12-.06.38.43.42.34a2.483,2.483,0,0,0,.16,1.15c-.19.29-.5-.25-.69-.51-.47.28.38,1.11-.31,1.02.5.53.16-.25.58-.02l.28.58-.14-.5c.45.33.88.22,1.08.98l.88.26c-.29.33.29.49.47.86l-.37-.02a2.054,2.054,0,0,1,.54.96c-.49.03-.25-.43-.61-.29l.3.53c.18-.16.57-.02.4-.43a2.682,2.682,0,0,1,2.08,1.01c.14.72-.72-.18-.83.28.89,1.11,1.97.36,2.52.92a2.824,2.824,0,0,0,1,.78,3.515,3.515,0,0,1,1.07.66c-.42.01.67,1.01.87,1.51a2.71,2.71,0,0,1-.49-.01c.38.21.71.6.61.8-.03-.28.36-.1.79.09a4.412,4.412,0,0,0,1.2.4l-.21-.46c.45.1,1.01.17,1.68.36a1.053,1.053,0,0,0,.38-.04c.09-.03.08-.16.11-.23a2.641,2.641,0,0,0-.02-.55c-.04-.2-.07-.43-.12-.73.26-.03.52.4.75.93-.11.04-.15.27-.23.51a.854.854,0,0,1-.28.16c-.04.15-.23.12-.34.17l-.35.09-.62.15a1.565,1.565,0,0,1-1.36-.25c-.16.4.03.48.32.49a1.57,1.57,0,0,1,.95.19c0,.05-.03.06-.07.06a.423.423,0,0,1,.14.06c-.34.06-.93-.01-.96.47.69.09.26-.81,1.17-.24.5-.12,1.34.59,1.92.66.16-.17.13-.46.19-.73a2.755,2.755,0,0,1,.12-1.26c.07.32.14.65.19.99.36-1.26-.33-1.3-.09-2.41-.11.33-.33-.83-.45-.11a5.059,5.059,0,0,1,.02-2.05c-.07-.25-.15-.17-.31-.33-.31.46.25,1.44-.21,1.52q.195.48.36.96c-.23.41-.51.03-.63-.53.01.18.04.4-.04.43-.55-.71.27-.41-.23-1.28l.04.46a3.3,3.3,0,0,1-.39-1.84c.18-.35.28-.86.62-.68l.15,1.03c.29-.25-.17-1.33-.17-1.82a.144.144,0,0,0,.1-.1.075.075,0,0,1-.09,0,.326.326,0,0,1,.13-.25,10.54,10.54,0,0,1-.11-1.63l-.3.05.17.05c0,.43-.18.94-.41.6-.23-.84.35-1,.62-1.2.23.09.24.29.2.51a2.13,2.13,0,0,0-.02.87c.23-.12.23-.4.22-.78a2.6,2.6,0,0,1,.1-1.07.636.636,0,0,1,.26.63.62.62,0,0,0,.23.6,1.932,1.932,0,0,0-.01-.51,3.374,3.374,0,0,0-.09-.34,1.5,1.5,0,0,1-.07-.79c.24.09.27.78.57.73l.14-.46c.05,1.12.62-.21.76.66.2-.42-.42-.57-.11-1.15-.22.16-.61.64-.82.08l.14-.63c.24-.27.55.65.75.23l-.18-.65c-.15.02-.22.34-.43.14.16-.38-.59-.61-.81-1.06.01-.36.04-.64.22-.76-.44-.89-.41-2.03-.78-2.84.27.56.52,0,.76-.29.03.61.5.63.8.61-.03-.35-.5-.62-.67-.45.24-.59-.29-.46.08-.97.11-.22.22-.18.32-.04.11.11.22.21.31.16.15-.99-.54-.31-.27-1.43.06.06.06.16.16.06.21-.69.1-1.43-.13-1.46a2.463,2.463,0,0,0,.5-1.38c.05-.4.05-.66.38-.81.04-1.53-.4.5-.59.31a4.882,4.882,0,0,1,.3-2.14c-.02.34.13.52-.01.96l.5-.72c.26-1.15.01-1.21-.24-1.18s-.45.02-.25-.95c.23.48.34-.17.65-.13-.09-.16-.01-1.49-.33-.34.04-.63.09-1.11.13-1.58-.18-.25-.36-.52-.62-.36a15.527,15.527,0,0,1,.21-2.27,7.979,7.979,0,0,1-.46-1.96c-.07-.4-.13-.8-.24-1.23-.05-.21-.1-.41-.16-.61a.23.23,0,0,0-.11-.19.418.418,0,0,0-.12-.08c-.09.11-.17.22-.25.34l.06-.03c-.67.68-.06.77-.73,1.59.36-1.15-.15-.23-.13-.62a5.46,5.46,0,0,0-.89,1.29,4.3,4.3,0,0,1-1.42,1.6,1.962,1.962,0,0,1,.39-.93,4.08,4.08,0,0,0-.64.54,3.6,3.6,0,0,0-.67.8c-.23.38-.47.67-.7,1.12-.23.47-.45.94-.69,1.43l.03-.19c-.77,1.02-1.52,2.19-2.2,3.31-.33.55-.67,1.12-1.01,1.69-.29.46-.58.94-.89,1.42.02-.13-.11-.27-.11-.39-.54.52-1.32,1.41-1.27,2.1-.94.39-.24.56-1.33,1.15-.11,0,0-.14.04-.21a7.487,7.487,0,0,0-1.09,1.09c-.53,1.18-.21,1.84-1.27,2.85-.59-.37.43-.81.01-1.18a1.076,1.076,0,0,1-.51.8c-.06-.36-.1-.15-.19-.43-.33.12-.21,1.42-.26,1.37.09.1.22.06.38-.18.12.53-.87,1.14-1.18,1.79.15-.17.71-.65.8-.23-.71.64-.39,1.31-.6,2-.79.48-.04-.87-.52-1.05-.23,0-.75.03-.67-.38-.57.54-.61,1.24-.97,1.84l-.09-.1c-.58.78-.78,1.97-1.52,2.41l.4-.23c-.04.17-.39.52-.35.91-.15-.17-.72.18-.7-.14.28.8-1.1,1.97-.91,2.78-.31.08-.39-.28-.47-.45.45-.42.7-.48.69-.92-.33.39-.71.55-.79.38.01.68-.67,1.71-.5,2.21-.42.13-.75.31-.94-.04-.88,1.32,1.39.2.19,1.53-.83.37.17-.94-.69-.16l.1-.2c-1.28-.02.14.9-.49,1.57-.48-.26.13-.73-.57-.5-.44.71-.09,1.51-.78,1.99l-.08-.25a17.033,17.033,0,0,1-1.47,1.36c-.09-.07-.02-.1.03-.18-.83.41-.13.46-.94.6l-.03.33c.41-.05,1.18-.3,1.35-.86-.18.56,1.03-.02,1.16.47l-.05-.2c1.54-.37,2.79-1.74,4.1-2.76.32-1.16,1.4-1.22,1.88-2.35-.35-.55.05-.24.61-1.08-.29.45.32.36.6.16a1.709,1.709,0,0,1,.23-.69c.29-.01,1.49-.65,1.47-1.27.54-.34.06.24.07.42.4.02.13-.54.42-.56a.129.129,0,0,1,.03.12,22.063,22.063,0,0,1,1.74-1.75c-.42-.45.43-.88.53-1.35.06.23.52-.28.78-.42l-.03-.69c.02-.64.66-.38.91-1.03l-.19.06a3.618,3.618,0,0,1,1.79-1.42,13.042,13.042,0,0,1,3.43-4.58c.33-.31.66-.61.99-.93.17-.16.33-.32.5-.49l.13-.12.06-.04.11-.07a1.276,1.276,0,0,0,.59-.67c.03-.36-.09-.4-.08-.88a1.853,1.853,0,0,1,.27-.48c-.1-.13-.09.2-.07-.11l-.17.54a1.222,1.222,0,0,0-.03-.22c-.06.18-.1.45-.19.51.06-.35.04-1.09.26-1.11a1.156,1.156,0,0,1-.07.31c.15-.15.15-.52.27-.49.13-.02.11-.22.11.11a.648.648,0,0,1,.31-.06c.16-.71.29-.92.34-.9s.04.28.05.3c-.25,1.09-.26.64-.48,1.65-.01.19-.03.38-.06.59l.15-.79a.121.121,0,0,1,.05.05l-.04.17c.08-.34.17-.7.13-.45-.03.12-.05.23-.09.4l.17-.61c-.26,1.01-.02.17-.3,1.31-.02.14.06-.13.17-.46s.23-.69.22-.53a4.489,4.489,0,0,1-.14.63c.2-.73.77-2.11.71-1.7a8.987,8.987,0,0,1-.41,1.15c.09-.18.18-.35.28-.51a9.271,9.271,0,0,0-.45,1.33c0,.07.06.04-.08.38l-.23.41c.27-.46.47-.72.38-.48l-.44.69c-.32.51.92-1.33.62-.73.46-.61.72-1.11,1.17-1.81-.49.8-.6,1.18-.26.68.14.13-.05.26-.16.42a2.443,2.443,0,0,1,.24-.1c-.06.29-.59.65-.83.89.45-.34.08.23-.01.43a1.416,1.416,0,0,0-.18.08l-.11.24c.3-.08.27.21.09.41a1.927,1.927,0,0,0-.48,0c-.27.11.17,0,.25.01.11.05.07.21-.03.26a.75.75,0,0,1-.18.08.312.312,0,0,0-.22.15,3.132,3.132,0,0,1-.27,1.87A1.867,1.867,0,0,0,72.75,36.83Zm-4.13,1.78h.13C68.6,38.82,68.53,38.96,68.62,38.61Zm4.96-2.78c-.28.37-.35.14-.49.07.55-.15.61-.35,1.19-.49a3.848,3.848,0,0,1-.49-.08,1.951,1.951,0,0,1,.86-.04c.25.14-.21.3-.59.39S73.35,35.8,73.58,35.83Zm-9.49,9.72a.708.708,0,0,1,.01-.14h0Zm2.59-2.8a.442.442,0,0,0,.32-.01C66.86,42.69,66.74,42.65,66.68,42.75Zm6.15-3.6c.24.09.54-.15.76-.32A4.673,4.673,0,0,0,72.83,39.15Zm-9.86-.98c-.19-.13-.6-.34-.49.05.25.04.22.5.52.47.01.02,0,.03,0,.04A2.357,2.357,0,0,0,62.97,38.17ZM75.5,43.1c.2.1.42.34.57.29,0,.02-.01.04-.01.06.07-.03.12-.07.17,0a1,1,0,0,0,.02-.54C75.59,42.69,75.48,42.37,75.5,43.1Z"/><path class="a" d="M74.78,50.65c.08.01.15.03.2.03A1.058,1.058,0,0,0,74.78,50.65Z"/><path class="a" d="M76.23,42.95c-.04-.03-.1.19-.17.44C76.14,43.36,76.2,43.24,76.23,42.95Z"/><path class="a" d="M52.83,50.61l.14-.19-.47.11a1.186,1.186,0,0,0-.25,1.23c.32-.64.74-.77,1.36-1.33Q53.22,50.5,52.83,50.61Z"/><path class="a" d="M54.4,52.11a1.155,1.155,0,0,0,.48.06l-.03-.22Z"/><path class="a" d="M62,48.17l-.68.25C61.23,48.68,62.07,48.48,62,48.17Z"/><path class="a" d="M57.57,47.01l-.19.38c.37-.03.72-.29.65-.52C57.74,47.21,57.87,46.82,57.57,47.01Z"/><path class="a" d="M63.59,47.1c-.05-.44.68-.29.58-.67C64.09,46.64,63.39,46.78,63.59,47.1Z"/><path class="a" d="M61.05,44.4c-.38-.18-.48.29-.88.46C60.46,44.66,61.08,44.69,61.05,44.4Z"/><path class="a" d="M65.91,43.83c.16.23-.08.42-.38.6a1.2,1.2,0,0,1,.08-.42,4.923,4.923,0,0,1-.61.91c.48-.13,1.08-.5,1.25-.19C66.35,44.3,66.4,43.74,65.91,43.83Z"/><path class="a" d="M61.85,43.77c-.34.13-.67.04-.99.3a.593.593,0,0,0,.82-.06l.05.36C62.23,44.29,61.33,44.13,61.85,43.77Z"/><path class="a" d="M67.85,43.1l-.25.02c-.2.5-.69.8-.65,1.31A3.937,3.937,0,0,0,67.85,43.1Z"/><path class="a" d="M63.57,43.18l-.24-.39c-.41.26.12.09.06.29-.15.04-.34.14-.36.27C63.41,42.95,63.28,43.61,63.57,43.18Z"/><path class="a" d="M64.44,41.77l.36-.59h-.73C63.66,41.77,64.23,41.4,64.44,41.77Z"/><path class="a" d="M65.24,41.44l.11.01c.1-.39.21-.77.33-1.17A3.734,3.734,0,0,0,65.24,41.44Z"/><path class="a" d="M78.49,36.61c-.13-.15-1.26.13-.62.06C77.91,36.83,79.42,36.38,78.49,36.61Z"/><path class="a" d="M72.47,35.67c.24.03.41-.37.37-.5C72.77,35.32,72.25,35.49,72.47,35.67Z"/><path class="a" d="M72.84,35.12a.353.353,0,0,1,.01.06A.108.108,0,0,0,72.84,35.12Z"/><path class="a" d="M71.77,34.15l-.09.06A.7.7,0,0,1,71.77,34.15Z"/><path class="a" d="M72,34.01c-.09.07.19-.08.64-.35a8,8,0,0,0-.88.49C71.83,34.12,71.59,34.29,72,34.01Z"/><path class="a" d="M71.6,33.98c.11-.13.12-.07.25-.26C71.88,33.64,71.65,33.85,71.6,33.98Z"/><path class="a" d="M63.6,41.61c.15.37.36.5.51.25C63.85,41.52,63.86,41.81,63.6,41.61Z"/><path class="a" d="M64.48,42.22l-.08.13v.34Z"/><path class="a" d="M66.02,44.59a.29.29,0,0,1-.21-.04C65.96,44.65,66.08,44.72,66.02,44.59Z"/><path class="a" d="M65.75,44.51c.02.02.05.03.07.05Z"/><path class="a" d="M65.69,44.32l-.13.08a1.135,1.135,0,0,1,.19.12C65.69,44.46,65.65,44.39,65.69,44.32Z"/><path class="a" d="M66.58,45.23l-.07-.68c-.54-.24.29.6-.42.54Z"/><path class="a" d="M68,46.38a.7.7,0,0,0,.31.25l.2.09c.1.06.2.11.3.17.41.23.74.45.81.84,1,.64.93.35.94.07s.05-.47.96.22c-.8-.9-1.07-.82-1.39-.76-.3.06-.63.11-1.39-.73.31.47.14.41-.17.19A4.418,4.418,0,0,0,68,46.38Z"/><path class="a" d="M68.39,45.59c-.23.14.22.57.48.56C68.75,46.01,68.75,45.54,68.39,45.59Z"/><path class="a" d="M71.32,48.97c.17.24.35.5.54.74l.17-.09C71.79,49.43,71.56,49.19,71.32,48.97Z"/><path class="a" d="M73.35,50.59a2.927,2.927,0,0,1-.47.12C73.06,50.67,73.78,51.07,73.35,50.59Z"/><path class="a" d="M75.79,51.68c.47.13.55-.53-.25-.49l.2.05C75.73,51.36,76.3,51.66,75.79,51.68Z"/><path class="a" d="M77.95,46.64c-.03.37.01.86.16.92-.01-.37-.03-.76-.07-1.16Z"/><path class="a" d="M76.26,45.35c-.41-.13.05.72-.07,1.06A3.367,3.367,0,0,0,76.26,45.35Z"/><path class="a" d="M78.55,45.72a2.381,2.381,0,0,1,.05,1.2C78.85,46.97,78.76,46,78.55,45.72Z"/><path class="a" d="M78.33,43.68c.16-.36.23.15.34-.13a5.382,5.382,0,0,0,.1-1.32,1.292,1.292,0,0,0-.06-.41.634.634,0,0,0-.14-.24c-.17.13-.65.31-.86.12.08.29.32.92.46,1.33.14.43.19.81-.1,1.03.24.44.5.94.78,1.49C78.89,44.37,78.31,44.42,78.33,43.68Z"/><path class="a" d="M77,45.42c.08-.13.16-.26.24-.41-.24-.03-.29-.49-.38-.82C76.33,44.06,76.97,45.04,77,45.42Z"/><path class="a" d="M77.93,38.71l-.12-.87-.03.28Z"/><path class="a" d="M78.1,38.15l.15-.02-.28-.66Z"/><path class="a" d="M78.28,37.26l-.02.1.13.5Z"/><path class="a" d="M78.42,35.5l-.23.15c.05.21-.21.64.09.6A.749.749,0,0,1,78.42,35.5Z"/><path class="a" d="M73.03,32.66a5.028,5.028,0,0,0,.48-.45c-.15.12-.29.25-.44.39C73.09,32.59,73.13,32.56,73.03,32.66Z"/><path class="a" d="M73.79,31.71a5.092,5.092,0,0,0-.52.52c-.1.19.32-.27.37-.18.18-.24-.18.06-.03-.16Z"/><path class="a" d="M73.2,30.12a6.215,6.215,0,0,1,.27-1.15,5.067,5.067,0,0,1-.56,1.13c0,.31-.15,1.04-.09.82l.2-.58-.07.43C73,31.07,73.12,29.99,73.2,30.12Z"/><path class="a" d="M52.06,51.32c-.05-.15-.2-.16-.36-.17C51.48,51.61,52.11,51.23,52.06,51.32Z"/><path class="a" d="M20.14,71.91c.1.4.13.03.29-.2Z"/><path class="a" d="M20.42,71.71l.2-.15A.357.357,0,0,0,20.42,71.71Z"/><path class="a" d="M22,70.08c-.07.59-.74.86-.62,1.38C21.93,71.2,22.32,70.45,22,70.08Z"/><path class="a" d="M21.32,70.55l.15.19-.03-.58Z"/><path class="a" d="M20.96,70.68h.11c.08-.23.15-.47.22-.7Z"/><path class="a" d="M23.1,68.76l-.23.45c-.53.21-.18-.5-.54-.36-.35.53.43.55-.1,1.15.29.11.71-1.06,1.03-.68C23.75,68.87,23.05,69.14,23.1,68.76Z"/><path class="a" d="M41.18,52.4c-.03-.01-.05-.01-.08-.02C41.14,52.42,41.18,52.44,41.18,52.4Z"/><path class="a" d="M33.29,55.23a1.434,1.434,0,0,0-.36.01.337.337,0,0,0,.17.08Z"/><path class="a" d="M41.08,51.48a2.642,2.642,0,0,0-.29.14A.37.37,0,0,0,41.08,51.48Z"/><path class="a" d="M20.39,64.19a.28.28,0,0,0-.08.12l.01.01.12-.1Z"/><path class="a" d="M24.12,58.27a1.21,1.21,0,0,0-.35.13C23.98,58.36,24.08,58.32,24.12,58.27Z"/><path class="a" d="M38.99,53.43c.04-.03.07-.05.1-.07a.771.771,0,0,0-.15.06l.05.01Z"/><path class="a" d="M36.11,55.02a.972.972,0,0,0-.31.04A.778.778,0,0,0,36.11,55.02Z"/><path class="a" d="M28.84,64.08a.448.448,0,0,0,.27-.25C29,63.83,28.89,63.89,28.84,64.08Z"/><path class="a" d="M31.25,62.33l-.01.01C31.28,62.38,31.28,62.37,31.25,62.33Z"/><path class="a" d="M32.86,61.21l-.02.03C32.88,61.26,32.9,61.26,32.86,61.21Z"/><path class="a" d="M29.11,63.83c.31.01.71.46.59-.26l-.1-.04c.24.01.32-.36.49-.5a.647.647,0,0,0-.16-.09,3.507,3.507,0,0,1-.44.22C29.2,63.21,29.24,63.57,29.11,63.83Z"/><path class="a" d="M41.18,52.27c.06.11.23-.01,0,0Z"/><path class="a" d="M41.95,49.56l1.52,1.51h-.03l-.03.01-.06.01-.12.03a.487.487,0,0,0,.12-.01.142.142,0,0,0,.06-.02l.03-.01.02-.01h.01Z"/><path class="a" d="M35.49,55.63c.02,0,.03-.01.05-.01C35.51,55.56,35.48,55.59,35.49,55.63Z"/><path class="a" d="M43.01,51.17l.22-.06A.368.368,0,0,0,43.01,51.17Z"/><path class="a" d="M38.01,54.04a.06.06,0,0,0,.04-.01C38.04,54.02,38.03,54.03,38.01,54.04Z"/><path class="a" d="M21.09,49.3c-.06-.19.1-.31.14-.49-.46-.38.03.83-.38.26a.953.953,0,0,0,.14.44l.4-.27C21.21,48.9,21.26,49.49,21.09,49.3Z"/><path class="a" d="M22.52,65.65l-.07-.06c.01.2-.06.24.22.42.34-.2.04-.73.58-.91a.617.617,0,0,1-.34-.11C23.03,65.28,22.77,65.49,22.52,65.65Z"/><path class="a" d="M22.91,64.98l-.01-.02a.564.564,0,0,0-.04-.12.393.393,0,0,1-.17-.09A.481.481,0,0,0,22.91,64.98Z"/><path class="a" d="M27.13,48.39c.01.07.03.13.04.18C27.2,48.46,27.18,48.42,27.13,48.39Z"/><path class="a" d="M23.74,53.01a1.416,1.416,0,0,0,.22-.18A.413.413,0,0,0,23.74,53.01Z"/><path class="a" d="M18.14,64a1.509,1.509,0,0,0-.28-.15c-.06-.01-.12-.02-.2-.04Z"/><path class="a" d="M28.36,62.97c.42.47.36.4.29.29-.05-.08-.1-.15.09.01l-.42-.45c-.1-.06-.01.05.03.12Z"/><path class="a" d="M20.96,49.54H21c0-.01-.01-.01-.01-.02Z"/><path class="a" d="M27.36,60.24c.01-.05.01-.09.02-.14A.2.2,0,0,0,27.36,60.24Z"/><path class="a" d="M21.21,64.32l-1.12-.34.3.2C20.61,64.01,20.98,64.55,21.21,64.32Z"/><path class="a" d="M27.52,62.32l-.09-.34c.06.35-.01.24-.07.19-.04-.02-.01-.02-.09-.05a2.46,2.46,0,0,0-.45-.11,1.528,1.528,0,0,0-.89.1c-1.15-1.38-1.18.58-2.22-.63l.01.15c-1.03-.32-2.05-.65-3.03-1l-.73-.26-.39-.14c-.12-.04-.31-.11-.27-.11L19.16,60c-.19-.14-.15-.15-1.07-.09l.53-.08a.392.392,0,0,0,.14-.12c.26-.11.25-.12.39-.18a1.2,1.2,0,0,1,.25-.09l1.79-.38,1.88-.37c.54-.3.11-.66.56-.99.22-.03.7-.16.75.08-.39.22-.12.38-.24.51.65-.18,1.71-.08,2.29-.52l-.61-.19a2,2,0,0,1,.87-.22c-.06.18.35.44.16.56,1.19-1.08,1.15.09,2.22-.5.07-.71,1.33-1.61,2.1-2.33l.53.03c-.64.18.15.47-.65.66.71,0,1.24-.46,1.89-.54a.276.276,0,0,1,.03-.49c.4-.03.54.29.98.19l-.37.33c.36.15.51-.24.77-.36.17.24.83.09.81.42.47-.55.74-.41,1.28-.83-.74-.08.05-.4-.09-.6l-.69.34c1.08-.15-.32.15-.1.59-.55-.06.43-.96-.36-.64a12.033,12.033,0,0,0,2.02-1.09c-.57.27.02-.33-.34-.37.75-.26.24.1.56.32.41-.14.64.07.91-.39.71-.07.01.37.4.45-.14.39-1.97.2-1.47,1.15-.34.12-.65.64-1.16.78.48-.01,1.21.12,1.68-.28l-.15-.57c.41-.14.37-.56.68-.6-.1.21.25.36.57.21-.12-.05-.24.01-.24-.1.6-.24.56-.65,1.24-.98a6.6,6.6,0,0,1-1.46-.16c.02-.44.38-.18.69-.34-.03.07-.1.1.02.15l.29-.3c.8-.06.09.6.76.6.53.2.52-.37.9-.28-.03-.03-.07-.06-.09-.08a.588.588,0,0,1,.17-.02c-.01-.01-.01-.01-.01-.03.38-.18.81-.28.83-.61.08.12.33-.15.43-.28.18-.18.59-.67,1.04-.34l-1.48-1.46-.04.01v-.02c-.16.32-.45.5-.55.35a4.316,4.316,0,0,1-.42.44l-.3-.28c-.23.5-.02.61,0,1.22a3.038,3.038,0,0,0-1.16,1.24.753.753,0,0,0-.22.19l.33-.07c-.44.35-.26.47-.55.71.09-.02.11-.01-.1.07-.06.03-.12.07-.19.11-.01-.05.06-.09.14-.13l-.14-.06c-.63-.05-.41.63-.91.83a.553.553,0,0,1,.12-.14c-.29.09-.98-.1-.86.25-.08.01-.12.13-.14.26l-.2.09a.912.912,0,0,1,.2-.08c-.03.17-.04.36-.1.31l-.62.41a.648.648,0,0,0-.34.35l-.2-.05c-.19.19-.25.12-.26.06-1.09.15-.9,1.16-1.98,1.41.04.34.43.17.55.26a3.822,3.822,0,0,1-.41,1.08c-.59-.01-1.84.56-2.02-.01-.65.45.41.12.21.51l-.09.04a1.165,1.165,0,0,1,.8-.04c.24.2-.27.71-.5.78l-.14-.43c-.49.57.02.99-.1,1.62-.59.22-.54-.3-.87-.53l-.44.45-.18-.26c-.29.3-.19.61-.73.83.17-.48-.87.24-.64-.42-.32.09-.04.66-.42.4.02.41.33-.02.53-.03.39.33-.44.59-.67.92-.17-.19.04-.39-.43-.27a.394.394,0,0,1-.46.46c.19.26-.38.35-.6.49.27-.12.75-.17.76.16a1.334,1.334,0,0,1-.65.67l.37-.09c-.07.64-.79.16-1.18.66a3.9,3.9,0,0,0,.24-.73,13.274,13.274,0,0,1-.67,1.21l-.69-.04c.1.22-.45.36-.24.6-.62.26.13-.63.03-.85-.76.38-.13.81-1.05,1l-.01-.41c-.22.17-.49.69-.62.62.08.07.14-.06.26-.18.33.57-.51,1.23.08,1.58l.26-.24c-.25.49-.11,1.05-.54,1.24-.36.13-.24-.44-.26-.7-.34.38.34.76-.05,1.21.27-.2.42-.01.46.24.23-.26.74-.73.44-.8l-.12.06c-.12-.13-.06-.31-.07-.44.29-.36.37.02.52.03.56-.49-.48-.48.01-.99l.16.02c.1-.37.48-.74.28-1.11.52.11.51-.67.94-.7.66.68-.99.75-.93,1.42.39-.11.16.47.22.72a9.893,9.893,0,0,1,.55-1.07c.16.03.72.17.66-.23l-.08.04c.28-.38-.05-.6.34-.76.1.03.1.22.12.29.34-.17.11-.36.25-.58.35-.16.09.42.4.31.12-.55.59-.35.88-.59-.46-.34.78-1.48-.16-1.38l.54-.83c.39.06-.08.98.39,1.2l-.6.41c.48.47.98-1.24,1.8-.9.33-.2.2-.22,1-.37l-.44-.42a.8.8,0,0,1,.76.17,2.11,2.11,0,0,1,.53-.37.419.419,0,0,1-.11.32c.43.1.44-.06.42-.26.04-.22.25-.35.45-.49l-.05.31c.09-.13.2-.29.15-.39a.7.7,0,0,0,.2-.22,1.43,1.43,0,0,0-.83-.14c.87-.35,1.34-.89,2.24-1,.09.15-.03.52.06.48.36-.18.49-.68.3-.86a.7.7,0,0,1,.15-.15.485.485,0,0,0,.48.03.349.349,0,0,0,.26-.06c-.21-.44.51-.74.49-1a1.688,1.688,0,0,0-.47.36c.03-.44.01-.89.35-.85-.24.6.78-.02.21.64.85.07-.04-.53.58-.78l.46-.08c.17.3-.39.56-.24.6l.19-.22c-.05.38-.98.95-1.24,1.67l1.15-.72a11.478,11.478,0,0,1,1.89-1.86,5.88,5.88,0,0,0,1.65-1.91l-.04.05a.579.579,0,0,0-.1-.22l.11.03.06-.38a4.753,4.753,0,0,0,1.57-.51c-.4.08-.4.07-.6-.09-.18-.3-.24-.44.22-.69.17.17-.06.38.35.27-.23.05-.21-.19-.08-.38.32-.08.68-.43.87-.27-.05.15-.19.17-.28.22-.05.15.55-.27.41.18.11-.15.22-.31.33-.47.38-.13.1.38.28.36a8.309,8.309,0,0,0,.61-2.57,2.928,2.928,0,0,0,.46.25,1.343,1.343,0,0,0,.21-.78l.2-4.29-2.49,2.02c-.35.29-.67.76-1.09.92.04-.18.29-.19.46-.32a33.244,33.244,0,0,1-5.38.91l-.28.68-.57-.21a18.317,18.317,0,0,0-4.9,1.69c-.53.19-.43-.28-.73-.36-1.19.27-1.31.96-2.41,1.37.11-.21.26-.74-.23-.64-.05.18-.05.45-.38.42l.11-.2c-.34-.18-.55.12-1.15.15a5.482,5.482,0,0,0-2.66,1.61c-.95.15-.02-.61-.22-.69.7.06.44-.2.55-.42-.32.23-.73.42-.99.06a2.28,2.28,0,0,0-1.15.53c.22-.19.47-.02.28.21-.43-.05-1.42.32-1.46-.18-.58.15-1.17.29-1.78.43-.96.21-1.93.41-2.92.63-1.06.22-2.27.36-3.37.6a15.89,15.89,0,0,0-2.69.78c-.06.34.52-.08.55.13-.14.44-.81.11-.87.46l-.23-.27c-.79.32-.59.88-.79,1.25-.38-.14-.83.22-.66-.12-.22.16-2.46.12-2.22.37.68-.02,1.37-.01,2.09.01.17.03-.31.28-.16.27a4.536,4.536,0,0,0-1.41.48c-.51.04-.03-.33.18-.51-.71-.14-1.15.65-1.52.28-.32.5.44-.05.44.27-.19.16-.36.28-.57.45.2-.13.37-.23.56-.34-.06.18.01.32-.01.47s-.14.31-.6.61v.01a8.933,8.933,0,0,0,1.12.54c-.5.08.25.36.33.52-.16-.02-.33-.05-.49-.08.3.25.29.31.2.45-.65-.03-.07-.18-.62-.18.02.09.04.16.05.24.34-.04.77.03.81-.11a9.147,9.147,0,0,1,2.29.3c-.44.27-.99-.04-1.56.13.13.2.81.28,1.59.27a6.991,6.991,0,0,1,1.81.07,1.5,1.5,0,0,0,.94.29,8.99,8.99,0,0,1,1.4.17c-.92.12.32.41.26.64l-1.09.13c.64,0,.95.15.51.28a3.437,3.437,0,0,1,1.56-.07c.67.07,1.4.2,1.91.24l.12-.31a8.268,8.268,0,0,1,2.27.4,1.133,1.133,0,0,0,.5.03.673.673,0,0,0,.26-.1,1.945,1.945,0,0,1,.62-.31.876.876,0,0,1-.12,1.01c-.15-.22-.5-.22-.77-.41a13.594,13.594,0,0,1-4.16-.29c-.75.24-.45.27.09.31a3.305,3.305,0,0,1,1.51.28.275.275,0,0,1-.18.02.669.669,0,0,1,.17.07,4.808,4.808,0,0,0-2.23.09c1.16.18,1.4-.48,2.33.12a1.845,1.845,0,0,1,1.12.45c.15.12.3.24.43.34s.29.2.33.23c.41-.19.59-.8,1.39-.43l-.49.32c.95.29.63-.5,1.49-.23-.29-.13.41-.34-.16-.51a1.836,1.836,0,0,1,1.41.22c.14-.03.06-.14.13-.28-.43-.44-.89.07-1.19-.47l-.49.36c-.43-.3-.37-.69-.03-.79-.14-.02-.28.01-.35-.1.12-.72.5.41.83-.13l-.35-.04c-.02-.49.89-.18,1.31-.03.43.34.85.54.8.88l-.69-.03c.27.35.88.07,1.25.18a.222.222,0,0,0,.08.13.34.34,0,0,1-.01-.1.372.372,0,0,1,.18.19c.33.11.87.04,1.14.23l.05-.3-.09.15c-.3-.1-.66-.39-.37-.55.74-.01.72.59.81.89-.29.4-.66-.2-1.05-.14.08.5.68.24,1.28.74-.42.4-.8-.24-1.08.16.53.24.78-.06,1.32.24-.14.2-.71.05-.76.35l.33.25c-.91-.24-.03.65-.75.56.26.3.58-.26.94.19-.06-.25-.31-.75.19-.8l.45.3c.13.3-.68.34-.42.64.2.01.35-.01.58.01-.01-.16-.2-.31.01-.45a.428.428,0,0,0,.31.08,1.4,1.4,0,0,0,.39-.1,1.993,1.993,0,0,1,.81-.27,1.957,1.957,0,0,1,.97.71c.55.05,1.18.24,1.67.32a1.672,1.672,0,0,0,1.07-.02c-.28.2.38.71.83,1.06-.51-.08-.23.55.02.97.37,0,.23-.58-.05-.81.71.36.14-.3.87.18.45.24.19.51.43.73.65.08-.28-.62.52-.41.01.06-.04.08.08.17.47.14.78-.08.68-.31a1.208,1.208,0,0,0,.93.23c.01-.41-.11-.78.25-.39-.2-1.17-.32-.16-.53-.56a1.612,1.612,0,0,1-.1-1.26c.05.23.25.58.17.71l.42.18c.26-.88-1.15-1.5-.93-2.31.38.77.44.45.84.99-.13-.23-.13-1.13-.45-.79-.03-.43-.03-.75-.05-1.12a8,8,0,0,0-1.29-1.78,3.544,3.544,0,0,1-.2-1.92c-.11-.24-.2-.47-.29-.7-.07-.2-.13-.4-.2-.6-.08-.29-.15-.59-.21-.89a5.042,5.042,0,0,0-.74-1.87l.02.11c-.38-1.04-.3.65-.76-.38.53-.08.03-.76.09-1.2-.42-1.34-1.47-1.81-1.79-2.97.1-.05.24-.05.37.13a15.782,15.782,0,0,0-1.17-2.03h.07c-.27-1.24-1.21-1.88-1.76-2.86.09.06.28,0,.37.04-.12-.56-.31-1.32-.81-1.54.31-.6-.11-.4.06-.94l-5.23.44a2.3,2.3,0,0,0-.09.25c-.09.06-.09-.09-.11-.15a5.78,5.78,0,0,0-.09,1.31c.38,1.05,1.05,1.29.9,2.55-.69.09-.2-.76-.75-.77a.8.8,0,0,1,.13.8c-.28-.2-.17-.04-.43-.17-.17.26.75,1.04.69,1.04.13.01.2-.08.18-.33.43.28.07,1.23.24,1.84.01-.2.14-.83.47-.6-.14.83.54,1.09.81,1.67-.31.76-.58-.56-1.07-.41-.17.13-.56.43-.75.12-.1.68.32,1.17.42,1.78l-.14-.02c.05.85.64,1.77.36,2.48l.16-.38c.08.14.04.57.31.81-.23-.03-.44.53-.63.29.73.39.41,1.96,1.09,2.4-.19.23-.48.04-.64-.04.07-.54.22-.72-.06-1.01,0,.45-.19.78-.36.7.45.46.6,1.54,1.05,1.78-.24.33-.36.64-.74.51.21,1.39,1.18-.66,1.14.91-.38.71-.48-.71-.63.28l-.06-.18c-.99.69.69.51.64,1.32-.53.1-.37-.57-.76-.02.12.74.9,1.08.72,1.81l-.22-.12c.04.47-.08,1.39-.04,1.86-.1.02-.09-.05-.12-.14-.2.87.27.37-.1,1.08l.26.21a1.635,1.635,0,0,0,.15-1.51c.3.45.68-.7,1.13-.47l-.18-.09a11.737,11.737,0,0,0,1.24-4.17c-.52-.95.25-1.6-.1-2.62-.62-.17-.12-.19-.23-1.07.07.46.47.06.56-.23a1.325,1.325,0,0,1-.27-.59c.22-.17.74-1.27.32-1.68.21-.53.2.13.33.25.32-.21-.24-.44-.03-.61a.143.143,0,0,1,.1.07,18.458,18.458,0,0,1,.23-2.16c-.61-.07-.23-.84-.45-1.22.2.12.23-.48.34-.73l-.46-.45c-.39-.45.26-.63.04-1.22l-.11.14a2.944,2.944,0,0,1,.45-1.99,10.206,10.206,0,0,1-.57-3.47l-3.29.28a12.421,12.421,0,0,0,2.07,7.27c.3.14.16-.33.5-.29a6.5,6.5,0,0,1,.53.75c-.04-.38-.19-.23-.02-.28l-.46-.42c.02-.05.07,0,.12-.09a1.8,1.8,0,0,1-.49-.53c.33.24.76.11.88.62-.07,0-.12-.05-.23-.14.19.37.38.28.44.61.12.37.18.22.04.37l.41,1.11c.76.2.69,1.06.74,1.24-.4.11-.49-.57-.98-.6l-.04.5.29-.15.22.53h-.07c.14-.01.29-.01.26.17-.03.04-.07.14-.12.09l.36.25c-.4-.03.08.35-.28.49.41,1.17,1.19,1.13,1.07,2.28.11-.22.69.11.73.46-.03.22-.1.29-.28.22l.32.38c-.35.93-.02.71-.17.91l-.19-.03c.23.06.43.19.39.26l-.41-.17c-.28-.1.9.46.7.48a6.324,6.324,0,0,0,1.08.47c-.43-.16-.39.03-.06.19.35.42.08.19-.03.12l.4.4c.07.2-.7-.5-1.02-.76.65.57.31.44.24.47l-.28-.29a.435.435,0,0,1-.07.06,3.212,3.212,0,0,1,.29.39c.14.26-.1.18-.34-.04-.18-.27-.37-.54-.58-.82-.4-.45.2.28.29.42.17.36-.29-.22-.6-.67.2.37-.08.01-.21-.24C27.43,62.05,27.43,61.9,27.52,62.32Zm8.3-6.67h.12C35.83,55.84,35.79,55.98,35.82,55.65Zm4.28-3.3c-.34.55-.34.25-.47.18.55-.3.68-.64,1.16-.91a.7.7,0,0,1-.3-.12.558.558,0,0,1,.6-.1C41.28,51.94,39.71,52.33,40.1,52.35Zm-8.02,9.58V61.8h0Zm2.34-2.38a.391.391,0,0,0,.3.01C34.6,59.5,34.48,59.45,34.42,59.55Zm5.32-3.63c.24.07.48-.19.65-.39A3.939,3.939,0,0,0,39.74,55.92ZM8.23,58.04c.05-.11.03-.34-.44-.21.13.12-.53.21-.27.34a.149.149,0,0,1-.06.01C7.84,58.1,8.17,58.07,8.23,58.04Zm15.04,5.79c-.09.18-.28.35-.23.52l-.05-.03c.03.08.05.14.01.17.14.08.28.17.4.14C23.62,64.03,23.97,64.01,23.27,63.83Z"/><path class="a" d="M15.3,64.34c.13.03.23.05.31.06C15.53,64.39,15.43,64.37,15.3,64.34Z"/><path class="a" d="M23.37,64.62c.02-.04-.14-.15-.33-.28C23.06,64.44,23.15,64.53,23.37,64.62Z"/><path class="a" d="M22.47,66.98l.07-.2-.4.2a1.1,1.1,0,0,0,.17,1.16c.08-.64.41-.85.81-1.49Z"/><path class="a" d="M24.36,68.05a1.016,1.016,0,0,0,.43-.02l-.1-.19Z"/><path class="a" d="M30.34,64.26l-.58.2C29.71,64.7,30.44,64.56,30.34,64.26Z"/><path class="a" d="M26.2,63.07l-.13.37c.33-.04.63-.29.54-.52C26.38,63.26,26.46,62.87,26.2,63.07Z"/><path class="a" d="M31.68,63.37c-.07-.43.59-.2.5-.58C32.1,62.98,31.49,63.04,31.68,63.37Z"/><path class="a" d="M29.24,60.6c-.37-.19-.44.25-.8.4C28.7,60.82,29.28,60.88,29.24,60.6Z"/><path class="a" d="M33.71,60.5c.15.24-.07.38-.34.51a.952.952,0,0,1,.07-.38,4.793,4.793,0,0,1-.54.8c.43-.08.97-.35,1.14-.04C34.11,61,34.15,60.47,33.71,60.5Z"/><path class="a" d="M29.96,60.04c-.32.09-.62-.01-.92.22a.539.539,0,0,0,.76-.01l.05.35C30.33,60.57,29.48,60.35,29.96,60.04Z"/><path class="a" d="M35.55,59.95l-.24.01c-.18.49-.71.76-.66,1.24A3.176,3.176,0,0,0,35.55,59.95Z"/><path class="a" d="M31.53,59.63l-.23-.39c-.38.21.12.1.06.28-.14.02-.31.1-.33.22C31.39,59.4,31.28,60.02,31.53,59.63Z"/><path class="a" d="M32.34,58.36l.31-.5L32,57.75C31.61,58.29,32.16,57.99,32.34,58.36Z"/><path class="a" d="M33.06,58.16l.1.03.22-1.05A3.325,3.325,0,0,0,33.06,58.16Z"/><path class="a" d="M43,53.61c-.07-.21-.63.04-.31.01C42.73,53.82,43.44,53.42,43,53.61Z"/><path class="a" d="M39.02,52.38c.27-.03.64-.73.76-1.03C39.6,51.68,38.82,52.22,39.02,52.38Z"/><path class="a" d="M39.84,51.23c-.01.02-.03.07-.05.12A.308.308,0,0,0,39.84,51.23Z"/><path class="a" d="M33.27,56.11a.228.228,0,0,0-.09.08C33.21,56.16,33.24,56.14,33.27,56.11Z"/><path class="a" d="M33.58,55.9c.25-.01.67-.26.69-.48a5.828,5.828,0,0,0-1,.69C33.43,56.04,33.66,56.12,33.58,55.9Z"/><path class="a" d="M30.24,56.75c.14-.17.4-.17.29-.33C30.41,56.36,30.1,56.66,30.24,56.75Z"/><path class="a" d="M4.04,59.83a1.344,1.344,0,0,1-.14.11.488.488,0,0,0,.61.3c-.25-.28-.3-.21-.48-.3A.148.148,0,0,1,4.04,59.83Z"/><path class="a" d="M4.91,60.59l-.15.05a1.18,1.18,0,0,1-.13.18A1.638,1.638,0,0,0,4.91,60.59Z"/><path class="a" d="M5.5,61.72a.617.617,0,0,1-.24-.02C5.36,61.73,5.46,61.76,5.5,61.72Z"/><path class="a" d="M5.2,61.68c.01.01.03.01.05.02Z"/><path class="a" d="M5.29,61.62l-.24.02a.88.88,0,0,1,.15.05C5.17,61.67,5.18,61.64,5.29,61.62Z"/><path class="a" d="M5.66,61.95l.55-.25c-.53-.08-.16.21-1.1.19Z"/><path class="a" d="M6.69,62.6c0,.3,1.93.26,1.25.69a3.069,3.069,0,0,0,1.14.1,1.713,1.713,0,0,0,.57-.2,1.316,1.316,0,0,1,.58-.19,6.218,6.218,0,0,1,1.24.07,3.184,3.184,0,0,0-1.04-.22,6.4,6.4,0,0,0-.99.08c-.61.09-1.34.15-1.57-.23C7.76,63.17,7.02,62.63,6.69,62.6Z"/><path class="a" d="M8.21,62.13c-.56.07-.19.33.29.32C8.44,62.36,8.91,62.09,8.21,62.13Z"/><path class="a" d="M9.99,63.67a1.522,1.522,0,0,0,.42.27l.46-.1A4.911,4.911,0,0,1,9.99,63.67Z"/><path class="a" d="M12.65,64.18l-1.08.1C12,64.22,12.98,64.44,12.65,64.18Z"/><path class="a" d="M15.87,65.32c.57.27,1.38-.21.13-.41l.26.1C16.11,65.08,16.67,65.48,15.87,65.32Z"/><path class="a" d="M21.21,65.74c-.21-.07-.49-.06-.48.09l.63.02Z"/><path class="a" d="M21.55,64.12c-.09-.45-.56-.11-.91-.35A2.745,2.745,0,0,0,21.55,64.12Z"/><path class="a" d="M21.73,66.48c-.2.12-.42-.05-.56-.11C21.18,66.62,21.6,66.67,21.73,66.48Z"/><path class="a" d="M22.69,66.59c.14.21-.1.21.01.36a.993.993,0,0,0,1.05.23c-.05-.2-.06-.7.16-.85-.67-.04-1.2.61-1.36-.04l-.73.55C22.3,67.09,22.34,66.46,22.69,66.59Z"/><path class="a" d="M21.73,64.92l.29.33c-.01-.25.27-.21.47-.24C22.54,64.47,21.94,64.94,21.73,64.92Z"/><path class="a" d="M26.61,67.52a9.06,9.06,0,0,1,1.2.43l-.39-.24Z"/><path class="a" d="M27.38,68.04l.03.18.94.22C28.04,68.31,27.71,68.16,27.38,68.04Z"/><path class="a" d="M28.75,68.99l-.16-.11c-.25-.08-.5-.18-.76-.28C28.14,68.74,28.45,68.88,28.75,68.99Z"/><path class="a" d="M31.25,70.1l-.32-.35c-.2.03-.89-.52-.68-.08A1.533,1.533,0,0,1,31.25,70.1Z"/><path class="a" d="M27.86,62.33c.23.2.44.37.64.52l-.6-.5C27.93,62.38,27.99,62.44,27.86,62.33Z"/><path class="a" d="M28.71,62.89q-.345-.285-.66-.51c-.06.01.44.36.6.58.18.1-.31-.32-.17-.25Z"/><path class="a" d="M25.98,55.92c.26-.1.16-.19.54.07a7.432,7.432,0,0,1-1.05-1.39c-.09.19-.61-.08-.41.1l.54.54-.22.01C25.46,55.8,25.82,55.37,25.98,55.92Z"/><path class="a" d="M23,66.48c-.13-.07-.26.02-.38.11C22.77,67.03,22.98,66.39,23,66.48Z"/></g></svg>