<svg xmlns="http://www.w3.org/2000/svg" viewBox="0 0 21 21"><defs><style>.a{fill:#fff;stroke:#131986;stroke-linecap:round;stroke-linejoin:round;stroke-miterlimit:10;}</style></defs><g transform="translate(-1.455 -1.455)"><path class="a" d="M14.133,26.445a3.887,3.887,0,0,0-6.615-2.257L3.1,28.608a3.9,3.9,0,0,0,5.518,5.518l4.42-4.42a3.887,3.887,0,0,0,.878-1.317M12,28.639l-.063.063L7.581,33a2.383,2.383,0,0,1-3.355-3.355l4.326-4.358A2.383,2.383,0,0,1,12.628,27.1" transform="translate(0 -13.313)"/><path class="a" d="M23.2,10.779a3.887,3.887,0,0,0,6.615,2.257l4.42-4.42A3.9,3.9,0,1,0,28.718,3.1L24.3,7.518a3.887,3.887,0,0,0-.878,1.317m1.912-.251.063-.063,4.358-4.3a2.383,2.383,0,0,1,3.355,3.355L28.78,11.939A2.383,2.383,0,0,1,24.7,10.12" transform="translate(-13.423 0)"/></g></svg>