<svg width="340" height="71" viewBox="0 0 340 71" fill="none" xmlns="http://www.w3.org/2000/svg">
<path d="M339 34.53V44.53C339 47.3 339 50.07 339 52.83C339 55.59 336.67 57.83 337.6 60.59C335.14 61.88 336.6 65.59 332.86 66.31C332.24 66.43 329.69 66.76 330.56 68.77C329.839 69.3276 328.977 69.6738 328.07 69.77C324.02 69.07 320.07 70.03 316.07 70C295.75 69.83 275.42 69.87 255.07 70C252.07 70 249.07 69.49 245.94 69.84C242.81 70.19 239.58 69.65 236.47 70.02C233.57 70.37 230.93 69.12 227.89 69.76C225.18 70.33 222.11 69.49 219.2 69.48C216.85 69.48 214.49 69.9 212.14 69.92C203.48 69.98 194.82 70.01 186.14 69.92C183.38 69.92 180.43 68.76 177.93 69.33C175.391 70.0056 172.747 70.1855 170.14 69.86C160.73 68.25 151.2 68.65 141.89 69.32C130.6 70.14 119.38 69.71 108.13 69.89C102.68 69.98 97.2099 69.09 91.7499 69.17C85.5399 69.26 79.3299 69.94 73.1199 70.37C70.9599 70.52 68.6799 71.12 66.6699 70.71C64.3299 70.23 62.2299 70.91 60.0199 70.89C45.5299 70.78 31.0199 70.84 16.5499 70.83C14.4799 70.83 12.1299 71.33 11.2299 68.83C11.1699 68.69 10.4099 68.83 10.0199 68.68C9.18995 68.42 6.53995 65.85 5.80995 65.1C4.31995 63.56 3.30995 62.1 4.80995 60.1C4.99995 59.84 4.45995 58.79 4.31995 58.8C1.86995 58.96 2.67995 57.19 2.01995 56.21C1.01995 54.68 2.64995 52.63 1.55995 52.02C-0.440052 50.9 0.559948 49.49 0.139948 48.22C-0.320052 46.71 1.30995 45.34 0.419948 43.69C0.239948 43.37 -0.190052 41.21 1.80995 40.79C1.86995 40.79 1.87995 39.79 1.67995 39.73C-0.660052 38.79 1.89995 36.55 0.169948 35.49C1.46995 30.94 -0.480052 26.39 0.169948 21.83C0.529948 19.29 -0.520052 16.64 1.05995 14.16C1.33995 13.72 0.629948 12.85 0.529948 12.16C0.239948 10.16 2.69995 8.79 2.38995 6.74C2.6588 6.7752 2.9311 6.7752 3.19995 6.74C4.07995 6.51 5.32995 6.47 5.73995 5.94C8.52995 2.32 13.3299 2.51 17.2699 1.11C17.5979 1.02532 17.942 1.02532 18.2699 1.11C22.4499 2.02 26.6099 0.79 30.7999 1.04C34.9899 1.29 39.4599 1.1 43.7999 1.1H70.2299C74.5599 1.1 78.8899 1.02 83.2299 1.1C85.61 1.16 88.2899 0.29 90.2299 2.38C90.3549 2.43953 90.4915 2.47042 90.6299 2.47042C90.7683 2.47042 90.905 2.43953 91.0299 2.38C92.5099 0.66 94.67 1.75 96.4799 1.38C98.5976 1.06234 100.74 0.935164 102.88 1C111.71 1 120.54 1 129.36 1C131 1 132.69 0.75 134 2.12C134.237 2.30573 134.513 2.43547 134.808 2.49954C135.102 2.5636 135.407 2.56034 135.7 2.49C138.78 1 142 2.1 145 2.39C147.15 2.59 149.15 3.06 151.24 2.23C151.836 2.12209 152.448 2.15289 153.03 2.32C153.638 2.51689 154.265 2.65093 154.9 2.72C157.83 2.49 160.9 1.53 163.61 2.07C166.19 2.57615 168.843 2.59311 171.43 2.12C172.559 1.90223 173.712 1.82831 174.86 1.9C180.3 2.36 185.86 0.71 191.27 2.61C192.52 3.04 194.52 2.37 195.94 1.77C198 0.9 200.13 1 202.26 1H203.26C206.43 1 209.61 1.16 212.75 0.95C215.64 0.76 218.31 2.29 221.22 1.54C221.32 1.54 221.52 1.76 221.64 1.74C224.728 0.905071 228.014 1.22875 230.88 2.65C234.12 1.59 237.4 2.48 240.66 2.51C243.17 2.51 245.66 2.43 248.2 2.41C249.864 2.23666 251.542 2.26015 253.2 2.48C254.775 2.90118 256.452 2.70816 257.89 1.94C258.049 1.88435 258.221 1.88435 258.38 1.94C264.09 3.43 270.12 1.09 275.81 3.05C276.41 3.25 277.25 2.87 277.98 2.83C280.69 2.69 283.34 1.66 286.14 2.69C286.9 2.97 288.03 2.43 288.99 2.39C290.062 2.33001 291.137 2.33001 292.21 2.39C293.21 2.45 294.6 3 295.04 2.62C296.71 1.2 298.53 3.27 300.04 2.28C301.82 1.08 303.12 2.76 304.69 2.73C306.023 2.80906 307.36 2.79236 308.69 2.68C310.39 2.39 311.79 1.53 313.81 2.49C314.81 2.94 316.75 1.77 318.24 2.7C322.86 1.07 326.44 4.83 330.82 4.57C331.22 4.57 331.69 5.23 332.11 5.57C332.53 5.91 332.93 6.68 333.46 6.78C339.58 8 338.46 12.78 338.87 16.16C339.47 22.27 339 28.42 339 34.53Z" fill="#F8F8F8"/>
</svg>
