<svg width="25" height="25" viewBox="0 0 25 25" fill="none" xmlns="http://www.w3.org/2000/svg">
<path d="M23.9999 7.68C23.9531 7.56115 23.8795 7.4547 23.7848 7.36896C23.6901 7.28322 23.5769 7.22048 23.454 7.18565C23.3311 7.15081 23.2019 7.14481 23.0763 7.16811C22.9507 7.19141 22.8322 7.24339 22.7299 7.32C22.6001 7.27654 22.4597 7.27654 22.3299 7.32C22.1499 7.4 21.8999 7.56 21.7199 7.62C21.6049 7.66926 21.4839 7.7029 21.3599 7.72C21.4199 7.72 21.4199 7.88 21.3599 7.92C21.2999 7.96 21.2099 8.14 21.1499 7.92C21.0299 7.75 20.8999 7.86 20.7899 7.92L20.8399 8.18C20.4599 7.89 20.0299 8.46 19.8399 8.1C19.7599 8.16 19.6699 8.16 19.5999 8.21V8.07C19.4396 8.00302 19.2717 7.956 19.0999 7.93L19.1799 7.85C19.0599 7.85 18.8799 8.17 18.7399 8.12L18.7899 7.91C18.5599 7.81 18.4599 7.52 18.1399 7.52C18.1399 7.52 18.2099 7.46 18.2499 7.47C18.2899 7.48 17.9999 7 17.8899 7.28C18.0099 7.14 17.6899 7.08 17.5299 7.03L17.6399 7C17.4299 7 17.3899 7.07 17.2299 7C17.0699 6.93 17.2799 6.9 17.2999 7C17.2499 6.85 17.1199 7 17.0599 6.84H17.1699C17.0799 6.73 17.0499 6.77 16.9199 6.78C16.8916 6.76361 16.867 6.74161 16.8475 6.71534C16.828 6.68907 16.814 6.6591 16.8066 6.62726C16.7991 6.59542 16.7982 6.56238 16.8039 6.53018C16.8096 6.49798 16.8219 6.46729 16.8399 6.44C16.7699 6.44 16.6399 6.44 16.6099 6.44C16.6236 6.4321 16.6391 6.42794 16.6549 6.42794C16.6707 6.42794 16.6863 6.4321 16.6999 6.44C16.6099 6.19 16.3399 6.27 16.3299 6.04C16.3299 6.04 16.3299 5.99 16.3299 5.97C16.41 6.05169 16.4805 6.14228 16.5399 6.24C16.6399 6.16 16.5399 6.03 16.7699 6.01C16.6099 6.01 16.3099 5.94 16.2599 5.78C16.2523 5.76335 16.2412 5.74851 16.2274 5.73645C16.2136 5.72438 16.1974 5.71537 16.1799 5.71C16.166 5.66722 16.1458 5.62677 16.1199 5.59C16.1899 5.51 16.0499 5.41 15.9999 5.34C15.8999 5.44 15.8399 5.34 15.8199 5.49C15.8199 5.49 15.8199 5.49 15.8799 5.49L16.0199 5.64C15.9199 5.64 15.8299 5.64 15.8399 5.51L15.5899 5.57C15.6699 5.36 15.5899 5.12 15.6799 5.02C15.4599 4.88 15.2399 4.61 14.9399 4.67C14.8699 4.67 14.9399 4.56 14.9399 4.51C14.9399 4.46 15.0199 4.56 15.0599 4.56C14.9199 4.5 14.7499 4.26 14.5899 4.37C14.5199 4.19 14.7899 4.37 14.5899 4.17H14.6499C14.4899 3.6 13.7499 3.99 13.5499 3.36C13.5565 3.37584 13.5599 3.39283 13.5599 3.41C13.5599 3.42716 13.5565 3.44415 13.5499 3.46C13.1099 2.94 12.3699 2.92 11.8499 2.46C11.6899 2.36 11.6399 2.46 11.5199 2.53V2.21L11.2999 2.35C11.1299 2.35 10.9999 2.2 10.8399 2.12C10.9399 2.06 10.7899 1.98 10.6899 1.88L10.8999 1.94L10.6999 1.75C10.5799 1.54 11.3099 1.75 11.0499 1.42H10.8999C10.9499 1.42 10.8999 1.19 11.0499 1.27C11.0499 1.27 10.9099 1.18 10.9999 1.19H11.1099L11.0999 0.999996C11.2299 0.909996 11.5299 1.2 11.6199 0.999996C11.7099 0.799996 11.3799 0.699996 11.2899 0.699996C11.1999 0.699996 11.1999 0.699996 11.0899 0.699996V0.619996C10.8164 0.440578 10.4971 0.343401 10.1699 0.339996L10.3299 0.519996H10.1599V0.429996C9.99993 0.429996 10.1099 0.499996 10.1599 0.569996C10.1128 0.534558 10.058 0.510591 9.99993 0.499996L10.2699 0.719996C10.1399 0.719996 10.0399 0.579996 9.93993 0.609996C10.0599 0.719996 10.2399 0.689996 10.2999 0.799996C10.1399 0.799996 10.0199 0.719996 10.1299 0.799996C10.0819 0.786781 10.0374 0.762849 9.99993 0.729996C10.0799 0.819996 9.99993 0.879996 10.1499 0.979996C9.94993 0.979996 10.1499 1.16 9.82993 1.03C9.88993 1.08 10.0299 1.22 10.0199 1.27C9.68993 1.03 9.92993 1.43 9.54993 1.27C9.84993 1.47 9.59993 1.56 9.73993 1.74C9.73993 1.74 9.66993 1.69 9.73993 1.69C9.80993 1.69 9.57993 1.69 9.49993 1.69C9.76993 1.81 9.78993 1.93 9.93993 2.05C9.64993 2.05 9.63993 1.87 9.37993 1.79C9.57993 1.87 9.55993 1.99 9.69993 2.05C9.56478 2.07914 9.42375 2.06151 9.29993 2C9.55993 2.12 9.43993 2.1 9.45993 2.15C9.45706 2.16989 9.45706 2.1901 9.45993 2.21C9.31993 2.21 9.24993 2.13 9.29993 2.21C9.25789 2.20387 9.21755 2.18918 9.18143 2.16681C9.1453 2.14445 9.11416 2.1149 9.08993 2.08C9.08993 2.16 9.26993 2.21 9.40993 2.28H9.45993C9.45993 2.37 9.24993 2.28 9.10993 2.22C9.10993 2.32 9.35993 2.47 9.32993 2.52C9.29993 2.57 9.26993 2.52 9.21993 2.52C9.36993 2.66 9.21993 2.73 9.30993 2.87V2.99C9.00993 2.92 9.38993 2.94 8.97993 2.85C8.85993 2.96 9.03993 3.05 8.91993 3.15C9.00458 3.20633 9.09511 3.25327 9.18993 3.29L8.99993 3.51C8.81993 3.51 8.52993 3.39 8.69993 3.57C8.86993 3.75 8.84993 3.66 8.90993 3.71V3.81L8.70993 3.7C8.65993 3.77 8.80993 3.84 8.86993 3.9V3.99C8.76993 3.92 8.81993 3.85 8.77993 3.86C8.56993 3.86 8.77993 3.94 8.85993 4.01V4H8.60993C8.61575 4.15815 8.63583 4.31545 8.66993 4.47V4.53C8.64641 4.5065 8.61827 4.48814 8.58728 4.47609C8.5563 4.46404 8.52315 4.45856 8.48993 4.46C8.48993 4.7 8.28993 4.85 8.07993 4.98L8.24993 5.13C8.24993 5.13 8.13993 5.13 8.10993 5.13C8.07993 5.13 8.23993 5.19 8.30993 5.25C8.37993 5.31 8.16993 5.25 8.11993 5.25C8.23993 5.45 8.33993 5.76 8.05993 5.81V5.75C7.99993 5.75 8.05993 5.87 8.18993 5.94L8.04993 6C7.92993 6.19 7.94993 6.45 7.61993 6.49C7.87993 6.63 7.46993 6.65 7.72993 6.8C7.54993 6.8 7.46993 6.8 7.28993 6.89C7.10993 6.98 7.51993 7.07 7.52993 7.15L7.29993 7.09L7.48993 7.26L7.21993 7.2V7.28C7.21993 7.28 7.32993 7.28 7.38993 7.28C7.44993 7.28 7.15993 7.43 7.04993 7.39L7.13993 7.67C7.08389 7.64245 7.03572 7.60117 6.99993 7.55C7.16993 7.75 6.75993 7.48 6.91993 7.66C6.98007 7.67855 7.0373 7.70548 7.08993 7.74C7.05911 7.73894 7.02858 7.74628 7.00161 7.76125C6.97464 7.77621 6.95225 7.79823 6.93684 7.82494C6.92143 7.85166 6.91357 7.88206 6.91412 7.9129C6.91466 7.94373 6.92359 7.97384 6.93993 8L6.79993 7.89C6.69993 8.02 6.72993 8.24 6.65993 8.41C6.72412 8.40868 6.78781 8.42143 6.84654 8.44734C6.90528 8.47325 6.95763 8.5117 6.99993 8.56L6.75993 8.48C6.87993 8.57 6.86993 8.48 6.99993 8.59C6.92993 8.59 6.73993 8.52 6.68993 8.45V8.56C6.62462 8.53436 6.56114 8.50429 6.49993 8.47C6.62993 8.56 6.21993 8.47 6.49993 8.66H6.42993C6.34993 8.83 6.42993 8.94 6.34993 9.09C6.53993 9.17 6.47993 9.21 6.61993 9.32C6.50993 9.39 6.30993 9.45 6.27993 9.58C6.24993 9.71 6.42993 9.67 6.52993 9.76C6.34993 9.69 6.31993 9.82 6.21993 9.7C6.16565 9.84852 6.16565 10.0115 6.21993 10.16H6.35993V10.21H6.21993C6.39993 10.53 5.49993 10.48 5.79993 10.8L5.91993 11.06C5.85993 11.13 5.80993 10.96 5.67993 10.97C5.88993 11.28 5.50993 11.25 5.67993 11.49C5.10993 11.39 5.53993 11.93 5.13993 11.95H5.26993C5.36993 12.05 5.16993 11.95 5.12993 11.95C5.08993 11.95 5.25993 11.95 5.31993 12.01C5.31993 12.43 4.82993 12.67 4.56993 13.01C4.47993 13.13 5.17993 13.36 4.80993 13.4L4.59993 13.26C4.76993 13.64 4.36993 13.8 4.48993 14.16C4.48993 14.16 4.36993 14.1 4.38993 14.07C4.19993 14.07 4.28993 14.27 4.38993 14.33C4.38993 14.33 4.25993 14.33 4.17993 14.33C4.09993 14.33 4.32993 14.56 4.17993 14.52C4.15329 14.508 4.13196 14.4866 4.11993 14.46C4.18993 14.53 4.02993 14.62 4.23993 14.67C4.09993 14.73 4.23993 14.89 4.09993 14.92C4.28993 15.06 3.91993 15.05 4.21993 15.19C3.90993 15.06 3.88993 15.26 4.01993 15.38C3.92993 15.32 3.88993 15.38 3.76993 15.32C3.76993 15.39 3.76993 15.48 3.94993 15.54C3.51993 15.54 4.13993 15.93 3.62993 15.8C3.70408 16.0428 3.73786 16.2962 3.72993 16.55C3.41993 16.41 3.78993 16.32 3.45993 16.19C3.45993 16.43 3.73993 16.64 3.58993 16.79C3.43993 16.94 3.45993 16.71 3.40993 16.67C3.46993 16.91 3.23993 17.01 3.33993 17.24C3.30978 17.2246 3.28528 17.2001 3.26993 17.17C3.26993 17.17 3.19993 17.22 3.33993 17.28C3.56993 17.28 3.71993 17.59 3.82993 17.64C3.43993 17.42 3.65993 17.76 3.17993 17.46C3.22592 17.5133 3.2843 17.5545 3.34993 17.58C3.34993 17.58 3.24993 17.58 3.15993 17.51C3.15993 17.65 3.35993 17.67 3.30993 17.78C3.25211 17.7503 3.19834 17.7134 3.14993 17.67C3.25993 17.78 3.36993 17.89 3.27993 17.95C3.18993 18.01 3.17993 17.95 3.18993 17.89C3.18993 18.05 3.43993 18.29 3.24993 18.4C2.96993 18.23 3.11993 18.4 2.85993 18.32V18.44H2.99993C2.99993 18.52 3.12993 18.67 2.99993 18.7L2.91993 18.6V18.76H3.04993C3.14993 18.89 3.37993 18.89 3.26993 18.96C3.15993 19.03 3.26993 19.04 3.05993 19.01H2.99993C3.06993 19.08 3.13993 19.16 2.99993 19.19C2.85993 19.22 2.71993 19.06 2.65993 19.05C2.85993 19.17 2.65993 19.25 2.85993 19.39L2.63993 19.29L2.80993 19.4C2.73625 19.4082 2.66203 19.3905 2.59993 19.35C2.51993 19.45 2.93993 19.45 2.74993 19.52C2.73003 19.5227 2.70984 19.5227 2.68993 19.52C2.56993 19.62 2.68993 19.81 2.56993 19.89C2.28993 19.82 2.56993 19.77 2.30993 19.71C2.30993 19.9 2.46993 20.19 2.30993 20.33C2.65993 20.51 2.06993 20.38 2.20993 20.54C2.20993 20.54 2.01993 20.42 2.05993 20.45C2.09993 20.48 2.05993 20.71 2.05993 20.93L1.96993 20.87C1.85993 20.87 1.84993 21.03 1.77993 21.08C1.70993 21.13 1.82993 21.17 1.97993 21.21C1.34993 21.21 2.08993 21.75 1.55993 21.76C1.55993 21.76 1.49993 21.67 1.48993 21.69V21.89C1.57231 21.9079 1.65755 21.9079 1.73993 21.89C1.81993 21.95 1.87993 22.03 1.85993 22.07C1.77993 21.95 1.59993 21.97 1.49993 21.96L1.64993 22.03C1.32993 22.03 1.96993 22.18 1.72993 22.22H1.63993C1.63993 22.28 1.75993 22.36 1.71993 22.4C1.67993 22.44 1.64993 22.32 1.49993 22.25C1.34993 22.18 1.79993 22.53 1.58993 22.52C1.58993 22.47 1.58993 22.42 1.51993 22.37C1.27993 22.37 1.32993 22.37 1.27993 22.37L1.13993 22.45H1.20993C1.65993 22.74 1.20993 22.66 1.48993 22.91C1.23993 22.67 1.32993 22.82 1.11993 22.72C0.909932 22.62 0.969932 22.72 0.909932 22.72C1.05993 22.85 0.739932 22.72 0.909932 22.94C0.839932 22.94 0.909932 22.99 0.709932 22.94C0.709932 23.03 0.839932 22.94 0.919932 23.01C1.10993 23.22 0.539932 23.15 0.789932 23.44C0.859932 23.62 1.07993 23.74 1.13993 23.91C1.04988 23.8964 0.967988 23.8502 0.909932 23.78C0.779932 23.78 0.779932 23.86 0.829932 23.96C0.773505 23.9225 0.707649 23.9017 0.639932 23.9C0.639932 23.96 0.869932 24.04 0.739932 24.06L0.489932 23.9C0.489932 23.98 0.629932 24.1 0.669932 24.18C0.539932 24.18 0.499932 24.07 0.429932 24.02C0.439261 24.0855 0.462916 24.1481 0.499214 24.2034C0.535511 24.2587 0.583558 24.3054 0.639932 24.34H0.999932C0.999932 24.34 0.819932 24.05 0.799932 24C0.779932 23.95 0.899932 24 0.999932 24V24.07C1.41993 24.19 0.999932 23.86 1.06993 23.78L1.33993 23.94L1.13993 23.75C1.22993 23.75 1.38993 23.81 1.41993 23.88C1.44993 23.95 1.33993 23.78 1.51993 23.79C1.52778 23.7864 1.5363 23.7845 1.54493 23.7845C1.55356 23.7845 1.56209 23.7864 1.56993 23.79L1.50993 23.69C1.56993 23.69 1.71993 23.77 1.65993 23.79C1.86993 23.79 1.51993 23.52 1.74993 23.57C1.74993 23.38 1.53993 23.47 1.33993 23.25L1.89993 23.39L1.68993 23.29C1.68993 23.29 1.73993 23.29 1.81993 23.29C1.69993 23.17 1.71993 23.29 1.59993 23.17C1.82993 23.17 1.59993 22.92 1.93993 23.04C1.78993 22.95 1.78993 23.04 1.70993 22.93C2.07993 23.06 1.70993 22.81 1.87993 22.81C2.04993 22.81 1.99993 23 2.13993 23C1.83993 22.82 2.26993 22.89 2.22993 22.8C2.18993 22.71 2.12993 22.74 2.11993 22.71C2.16373 22.73 2.20162 22.761 2.22993 22.8L2.36993 22.85C2.36993 22.85 2.19993 22.75 2.11993 22.71C2.03993 22.67 2.11993 22.59 2.11993 22.49C2.11993 22.39 2.33993 22.36 2.46993 22.31C2.21993 22.19 2.30993 22.11 2.27993 22.02C2.38369 22.0448 2.4756 22.1049 2.53993 22.19V22.12C2.54993 22 2.51993 22 2.50993 22L2.68993 22.09C2.68993 22 2.53993 21.83 2.68993 21.77C2.51993 21.69 2.15993 21.65 2.08993 21.48C2.18993 21.48 2.35993 21.58 2.37993 21.63C2.39993 21.68 2.31993 21.56 2.37993 21.56L2.51993 21.67C2.60993 21.67 2.39993 21.59 2.42993 21.55C2.45993 21.51 2.53993 21.55 2.64993 21.61C2.75993 21.67 2.56993 21.61 2.64993 21.66C2.73405 21.6303 2.82582 21.6303 2.90993 21.66C2.82993 21.66 2.72993 21.58 2.71993 21.54C2.70993 21.5 2.89993 21.54 2.98993 21.54C2.89993 21.48 2.98993 21.46 2.81993 21.38C2.81993 21.38 2.92993 21.38 2.98993 21.38C3.04993 21.38 3.04993 21.16 2.80993 21.12C2.66993 20.89 3.04993 20.87 3.02993 20.68H3.09993C3.04993 20.56 3.09993 20.47 3.00993 20.34C3.08376 20.3105 3.1661 20.3105 3.23993 20.34C3.23993 20.25 3.13993 20.21 3.23993 20.16C3.32993 20.28 3.35993 20.16 3.29993 20.27C3.39993 20.2 3.50993 20.27 3.36993 20.06C3.52993 20.16 3.60993 20.06 3.57993 20.06H3.43993C3.43993 20 3.43993 19.97 3.49993 19.93L3.71993 20.05C4.06993 19.99 3.37993 19.53 3.89993 19.59C3.75993 19.48 3.74993 19.64 3.57993 19.52C3.63993 19.45 4.00993 19.52 4.01993 19.52C4.18993 19.46 3.72993 19.27 3.85993 19.19C3.76993 19.19 3.54993 19.09 3.50993 18.97C3.46993 18.85 3.88993 18.97 3.93993 19.1C3.98993 19.23 3.93993 19.1 3.87993 19.1C3.89019 19.129 3.90912 19.1542 3.93417 19.1721C3.95921 19.19 3.98916 19.1997 4.01993 19.2H3.93993C4.04993 19.2 4.07993 19.08 4.20993 19.2C4.22306 19.1862 4.23335 19.17 4.24021 19.1522C4.24706 19.1344 4.25035 19.1155 4.24989 19.0965C4.24942 19.0774 4.24522 19.0587 4.2375 19.0413C4.22979 19.0238 4.21872 19.0081 4.20493 18.995C4.19114 18.9819 4.1749 18.9716 4.15714 18.9647C4.13937 18.9579 4.12043 18.9546 4.1014 18.955C4.08236 18.9555 4.0636 18.9597 4.04619 18.9674C4.02878 18.9751 4.01306 18.9862 3.99993 19C4.15993 18.94 4.06993 18.84 4.19993 18.76C4.19993 18.76 4.03993 18.76 4.04993 18.76C4.21993 18.64 3.92993 18.62 3.92993 18.5C3.92993 18.38 4.21993 18.65 4.15993 18.5C4.27993 18.5 4.38993 18.58 4.43993 18.64C4.32993 18.47 4.61993 18.49 4.67993 18.45V18.53C4.67203 18.5145 4.66791 18.4974 4.66791 18.48C4.66791 18.4626 4.67203 18.4455 4.67993 18.43H4.49993C4.49993 18.43 4.54993 18.43 4.61993 18.43C4.52993 18.35 4.33993 18.34 4.21993 18.21C4.31993 18.21 4.21993 18.05 4.39993 18.13C4.27993 18.23 4.62993 18.21 4.61993 18.33C4.60993 18.45 4.61993 18.27 4.61993 18.25C4.85993 18.25 4.38993 18.09 4.44993 17.97C4.56993 18.03 4.69993 18.03 4.67993 17.97C4.65993 17.91 4.45993 17.91 4.38993 17.83C4.51993 17.83 4.38993 17.71 4.38993 17.67H4.31993C4.19993 17.6 4.23993 17.57 4.21993 17.5C4.19993 17.43 4.21993 17.57 4.31993 17.57C4.12993 17.42 4.59993 17.57 4.48993 17.37C4.58993 17.37 4.71993 17.47 4.78993 17.45C4.67993 17.29 5.00993 17.45 4.91993 17.26C4.82993 17.07 4.77993 17.26 4.64993 17.1V17.32L4.45993 17.11C4.45993 17.16 4.51993 17.26 4.45993 17.28C4.39993 17.3 4.37993 17.2 4.23993 17.16C4.50993 17.16 4.14993 16.96 4.34993 16.95L4.75993 17.13C4.98993 17.08 4.63993 16.82 4.75993 16.71H4.66993C4.50993 16.62 4.66993 16.6 4.66993 16.52C4.76131 16.5602 4.86012 16.5806 4.95993 16.58C4.85993 16.58 5.01993 16.47 4.74993 16.34H4.95993C5.08993 16.24 4.62993 16.03 4.72993 15.93C4.85993 16.02 4.97993 16.01 5.05993 16.14C5.05993 16.14 5.11993 16.07 5.05993 16.03C5.15993 16.03 4.91993 15.84 5.05993 15.85C5.05993 15.85 4.86993 15.75 4.89993 15.71H4.95993C4.89993 15.71 4.89993 15.6 4.72993 15.58C5.20993 15.58 4.84993 15.21 5.25993 15.26C5.24434 15.1505 5.24434 15.0394 5.25993 14.93C5.25993 14.93 5.32993 14.93 5.25993 14.93C5.42993 14.87 4.88993 14.7 5.08993 14.63C5.28993 14.56 5.17993 14.75 5.27993 14.74C5.73993 14.91 5.27993 14.56 5.57993 14.59C5.75993 14.59 5.47993 14.36 5.57993 14.26C5.60294 14.2655 5.62692 14.2655 5.64993 14.26C5.63924 14.1729 5.64604 14.0845 5.66993 14C5.83993 14.11 5.74993 14.09 5.92993 14.14C5.92993 14.09 5.63993 14.04 5.62993 13.92H5.85993C5.88824 13.9327 5.91891 13.9392 5.94993 13.9392C5.98095 13.9392 6.01162 13.9327 6.03993 13.92H5.99993V14C6.25993 14.06 5.99993 13.89 6.09993 13.86L6.19993 13.91C6.39993 13.85 6.30993 13.79 6.32993 13.69H6.45993C6.5035 13.7724 6.53707 13.8597 6.55993 13.95V13.8C6.55993 13.8 6.64993 13.8 6.63993 13.88C6.74993 13.78 6.63993 13.81 6.63993 13.72C6.76993 13.85 7.03993 13.72 7.02993 13.94C7.09993 13.84 6.90993 13.82 7.02993 13.78C7.02993 14.04 7.20993 13.78 7.30993 13.93C7.22993 14.05 7.13993 13.93 7.22993 14.1C7.36993 13.9 7.43993 14.2 7.53993 14.21C7.54823 14.1908 7.56234 14.1747 7.58028 14.1639C7.59822 14.1531 7.61908 14.1483 7.63993 14.15C7.63993 14.15 7.56993 14.21 7.53993 14.21C7.53801 14.2433 7.53801 14.2767 7.53993 14.31C7.53993 14.31 7.61993 14.2 7.65993 14.15C7.69993 14.1 7.85993 14.24 7.98993 14.26C7.98993 14.26 8.23993 14.5 8.33993 14.66C8.46993 14.52 8.59993 14.66 8.71993 14.66C8.70117 14.6946 8.67385 14.7238 8.64058 14.7448C8.60732 14.7658 8.56922 14.7779 8.52993 14.78L8.62993 14.84C8.65647 14.8219 8.68783 14.8123 8.71993 14.8123C8.75203 14.8123 8.78339 14.8219 8.80993 14.84L8.79993 15C8.92993 15.09 9.14993 15.06 9.25993 15.26C9.31993 15.19 9.33993 15.05 9.41993 14.98L9.49993 15C9.47737 15.0275 9.44519 15.0454 9.40993 15.05C9.40993 15.05 9.49993 15.05 9.50993 15.05H9.36993C9.36993 15.14 9.46993 15 9.51993 15.05C9.56993 15.1 9.51993 15.14 9.45993 15.19C9.39993 15.24 9.45993 15.12 9.38993 15.13C9.42251 15.164 9.446 15.2056 9.45824 15.251C9.47047 15.2965 9.47105 15.3443 9.45993 15.39C9.45993 15.34 9.54993 15.29 9.59993 15.32C9.64993 15.35 9.59993 15.44 9.59993 15.54C9.59993 15.64 9.70993 15.63 9.79993 15.54C9.88993 15.45 9.79993 15.63 9.79993 15.67C9.79993 15.71 10.1099 15.91 10.1399 15.73C10.4499 15.8 10.5199 16.17 10.7699 16.3C10.9399 16.36 11.0699 16.51 11.2299 16.51C11.2503 16.5336 11.2616 16.5638 11.2616 16.595C11.2616 16.6262 11.2503 16.6564 11.2299 16.68C11.3499 16.74 11.3899 16.68 11.4799 16.88C11.3299 16.88 11.4799 16.97 11.3399 16.88C11.4399 17.01 11.4199 17.1 11.6399 17.11C11.5099 17.17 11.6399 17.31 11.7199 17.33V17.19C11.7915 17.2286 11.8558 17.2793 11.9099 17.34L11.7699 17.45C11.9099 17.83 12.4699 17.54 12.4799 17.97C12.6199 17.97 12.3699 17.79 12.4799 17.73C12.5899 17.84 12.5899 18.13 12.6299 18.16C12.7599 18.36 12.9399 18.07 13.0999 18.24C13.1004 18.2123 13.1072 18.1851 13.1199 18.1605C13.1325 18.136 13.1507 18.1146 13.1729 18.0982C13.1952 18.0817 13.2209 18.0706 13.2481 18.0657C13.2754 18.0608 13.3034 18.0623 13.3299 18.07C13.4499 18.17 13.3299 18.38 13.2599 18.37V18.31C13.2599 18.31 13.1399 18.31 13.1599 18.38H13.2099C13.2099 18.47 13.4299 18.58 13.3399 18.64C13.4699 18.64 13.4299 18.58 13.3399 18.51C13.4699 18.69 13.6199 18.68 13.7899 18.81C13.7899 18.81 13.7899 18.7 13.7899 18.71C14.0399 18.91 13.9699 18.71 14.1599 18.71C14.3499 18.71 14.0399 18.89 14.2599 18.91C14.4799 18.93 14.2599 19.07 14.1599 19.09C14.3799 19.09 14.4699 19.31 14.5699 19.36H14.4599C14.516 19.3487 14.5738 19.3487 14.6299 19.36V19.23C14.6299 19.23 14.7299 19.28 14.7099 19.33C14.6899 19.38 14.7099 19.13 14.8899 19.07C15.0699 19.01 15.1399 19.07 15.1199 19.24C14.8899 19.11 15.1199 19.4 14.8799 19.36C14.9071 19.3564 14.9347 19.359 14.9607 19.3676C14.9867 19.3763 15.0104 19.3908 15.0299 19.41C15.2399 19.62 15.1899 19.28 15.4399 19.35C15.3799 19.43 15.4399 19.53 15.4999 19.52C15.3999 19.52 15.4999 19.36 15.5899 19.31C15.7399 19.41 15.7799 19.31 15.8599 19.31L15.7699 19.26C15.8199 19.18 15.8999 19.2 16.0099 19.19C16.1199 19.18 15.8999 19.19 15.9399 19.26C16.0799 19.13 16.1899 19.47 16.3799 19.39C16.4499 19.47 16.3799 19.56 16.3799 19.61C16.5899 19.5 16.5899 19.74 16.8099 19.61C16.7499 19.49 16.7399 19.52 16.8899 19.41L16.5499 19.48L16.7799 19.31C16.6799 19.31 16.5599 19.38 16.4999 19.36C16.6099 19.27 16.5899 19.3 16.5599 19.2C16.6799 19.38 16.8299 19.1 16.9799 19.2V19.5C17.2299 19.62 17.4199 19.38 17.7299 19.4H17.6199C17.6199 19.28 17.8099 19.4 17.9099 19.3C17.9099 19.4 17.9699 19.43 18.0299 19.48C18.0899 19.53 18.2599 19.48 18.2599 19.26C18.3178 19.3053 18.3818 19.3424 18.4499 19.37C18.8399 19.37 18.7499 19.07 18.9499 18.9C18.9499 19.04 19.1299 18.99 18.9999 19.2C19.0999 19.14 19.1699 19.06 19.1199 19.01C19.2199 19.01 19.1199 18.66 19.2599 18.61C19.3999 18.56 19.1399 18.48 19.1799 18.4C19.2199 18.32 19.2299 18.4 19.2299 18.4C19.2299 18.4 19.2299 18.25 19.0799 18.29C19.4399 18.16 19.2499 17.66 19.5799 17.56C19.6017 17.3879 19.6351 17.2175 19.6799 17.05C19.6799 17.05 19.7299 17.05 19.6799 17.05C19.8399 16.9 19.4599 16.83 19.6799 16.65C19.8999 16.47 19.6799 16.8 19.7999 16.75C20.1099 16.85 19.8599 16.47 20.0999 16.4C20.2499 16.34 20.0999 16.09 20.2099 15.91C20.1375 15.6994 20.1375 15.4706 20.2099 15.26C20.2899 15.37 20.2099 15.37 20.3599 15.39C20.5099 15.41 20.1599 15.33 20.1999 15.16C20.2899 15.16 20.3999 15.05 20.5299 15.1L20.4699 15.24C20.6599 15.24 20.5499 15.05 20.6199 14.99L20.6799 15.04C20.7699 14.8 20.5899 14.71 20.6799 14.48H20.6099C20.4999 14.26 20.7599 14.42 20.6999 14.22H20.8999C20.9292 14.1449 20.9626 14.0714 20.9999 14C21.0564 14.1674 21.0835 14.3433 21.0799 14.52C21.0799 14.43 21.2099 14.22 21.1499 14.13C21.0899 14.04 21.1499 14.24 21.1499 14.26C21.1079 14.1816 21.0859 14.094 21.0859 14.005C21.0859 13.916 21.1079 13.8284 21.1499 13.75C21.4799 13.95 21.4699 13.35 21.7999 13.37C21.7999 13 22.1699 12.8 22.3299 12.44C21.9999 12.44 22.3299 12.34 22.0899 12.22C22.0899 12.13 22.1399 12.1 22.1599 12.1L22.4499 11.93C22.5599 11.93 22.4499 12.04 22.5399 12.07C22.6499 11.9 22.6899 12.07 22.8299 11.97C22.7199 11.97 22.7199 11.83 22.8299 11.75L22.6299 11.83C22.6299 11.5 22.9699 11.72 22.9499 11.4L22.9999 11.52C22.9999 11.36 23.2399 11.02 23.0799 10.79C23.0799 10.79 23.2099 10.79 23.2099 10.85C23.3899 10.54 23.2899 10.02 23.5299 9.85L23.5899 9.91C23.5899 9.83 23.4999 9.75 23.5899 9.69C23.6799 9.63 23.6499 9.75 23.6599 9.69C23.6699 9.63 23.5999 9.48 23.6599 9.4L23.7199 9.5C23.8127 9.31815 23.8476 9.11226 23.8199 8.91C23.8199 8.7 23.7099 8.58 23.7199 8.41C23.9099 8.36 24.0899 7.87 24.0099 7.71L23.9999 7.68ZM16.1099 5.25H16.1699C16.2199 5.25 16.1699 5.31 16.1699 5.33L16.1099 5.25ZM9.10993 3.15H9.16993H9.10993Z" fill="#2D2D2D"/>
</svg>
