<svg width="25" height="25" viewBox="0 0 25 25" fill="none" xmlns="http://www.w3.org/2000/svg">
<path d="M0.54 24.81C0.54 24.81 0.73 24.89 0.72 24.81L0.5 24.73L0.54 24.81Z" fill="#7C7C7C"/>
<path d="M1.05995 24.75C0.921907 24.6181 0.75368 24.522 0.569946 24.47C0.681799 24.563 0.79864 24.6498 0.919946 24.73C0.919946 24.78 0.819946 24.73 0.739946 24.73C0.659946 24.73 0.669946 24.73 0.799946 24.84C0.929946 24.95 1.02995 24.84 0.909946 24.69C0.962767 24.7021 1.01338 24.7223 1.05995 24.75Z" fill="#7C7C7C"/>
<path d="M4.23999 19.18C4.23999 19.18 4.25999 19.2 4.23999 19.18V19.18Z" fill="#7C7C7C"/>
<path d="M2.83997 21.5H2.92997C2.85997 21.43 2.85997 21.48 2.83997 21.5Z" fill="#7C7C7C"/>
<path d="M0.699951 24.05L0.749951 24.11L0.699951 24.05Z" fill="#7C7C7C"/>
<path d="M2.64001 22.5L2.73001 22.55L2.64001 22.5Z" fill="#7C7C7C"/>
<path d="M2.36999 23.23C2.36999 23.23 2.19999 23.13 2.10999 23.09C2.18999 23.09 2.21999 23.16 2.22999 23.18L2.36999 23.23Z" fill="#7C7C7C"/>
<path d="M9.73999 1.45C9.73999 1.45 9.74999 1.44 9.73999 1.45V1.45Z" fill="#7C7C7C"/>
<path d="M4.77002 18.63C4.77002 18.63 4.78002 18.65 4.77002 18.63V18.63Z" fill="#7C7C7C"/>
<path d="M7.13998 12.52C6.93998 12.52 6.96998 12.32 6.72998 12.34C6.80998 12.36 6.99998 12.56 7.13998 12.52Z" fill="#7C7C7C"/>
<path d="M9.06006 3.34L9.25006 3.39C9.11006 3.34 9.09006 3.23 9.06006 3.34Z" fill="#7C7C7C"/>
<path d="M0.80999 24.1C0.80999 24.1 0.73999 24.1 0.73999 24.04L0.80999 24.1Z" fill="#7C7C7C"/>
<path d="M3.72998 15.7L3.79998 15.61C3.76639 15.6304 3.74147 15.6624 3.72998 15.7Z" fill="#7C7C7C"/>
<path d="M7.25999 7.74C7.25999 7.74 7.23999 7.72 7.25999 7.74V7.74Z" fill="#7C7C7C"/>
<path d="M9.04994 2.56001C9.04994 2.65001 9.28994 2.70001 9.42994 2.78001C9.56994 2.86001 9.21994 2.78001 9.06994 2.78001C9.06994 2.88001 9.31994 3.03001 9.28994 3.08001C9.25994 3.13001 9.22994 3.08001 9.17994 3.08001C9.34994 3.24001 9.09994 3.30001 9.31994 3.49001H9.24994L9.60994 3.62001C9.60994 3.62001 9.73994 3.77001 9.60994 3.71001C9.60994 3.71001 9.55994 3.71001 9.50994 3.62001L9.56994 3.70001C9.30994 3.64001 9.50994 3.60001 9.32994 3.53001C9.37994 3.65001 9.52994 3.83001 9.43994 3.87001C9.19994 3.78001 9.43994 3.68001 9.17994 3.68001L9.30994 3.62001C8.90994 3.54001 9.35994 3.62001 8.92994 3.47001C8.80994 3.58001 8.98994 3.67001 8.86994 3.77001C8.98994 3.86001 9.06994 3.84001 9.17994 3.93001C9.33994 4.21001 8.52994 3.83001 8.78994 4.10001C8.92994 4.20001 9.21994 4.34001 9.01994 4.37001L8.76994 4.23001C8.68994 4.34001 9.11994 4.46001 8.88994 4.52001C8.65994 4.58001 8.83994 4.38001 8.79994 4.39001C8.55994 4.39001 8.92994 4.51001 8.89994 4.58001L8.65994 4.49001C8.65994 4.64001 8.74994 4.87001 8.72994 5.03001C8.65994 5.03001 8.59994 4.94001 8.50994 4.95001C8.50994 5.18001 8.30994 5.34001 8.09994 5.47001L8.26994 5.62001C8.26994 5.62001 8.15994 5.62001 8.12994 5.62001C8.09994 5.62001 8.25994 5.68001 8.32994 5.74001C8.39994 5.80001 8.18994 5.74001 8.13994 5.74001C8.25994 5.94001 8.35994 6.25001 8.07994 6.29001V6.24001C7.95994 6.31001 8.44994 6.53001 8.21994 6.55001C8.03994 6.74001 8.12994 7.06001 7.74994 7.11001C8.02994 7.26001 7.51994 7.27001 7.92994 7.46001C7.66994 7.46001 7.60994 7.46001 7.39994 7.56001C7.39994 7.56001 7.62994 7.74001 7.63994 7.82001L7.29994 7.52001L7.48994 7.69001L7.21994 7.63001V7.71001C7.21994 7.71001 7.32994 7.71001 7.38994 7.71001C7.44994 7.71001 7.15994 7.86001 7.04994 7.82001L7.13994 8.10001C7.08607 8.07814 7.0381 8.04388 6.99994 8.00001C7.16994 8.20001 6.75994 7.93001 6.91994 8.11001C6.98008 8.12856 7.03731 8.15549 7.08994 8.19001C7.0619 8.18705 7.03357 8.19112 7.00749 8.20184C6.98141 8.21256 6.95841 8.2296 6.94056 8.25142C6.9227 8.27324 6.91056 8.29916 6.90521 8.32685C6.89987 8.35453 6.90149 8.38311 6.90994 8.41001L6.79994 8.31001C6.69994 8.45001 6.72994 8.67001 6.65994 8.84001C6.72491 8.83992 6.78909 8.85422 6.84788 8.88189C6.90667 8.90955 6.9586 8.94989 6.99994 9.00001L6.75994 8.92001C6.89994 9.00001 6.87994 8.90001 6.99994 9.00001C6.99994 9.06001 6.72994 8.94001 6.66994 8.87001V8.98001C6.60463 8.95437 6.54115 8.9243 6.47994 8.89001C6.60994 8.98001 6.19994 8.89001 6.47994 9.07001H6.40994C6.32994 9.24001 6.40994 9.35001 6.32994 9.50001C6.51994 9.58001 6.45994 9.62001 6.59994 9.73001C6.48994 9.80001 6.28994 9.85001 6.25994 9.99001C6.22994 10.13 6.40994 10.08 6.50994 10.17C6.32994 10.1 6.29994 10.23 6.19994 10.11C6.14565 10.2585 6.14565 10.4215 6.19994 10.57C6.27994 10.57 6.31994 10.57 6.36994 10.57C6.41994 10.57 6.26994 10.62 6.17994 10.57C6.35994 10.9 5.45994 10.85 5.75994 11.17L5.87994 11.43C5.81994 11.5 5.76994 11.32 5.63994 11.34C5.84994 11.65 5.46994 11.62 5.63994 11.86C5.06994 11.76 5.49994 12.3 5.09994 12.32H5.22994C5.32994 12.41 5.12994 12.32 5.08994 12.32C5.04994 12.32 5.21994 12.32 5.27994 12.38C5.27994 12.79 4.78994 13.04 4.52994 13.38C4.43994 13.5 5.13994 13.72 4.76994 13.77L4.55994 13.63C4.72994 14.01 4.32994 14.17 4.44994 14.53C4.44994 14.53 4.32994 14.47 4.34994 14.44C4.15994 14.44 4.24994 14.64 4.34994 14.7C4.34994 14.7 4.21994 14.7 4.13994 14.7C4.05994 14.7 4.28994 14.92 4.13994 14.88C3.98994 14.84 4.13994 14.88 4.07994 14.83C4.01994 14.78 3.98994 14.99 4.19994 15.04C4.05994 15.1 4.19994 15.26 4.05994 15.29C4.24994 15.43 3.87994 15.42 4.17994 15.56C3.86994 15.42 3.84994 15.63 3.97994 15.75C3.88994 15.69 3.84994 15.75 3.72994 15.69C3.60994 15.63 3.72994 15.85 3.90994 15.9C3.47994 15.9 4.09994 16.29 3.58994 16.17C3.66354 16.4095 3.69732 16.6595 3.68994 16.91C3.37994 16.78 3.74994 16.69 3.41994 16.56C3.41994 16.8 3.69994 17.01 3.54994 17.16C3.39994 17.31 3.41994 17.08 3.36994 17.04C3.42994 17.27 3.19994 17.38 3.29994 17.61C3.26979 17.5947 3.24529 17.5702 3.22994 17.54C3.22994 17.54 3.15994 17.59 3.29994 17.65V17.6C3.52994 17.6 3.67994 17.91 3.78994 17.96C3.39994 17.73 3.61994 18.07 3.13994 17.77C3.18165 17.83 3.24109 17.8755 3.30994 17.9C3.30994 17.9 3.20994 17.9 3.11994 17.83C3.11994 17.97 3.31994 17.99 3.26994 18.09C3.21994 18.19 3.17994 18.03 3.10994 17.99C3.21994 18.1 3.32994 18.21 3.23994 18.27C3.14994 18.33 3.13994 18.27 3.14994 18.21C3.14994 18.37 3.39994 18.61 3.20994 18.72C2.92994 18.55 3.07994 18.72 2.81994 18.64V18.76H2.99994C2.99994 18.84 3.12994 18.98 2.99994 19.02L2.91994 18.91V19.08H3.04994C3.14994 19.21 3.37994 19.21 3.26994 19.28C3.15994 19.35 3.26994 19.35 3.05994 19.33H2.99994C3.06994 19.4 3.13994 19.48 2.99994 19.51C2.85994 19.54 2.71994 19.38 2.65994 19.36C2.85994 19.49 2.65994 19.57 2.85994 19.71C2.79092 19.6679 2.71705 19.6343 2.63994 19.61L2.80994 19.72C2.73626 19.7282 2.66204 19.7105 2.59994 19.67C2.51994 19.76 2.93994 19.77 2.74994 19.84C2.73004 19.8427 2.70985 19.8427 2.68994 19.84C2.56994 19.94 2.68994 20.13 2.56994 20.21C2.28994 20.14 2.56994 20.08 2.30994 20.03C2.30994 20.22 2.46994 20.51 2.30994 20.65C2.65994 20.83 2.06994 20.7 2.20994 20.85C2.20994 20.85 2.01994 20.74 2.05994 20.77C2.09994 20.8 2.05994 21.03 2.05994 21.25L1.96994 21.19C1.85994 21.19 1.84994 21.34 1.77994 21.4C1.70994 21.46 1.82994 21.49 1.97994 21.53C1.34994 21.53 2.08994 22.07 1.55994 22.08C1.55994 22.08 1.49994 21.99 1.48994 22V22.21C1.57232 22.2279 1.65756 22.2279 1.73994 22.21C1.81994 22.27 1.87994 22.35 1.85994 22.39C1.77994 22.27 1.59994 22.29 1.49994 22.28L1.64994 22.35C1.32994 22.35 1.96994 22.5 1.72994 22.53H1.63994C1.63994 22.6 1.75994 22.68 1.71994 22.72C1.67994 22.76 1.64994 22.64 1.49994 22.57C1.34994 22.5 1.79994 22.85 1.58994 22.83C1.58994 22.83 1.58994 22.74 1.51994 22.69C1.27994 22.69 1.32994 22.69 1.27994 22.69L1.13994 22.76H1.20994C1.65994 23.05 1.20994 22.97 1.48994 23.21C1.23994 22.98 1.32994 23.12 1.11994 23.03C0.909941 22.94 0.969941 23.03 0.909941 23.03C1.05994 23.16 0.739941 23.03 0.909941 23.25C0.839941 23.25 0.909941 23.3 0.709941 23.25C0.709941 23.34 0.839941 23.25 0.919941 23.32C1.10994 23.52 0.539941 23.46 0.789941 23.74C0.859941 23.93 1.07994 24.05 1.13994 24.22C1.12718 24.1453 1.13765 24.0685 1.16994 24C1.03994 24 1.03994 24.08 1.08994 24.18C1.03351 24.1425 0.967658 24.1217 0.899941 24.12C0.899941 24.18 1.12994 24.25 0.999941 24.28L0.749941 24.12C0.749941 24.2 0.889941 24.31 0.929941 24.4C0.799941 24.4 0.759941 24.29 0.689941 24.24C0.69927 24.3055 0.722926 24.3681 0.759223 24.4234C0.795521 24.4788 0.843567 24.5254 0.899941 24.56H0.989941C0.989941 24.56 0.819941 24.51 0.799941 24.48C0.779941 24.45 0.899941 24.42 0.969941 24.48V24.55C1.38994 24.66 0.969941 24.34 1.03994 24.26L1.30994 24.42L1.10994 24.23C1.19994 24.23 1.35994 24.29 1.38994 24.35C1.41994 24.41 1.30994 24.26 1.48994 24.27C1.49779 24.2664 1.50631 24.2646 1.51494 24.2646C1.52357 24.2646 1.5321 24.2664 1.53994 24.27L1.47994 24.17C1.53994 24.17 1.68994 24.25 1.62994 24.27C1.83994 24.27 1.48994 24 1.71994 24.04C1.71994 23.85 1.50994 23.94 1.30994 23.72L1.86994 23.86L1.65994 23.75C1.65994 23.75 1.70994 23.75 1.78994 23.75C1.66994 23.63 1.68994 23.75 1.56994 23.63C1.79994 23.63 1.56994 23.38 1.90994 23.5C1.75994 23.4 1.75994 23.5 1.67994 23.39C2.04994 23.52 1.67994 23.27 1.84994 23.27C2.01994 23.27 1.90994 23.4 2.09994 23.39C1.79994 23.22 2.22994 23.29 2.18994 23.2C1.93994 23.09 2.18994 23.03 2.09994 22.89C2.17994 22.89 2.31994 22.76 2.44994 22.71C2.19994 22.58 2.28994 22.51 2.25994 22.42C2.3637 22.4448 2.45561 22.5049 2.51994 22.59V22.52C2.43994 22.47 2.40994 22.43 2.39994 22.38L2.57994 22.47C2.57994 22.38 2.42994 22.2 2.57994 22.14C2.40994 22.06 2.04994 22.03 1.97994 21.86C2.07994 21.86 2.24994 21.96 2.26994 22.01C2.28994 22.06 2.20994 21.94 2.26994 21.93L2.40994 22.05C2.49994 22.05 2.28994 21.97 2.31994 21.93C2.34994 21.89 2.42994 21.93 2.53994 21.99C2.64994 22.05 2.45994 21.99 2.53994 22.04C2.62406 22.0103 2.71583 22.0103 2.79994 22.04C2.71994 22.04 2.61994 21.96 2.60994 21.92C2.59994 21.88 2.78994 21.92 2.87994 21.92C2.78994 21.86 2.87994 21.84 2.70994 21.76C2.70994 21.76 2.81994 21.76 2.87994 21.76C2.93994 21.76 2.93994 21.54 2.69994 21.5C2.55994 21.27 2.93994 21.24 2.91994 21.06H2.98994C2.93994 20.94 2.98994 20.84 2.89994 20.72C2.80994 20.6 3.04994 20.72 3.12994 20.72C3.20994 20.72 3.02994 20.59 3.12994 20.54C3.21994 20.66 3.24994 20.54 3.18994 20.64C3.28994 20.58 3.39994 20.64 3.25994 20.44C3.41994 20.54 3.49994 20.44 3.46994 20.44H3.43994C3.43994 20.38 3.43994 20.35 3.49994 20.31L3.71994 20.43C4.06994 20.37 3.37994 19.91 3.89994 19.97C3.75994 19.85 3.74994 19.97 3.57994 19.9C3.63994 19.83 4.00994 19.9 4.01994 19.9C4.18994 19.84 3.72994 19.65 3.85994 19.57C3.76994 19.57 3.54994 19.47 3.50994 19.35C3.46994 19.23 3.88994 19.35 3.93994 19.47C3.98994 19.59 3.93994 19.47 3.87994 19.47C3.8902 19.499 3.90913 19.5242 3.93418 19.5421C3.95922 19.56 3.98917 19.5697 4.01994 19.57H3.93994C4.04994 19.57 4.07994 19.45 4.20994 19.57C4.19778 19.557 4.18307 19.5466 4.16673 19.5395C4.15039 19.5324 4.13276 19.5287 4.11494 19.5287C4.09712 19.5287 4.0795 19.5324 4.06316 19.5395C4.04681 19.5466 4.0321 19.557 4.01994 19.57C4.18994 19.51 4.08994 19.4 4.21994 19.33C4.21994 19.33 4.05994 19.33 4.06994 19.33C4.23994 19 3.99994 19 3.99994 18.9C3.99994 18.8 4.28994 19.05 4.22994 18.9C4.34994 18.9 4.45994 18.98 4.50994 19.03C4.39994 18.87 4.68994 18.89 4.74994 18.85V18.93C4.74204 18.9145 4.73792 18.8974 4.73792 18.88C4.73792 18.8626 4.74204 18.8455 4.74994 18.83H4.56994C4.56994 18.83 4.61994 18.83 4.68994 18.83C4.59994 18.75 4.40994 18.74 4.28994 18.61C4.38994 18.61 4.28994 18.45 4.46994 18.53C4.34994 18.63 4.69994 18.61 4.68994 18.73C4.68994 18.73 4.68994 18.67 4.68994 18.65C4.92994 18.65 4.45994 18.49 4.51994 18.37C4.63994 18.43 4.76994 18.43 4.74994 18.37C4.72994 18.31 4.53994 18.31 4.45994 18.22C4.58994 18.22 4.45994 18.11 4.45994 18.07H4.38994C4.26994 18 4.30994 17.97 4.28994 17.89C4.26994 17.81 4.28994 17.97 4.38994 17.97C4.19994 17.82 4.66994 17.92 4.55994 17.77C4.65994 17.77 4.78994 17.86 4.85994 17.85C4.74994 17.69 5.07994 17.85 4.98994 17.66C4.89994 17.47 4.84994 17.66 4.71994 17.5V17.72L4.52994 17.51C4.52994 17.56 4.58994 17.66 4.52994 17.68C4.46994 17.7 4.44994 17.59 4.30994 17.56C4.57994 17.56 4.21994 17.36 4.41994 17.35L4.82994 17.52C5.05994 17.52 4.70994 17.22 4.82994 17.1H4.73994C4.57994 17.01 4.73994 16.99 4.73994 16.91C4.83132 16.9502 4.93013 16.9706 5.02994 16.97C4.92994 16.97 5.08994 16.86 4.81994 16.73H5.02994C5.15994 16.63 4.69994 16.42 4.79994 16.31C4.92994 16.41 5.04994 16.4 5.12994 16.52C5.12994 16.52 5.18994 16.46 5.12994 16.42C5.22994 16.42 4.98994 16.23 5.12994 16.24C5.12994 16.24 4.93994 16.14 4.96994 16.09H5.02994C4.96994 16.09 4.96994 15.98 4.79994 15.96C5.27994 16.01 4.91994 15.59 5.32994 15.63C5.31476 15.5239 5.31476 15.4161 5.32994 15.31C5.32994 15.31 5.39994 15.31 5.32994 15.31C5.49994 15.25 4.95994 15.08 5.15994 15.01C5.35994 14.94 5.24994 15.13 5.34994 15.12C5.80994 15.29 5.34994 14.94 5.64994 14.97C5.82994 14.97 5.54994 14.74 5.64994 14.64H5.71994C5.64976 14.5824 5.59222 14.5109 5.55092 14.43C5.50963 14.3492 5.48546 14.2606 5.47994 14.17C5.64994 14.28 5.55994 14.26 5.73994 14.31C5.73994 14.25 5.44994 14.21 5.43994 14.09C5.57544 14.0648 5.71444 14.0648 5.84994 14.09V14.18C6.10994 14.24 5.84994 14.07 5.94994 14.04H6.04994C6.04994 13.89 5.79994 13.78 5.87994 13.64H5.79994C5.55994 13.45 5.96994 13.64 5.79994 13.48L6.07994 13.57C5.99354 13.4439 5.92616 13.3057 5.87994 13.16C6.01182 13.2775 6.12333 13.4161 6.20994 13.57C6.23128 13.5238 6.23596 13.4717 6.2232 13.4225C6.21044 13.3733 6.18102 13.33 6.13994 13.3C6.13994 13.3 6.20994 13.39 6.13994 13.39C5.94994 13.24 5.87994 13.11 5.92994 13.01C6.44994 13.25 6.16994 12.8 6.61994 12.9C6.49994 12.63 6.84994 12.57 6.90994 12.35C6.45994 12.25 6.90994 12.28 6.48994 12.12C6.48994 12.06 6.48994 12.04 6.48994 12.05H6.79994C6.93994 12.05 6.87994 12.13 6.97994 12.17C7.07994 12.21 7.16994 12.17 7.31994 12.17C7.15994 12.12 7.10994 12.04 7.19994 12.01H7.20994C7.03994 11.77 7.61994 12.01 7.45994 11.78L7.56994 11.89C7.51994 11.78 7.68994 11.6 7.37994 11.38C7.43994 11.38 7.55994 11.38 7.57994 11.47C7.70994 11.3 7.38994 10.9 7.65994 10.85L7.75994 10.9C7.75994 10.9 7.58994 10.76 7.75994 10.76C7.92994 10.76 7.85994 10.82 7.86994 10.81C7.87994 10.8 7.72994 10.64 7.79994 10.62L7.89994 10.71C8.11994 10.58 7.73994 10.31 7.72994 10.13C7.81169 10.1784 7.90494 10.2039 7.99994 10.2039C8.09494 10.2039 8.18819 10.1784 8.26994 10.13C8.39994 9.94001 8.16994 9.67001 8.12994 9.42001C8.50994 9.42001 8.43994 9.07001 8.70994 8.95001C8.63277 8.9991 8.53981 9.01697 8.44994 9.00001C8.52994 9.00001 8.28994 8.79001 8.56994 8.91001C8.85994 8.99001 8.82994 8.91001 8.86994 8.80001L8.50994 8.64001C9.11994 8.64001 8.50994 8.05001 9.03994 8.14001C8.99994 8.11001 8.99994 8.05001 8.89994 8.00001L9.09994 8.08001C9.15039 8.0383 9.19158 7.98651 9.22085 7.92796C9.25012 7.86941 9.26685 7.80539 9.26994 7.74001L9.39994 7.83001C9.39994 7.75001 8.87994 7.49001 8.89994 7.40001L9.19994 7.50001C9.25994 7.34001 9.58994 7.29001 9.38994 7.02001C9.38994 7.02001 9.50994 7.08001 9.50994 7.11001C9.50994 7.14001 9.82994 6.91001 9.41994 6.77001C9.67994 6.88001 9.50994 6.62001 9.41994 6.49001L9.60994 6.58001C9.38994 6.41001 9.31994 6.38001 9.29994 6.25001C9.27994 6.12001 9.45994 6.25001 9.39994 6.25001C9.52994 6.25001 9.23994 6.11001 9.39994 6.06001L9.50994 6.15001C9.55994 6.07001 9.50994 6.05001 9.35994 5.95001C9.20994 5.85001 9.47994 5.82001 9.65994 5.88001C9.54994 5.82001 9.42994 5.72001 9.49994 5.69001C9.544 5.70556 9.58472 5.72931 9.61994 5.76001C9.80994 5.68001 9.47994 5.47001 9.70994 5.46001H9.82994C9.77994 5.56001 9.72994 5.65001 9.71994 5.63001C9.89994 5.71001 9.96994 5.63001 10.1799 5.80001C10.0799 5.68001 9.83994 5.44001 9.95994 5.39001H9.99994C9.99994 5.39001 9.99994 5.39001 9.99994 5.32001C10.0295 5.32722 10.0604 5.32722 10.0899 5.32001C10.2399 5.32001 10.2099 5.25001 10.2299 5.21001C10.0299 5.13001 10.0899 5.09001 9.90994 5.07001V5.18001C9.81994 5.11001 9.74994 5.04001 9.90994 5.04001L9.58994 5.00001C9.88994 5.06001 10.0799 5.00001 10.2599 5.06001C10.1999 4.88001 10.3199 4.72001 9.97994 4.48001C9.97994 4.48001 10.1099 4.48001 10.1699 4.48001C10.2299 4.48001 10.1699 4.54001 10.2299 4.58001C10.1699 4.46001 10.2899 4.34001 10.0399 4.22001C10.1899 4.22001 10.2499 4.37001 10.2599 4.22001L10.3299 4.27001C10.8499 4.18001 9.85994 3.58001 10.4999 3.52001C10.4639 3.52932 10.426 3.52932 10.3899 3.52001C10.7599 3.30001 10.4499 2.77001 10.9499 2.60001C11.0699 2.54001 10.9499 2.46001 10.8099 2.36001L11.0199 2.42001L10.8199 2.23001C10.6999 2.02001 11.4299 2.23001 11.1699 1.90001H11.0199C11.0699 1.85001 11.0199 1.68001 11.1699 1.75001C11.1699 1.75001 11.0299 1.67001 11.1199 1.68001H11.2299L11.0999 1.46001C11.2299 1.37001 11.5299 1.65001 11.6199 1.46001C11.7099 1.27001 11.3799 1.15001 11.2899 1.15001C11.1999 1.15001 11.1999 1.15001 11.0899 1.15001V1.07001C10.8164 0.89059 10.4971 0.793414 10.1699 0.790009L10.3299 0.970009H10.1599V0.880009C9.99994 0.880009 10.1099 0.950009 10.1599 1.02001C10.0976 1.00392 10.0323 1.00392 9.96994 1.02001L10.2399 1.24001C10.1299 1.11001 9.99994 1.00001 9.92994 1.00001C10.0499 1.11001 10.2299 1.08001 10.2899 1.19001C10.1299 1.19001 10.0099 1.11001 10.1199 1.19001C10.0544 1.17478 9.99509 1.13989 9.94994 1.09001C10.0299 1.18001 9.94994 1.24001 10.0999 1.34001C9.89994 1.34001 10.0999 1.52001 9.77994 1.39001C9.83994 1.44001 9.97994 1.58001 9.96994 1.63001C9.63994 1.39001 9.87994 1.79001 9.49994 1.63001C9.79994 1.83001 9.54994 1.91001 9.68994 2.10001C9.68994 2.10001 9.61994 2.05001 9.68994 2.05001C9.75994 2.05001 9.52994 2.05001 9.44994 2.05001C9.71994 2.17001 9.73994 2.29001 9.88994 2.41001C9.59994 2.41001 9.58994 2.23001 9.32994 2.15001C9.54994 2.24001 9.48994 2.37001 9.68994 2.42001C9.5781 2.44604 9.46178 2.44604 9.34994 2.42001C9.68994 2.57001 9.34994 2.50001 9.56994 2.63001C9.36994 2.63001 9.24994 2.52001 9.30994 2.63001C9.26413 2.63864 9.21696 2.63683 9.17194 2.62471C9.12693 2.61259 9.08523 2.59048 9.04994 2.56001ZM8.66994 5.18001C8.67386 5.15684 8.67386 5.13318 8.66994 5.11001C8.73994 5.11001 8.79994 5.17001 8.78994 5.18001C8.77994 5.19001 8.73994 5.14001 8.66994 5.14001V5.18001ZM10.1799 5.36001C10.1799 5.36001 10.1799 5.36001 10.1099 5.36001V5.28001L10.1799 5.36001Z" fill="#7C7C7C"/>
<path d="M7.25 7.50001L7.3 7.52001L7.26 7.48001L7.25 7.50001Z" fill="#7C7C7C"/>
<path d="M1.49001 22.64H1.39001C1.42275 22.6489 1.45728 22.6489 1.49001 22.64Z" fill="#7C7C7C"/>
<path d="M3.21995 17.56C3.21995 17.56 3.19995 17.52 3.21995 17.56V17.56Z" fill="#7C7C7C"/>
<path d="M2.99996 19.32V19.23C2.99996 19.23 2.90996 19.27 2.99996 19.32Z" fill="#7C7C7C"/>
<path d="M2.99995 19.16C2.94995 19.16 2.93995 19.16 2.99995 19.23C3.05995 19.3 2.99995 19.2 2.99995 19.16Z" fill="#7C7C7C"/>
<path d="M0.579956 24.37C0.579956 24.37 0.599956 24.38 0.579956 24.37V24.37Z" fill="#7C7C7C"/>
<path d="M0.63001 24.45V24.39C0.63001 24.39 0.58001 24.42 0.63001 24.45Z" fill="#7C7C7C"/>
<path d="M0.870047 23.8C0.870047 23.8 0.690047 23.8 0.710047 23.88H0.770047C0.670047 23.84 1.00005 23.88 0.870047 23.8Z" fill="#7C7C7C"/>
<path d="M2.00001 23.6L1.89001 23.69C1.98001 23.69 2.09001 23.69 2.08001 23.78C2.35001 23.73 1.88001 23.74 2.00001 23.6Z" fill="#7C7C7C"/>
<path d="M2.22998 23.3C2.22998 23.37 2.33998 23.3 2.37998 23.36C2.41998 23.42 2.30998 23.28 2.22998 23.3Z" fill="#7C7C7C"/>
<path d="M3.28003 20.79L3.45003 20.87C3.44003 20.81 3.38003 20.84 3.28003 20.79Z" fill="#7C7C7C"/>
<path d="M2.56005 19.93H2.43005L2.58005 20.02L2.56005 19.93Z" fill="#7C7C7C"/>
<path d="M3.94004 20.17L3.96004 20.2L3.92004 20.1L3.94004 20.17Z" fill="#7C7C7C"/>
<path d="M5.63003 15.93L5.41003 15.85C5.44003 15.9 5.68003 16 5.63003 15.93Z" fill="#7C7C7C"/>
<path d="M6.17003 14C6.29003 14 6.38003 14 6.28003 13.93C6.18003 13.86 6.15003 14 6.17003 14Z" fill="#7C7C7C"/>
<path d="M8.80005 8.70999L8.86005 8.77999L8.82005 8.67999L8.80005 8.70999Z" fill="#7C7C7C"/>
<path d="M4.11 15.1C4.18 15.1 4.32 15.1 4.29 15L4 14.93L4.11 15.1Z" fill="#7C7C7C"/>
<path d="M4.65995 14.6C4.58995 14.47 4.54995 14.22 4.32995 14.12C4.40995 14.37 4.32995 14.36 4.50995 14.59C4.50995 14.68 4.37995 14.71 4.28995 14.67C4.19995 14.63 4.20995 14.82 4.35995 14.89C4.56995 14.78 4.57995 14.72 4.52995 14.51C4.58995 14.51 4.62995 14.57 4.65995 14.6Z" fill="#7C7C7C"/>
<path d="M10.0801 16.37V16.32C10.0739 16.3361 10.0739 16.3539 10.0801 16.37Z" fill="#7C7C7C"/>
<path d="M13.16 18.94C13.1498 18.9327 13.1375 18.9287 13.125 18.9287C13.1124 18.9287 13.1002 18.9327 13.09 18.94C13.09 18.94 13.15 19 13.16 18.94Z" fill="#7C7C7C"/>
<path d="M13.66 19.53C13.66 19.53 13.64 19.54 13.66 19.53V19.53Z" fill="#7C7C7C"/>
<path d="M10.08 16.37V16.5C10.17 16.44 10.11 16.42 10.08 16.37Z" fill="#7C7C7C"/>
<path d="M5.31 13.58C5.28197 13.5996 5.26094 13.6276 5.25 13.66H5.31V13.58Z" fill="#7C7C7C"/>
<path d="M8.64995 15.46L8.56995 15.53L8.64995 15.46Z" fill="#7C7C7C"/>
<path d="M7.57996 14.91C7.57996 14.91 7.68996 14.74 7.73996 14.66C7.73996 14.73 7.65996 14.76 7.62996 14.76C7.61028 14.809 7.59359 14.859 7.57996 14.91Z" fill="#7C7C7C"/>
<path d="M9.33999 16.06C9.3367 16.0832 9.3367 16.1068 9.33999 16.13V16.06Z" fill="#7C7C7C"/>
<path d="M9.40002 2.94L9.42002 2.93L9.40002 2.81V2.94Z" fill="#7C7C7C"/>
<path d="M14.84 20.29C14.84 20.29 14.81 20.3 14.84 20.29V20.29Z" fill="#7C7C7C"/>
<path d="M22.63 12.8C22.4 12.8 22.51 12.51 22.24 12.58C22.32 12.6 22.45 12.89 22.63 12.8Z" fill="#7C7C7C"/>
<path d="M18 20.42C18.0017 20.39 18.0017 20.36 18 20.33C17.9914 20.3594 17.9914 20.3906 18 20.42Z" fill="#7C7C7C"/>
<path d="M19.3199 19.46C19.3199 19.46 19.3799 19.46 19.3799 19.36C19.3799 19.36 19.3699 19.43 19.3199 19.46Z" fill="#7C7C7C"/>
<path d="M13.47 5.00001C13.4919 4.93628 13.5221 4.87575 13.56 4.82001C13.47 4.92001 13.33 4.86001 13.47 5.00001Z" fill="#7C7C7C"/>
<path d="M5.32994 13.7C5.32994 13.7 5.32994 13.62 5.32994 13.6C5.32101 13.6327 5.32101 13.6673 5.32994 13.7Z" fill="#7C7C7C"/>
<path d="M18 18C18.061 17.9957 18.1198 17.9749 18.17 17.94L18 18Z" fill="#7C7C7C"/>
<path d="M12.4399 4.60001C12.5599 4.68001 12.6399 4.40001 12.7499 4.28001C12.8599 4.16001 12.7499 4.50001 12.6799 4.65001C12.8099 4.65001 13.0199 4.48001 13.0899 4.54001C13.1599 4.60001 13.0899 4.61001 13.0199 4.64001C13.2399 4.54001 13.3099 4.84001 13.5899 4.73001V4.79001C13.6542 4.68105 13.7314 4.58031 13.8199 4.49001C13.8799 4.49001 14.0399 4.49001 13.9399 4.60001C13.9399 4.60001 13.8599 4.60001 13.8099 4.65001H13.9199C13.7899 4.89001 13.7799 4.65001 13.6499 4.79001C13.8199 4.79001 14.0899 4.79001 14.1299 4.92001C13.9699 5.12001 13.8699 4.80001 13.8299 5.07001L13.7699 4.88001C13.5999 5.26001 13.7099 4.79001 13.5099 5.19001C13.6199 5.39001 13.7799 5.26001 13.8899 5.47001C14.0199 5.41001 14.0199 5.31001 14.1599 5.25001C14.5799 5.31001 13.8799 5.88001 14.2899 5.82001C14.4599 5.75001 14.7099 5.55001 14.6999 5.82001L14.4499 5.97001C14.5799 6.16001 14.8499 5.79001 14.8599 6.10001C14.7499 6.10001 14.6699 6.02001 14.6699 6.10001C14.5999 6.37001 14.8599 6.10001 14.9399 6.17001L14.7599 6.36001C14.9599 6.52001 15.2699 6.61001 15.4899 6.80001C15.4199 6.80001 15.3299 6.80001 15.3099 6.95001C15.6209 7.20274 15.8333 7.55667 15.9099 7.95001H16.1699C16.1699 7.95001 16.1699 8.06001 16.0799 8.06001C16.0799 8.22001 16.1799 7.97001 16.2899 7.96001C16.3999 7.95001 16.2899 8.13001 16.1899 8.13001C16.4999 8.20001 16.9699 8.37001 17.0199 8.72001H16.9299C17.0399 8.93001 17.4099 8.53001 17.4299 8.81001H17.3699C17.6899 9.18001 18.2199 9.29001 18.4599 9.74001C18.6299 9.49001 18.9099 10.05 19.0599 9.63001C19.2899 9.92001 19.1899 9.97001 19.6099 10.19C19.7199 10.19 19.7999 9.92001 19.9399 9.88001V10L20.1299 9.76001L20.2399 10.03L20.3699 9.96001C20.3356 9.95071 20.3057 9.92951 20.2856 9.90021C20.2654 9.8709 20.2563 9.83539 20.2599 9.80001C20.4399 9.68001 20.7499 9.91001 20.7799 10.03L21.1999 9.73001C21.1999 9.82001 21.1399 9.87001 21.0899 9.94001C21.2799 9.66001 21.1999 10.17 21.3699 9.94001C21.3699 9.94001 21.3699 9.80001 21.3699 9.75001C21.4501 9.78279 21.5398 9.78279 21.6199 9.75001C21.6369 9.75018 21.6533 9.74419 21.6662 9.73316C21.6791 9.72212 21.6875 9.70679 21.6899 9.69001V9.85001C21.6899 9.85001 21.6899 9.85001 21.7399 9.85001C21.7899 9.85001 21.8099 9.76001 21.8399 9.75001C21.8838 9.57193 21.9511 9.40045 22.0399 9.24001L21.9199 9.56001C21.9388 9.42852 21.9655 9.29828 21.9999 9.17001C21.9999 9.17001 21.8499 9.54001 21.7899 9.66001L21.8799 9.52001L21.7299 9.81001C21.8599 9.58001 21.5499 10.17 21.7299 9.76001L21.6699 9.88001C21.6699 9.88001 21.8099 9.75001 21.8499 9.78001C21.9928 9.64302 22.1505 9.52228 22.3199 9.42001C22.2099 9.59001 21.9699 9.80001 21.9799 9.83001C22.1096 9.79178 22.2365 9.74501 22.3599 9.69001C22.1099 9.81001 22.1099 9.87001 21.9499 9.89001C21.9499 9.96001 21.9499 9.95001 22.0899 10.08C22.1558 10.0657 22.224 10.0657 22.2899 10.08C22.2899 10.08 22.1799 10.14 22.0899 10.08C22.1499 10.13 22.0899 10.18 22.0899 10.22C22.0057 10.2972 21.9155 10.3674 21.8199 10.43C21.6199 10.57 21.4299 10.7 21.5499 10.92L21.5999 11.3C21.4999 11.41 21.5099 11.15 21.3499 11.2C21.4799 11.65 21.0699 11.66 21.1199 12.01C20.5199 11.94 20.7899 12.73 20.3299 12.83H20.4599C20.5399 12.96 20.3499 12.88 20.2899 12.92C20.3899 12.92 20.4399 12.92 20.4799 12.98C20.3099 13.64 19.6599 14.1 19.2399 14.67C19.0999 14.89 19.7999 15.11 19.3699 15.26L19.1899 15.07C19.1899 15.66 18.7299 16.02 18.7599 16.59C18.7599 16.54 18.6499 16.51 18.6699 16.47C18.4599 16.47 18.5099 16.83 18.6699 16.89C18.6699 16.96 18.5399 16.89 18.4599 16.89C18.3799 16.89 18.5599 17.23 18.3799 17.22C18.1999 17.21 18.3799 17.22 18.3299 17.15C18.2799 17.08 18.1899 17.45 18.4099 17.46C18.2499 17.61 18.4099 17.84 18.1999 17.94C18.3899 18.11 17.9999 18.23 18.2999 18.36C18.2601 18.3329 18.2131 18.3184 18.1649 18.3184C18.1168 18.3184 18.0698 18.3329 18.0299 18.36C18.0299 18.36 18.0299 18.42 18.1199 18.49C18.2099 18.56 18.0299 18.49 17.9099 18.36C17.9552 18.4414 18.0164 18.5129 18.0899 18.57C17.9099 18.44 17.9599 18.51 17.9699 18.57C17.9799 18.63 17.9699 18.7 17.8399 18.45C17.8399 18.45 17.8399 18.53 17.7799 18.58L17.5499 18.72C17.4005 18.8029 17.2383 18.8604 17.0699 18.89C17.0699 18.55 17.4199 18.89 17.3899 18.5C17.1099 18.64 16.9299 18.92 16.6299 18.84C16.5499 18.79 16.6799 18.69 16.7099 18.64C16.3999 18.79 16.1599 18.53 15.8599 18.64C15.8751 18.6039 15.9039 18.5752 15.9399 18.56C15.8799 18.56 15.8299 18.49 15.7999 18.64H15.8599C15.8599 18.87 15.5499 19.06 15.5099 19.17C15.6999 18.77 15.2699 18.99 15.5099 18.49C15.4772 18.5085 15.4494 18.5345 15.4285 18.5657C15.4077 18.597 15.3945 18.6327 15.3899 18.67C15.3899 18.62 15.3899 18.56 15.3899 18.46C15.1899 18.46 15.2099 18.66 15.0399 18.6C15.0399 18.53 15.1099 18.52 15.1499 18.44C15.0199 18.55 14.8899 18.66 14.7699 18.55C14.6499 18.44 14.7699 18.45 14.8399 18.47C14.5899 18.42 14.2899 18.64 14.0799 18.4C14.2999 18.15 14.0799 18.26 14.1499 18.01H13.9799V18.15C13.8599 18.15 13.6599 18.2 13.6099 18.06H13.7499L13.5899 18L13.6499 18.16C13.4599 18.22 13.4899 18.48 13.3699 18.31C13.3699 18.31 13.2499 18.23 13.2699 18.06C13.1699 18.06 13.0499 18.14 13.0099 18.06C12.9699 17.98 13.1999 17.82 13.2199 17.76C13.0299 17.91 12.9199 17.62 12.6999 17.76C12.7659 17.7168 12.8208 17.6585 12.8599 17.59L12.6999 17.71C12.6999 17.62 12.6999 17.59 12.7699 17.5C12.6299 17.36 12.6099 17.82 12.5099 17.56C12.5099 17.56 12.5099 17.56 12.5899 17.56C12.4499 17.37 12.1699 17.38 12.0499 17.17C12.1799 16.92 12.2399 17.24 12.3399 17.01C12.0699 16.86 11.6199 16.86 11.4399 16.61V16.67C11.1499 16.95 11.4399 16.38 11.1599 16.42C11.2099 16.42 11.3399 16.28 11.3099 16.31C11.1899 16.13 10.9199 16.1 10.5999 15.99H10.6899C10.6899 15.84 10.4799 15.73 10.4099 15.61C10.3099 15.66 10.2599 15.61 10.1999 15.74C10.2599 15.02 9.39994 15.47 9.38994 14.87C9.38994 14.87 9.52994 14.87 9.49994 14.87L9.18994 14.75C9.10994 14.91 9.18994 14.86 9.13994 15.01C9.09707 15.0336 9.0489 15.046 8.99994 15.046C8.95098 15.046 8.90282 15.0336 8.85994 15.01C9.04994 15.01 9.01994 14.78 9.01994 14.67C9.01994 14.72 8.94994 14.75 8.91994 14.8C8.91994 14.45 8.70994 15.08 8.62994 14.8L8.68994 14.73C8.58994 14.73 8.46994 14.79 8.39994 14.73C8.32994 14.67 8.52994 14.73 8.61994 14.56C8.49994 14.49 8.20994 14.75 8.19994 14.56C8.27994 14.56 8.34994 14.56 8.42994 14.56C8.42994 14.29 8.42994 14.34 8.29994 14.26L8.12994 14.06V14.15C7.76994 14.56 7.77994 14.07 7.44994 14.35C7.74994 14.1 7.53994 14.18 7.61994 13.97C7.69994 13.76 7.50994 13.8 7.54994 13.74C7.38994 13.89 7.38994 13.55 7.16994 13.74C7.16994 13.67 7.04994 13.74 7.10994 13.53C6.93994 13.53 7.10994 13.66 7.10994 13.75C6.86994 13.97 6.54994 13.41 6.22994 13.75C5.97994 13.91 5.94994 14.16 5.73994 14.31C5.64994 14.21 5.73994 14.04 5.73994 14.04C5.71422 14.0189 5.68441 14.0035 5.6524 13.9945C5.62038 13.9856 5.58686 13.9834 5.55396 13.9881C5.52105 13.9928 5.48948 14.0043 5.46125 14.0218C5.43302 14.0394 5.40874 14.0626 5.38994 14.09C5.39231 14.0543 5.38631 14.0185 5.37242 13.9855C5.35853 13.9526 5.33714 13.9233 5.30994 13.9C5.20994 13.9 5.30994 14.18 5.13994 14.11C5.12554 14.0038 5.12554 13.8962 5.13994 13.79C5.02597 13.9112 4.92228 14.0416 4.82994 14.18C4.73994 14.08 4.82994 13.96 4.82994 13.87C4.68994 13.97 4.43994 14.19 4.52994 14.39H4.79994C4.79994 14.44 4.66994 14.27 4.69994 14.21C4.69994 13.99 4.91994 14.21 4.94994 14.21L4.88994 14.3C5.14994 14.64 5.18994 14.09 5.39994 14.08V14.4L5.51994 14C5.56994 14.07 5.61994 14.24 5.51994 14.3C5.65994 14.43 5.60994 14.17 5.72994 14.3L5.83994 14.19C5.83994 14.26 5.83994 14.41 5.83994 14.37C6.04994 14.53 6.13994 14.11 6.23994 14.37C6.51994 14.25 6.23994 14.13 6.44994 13.86C6.50994 14.06 6.55994 14.25 6.59994 14.44V14.21C6.61305 14.2121 6.62552 14.2171 6.63647 14.2247C6.64741 14.2322 6.65656 14.242 6.66325 14.2535C6.66994 14.265 6.67401 14.2778 6.67517 14.291C6.67633 14.3042 6.67454 14.3175 6.66994 14.33C6.77994 14.18 6.66994 14.23 6.72994 14.08C6.84994 14.29 7.13994 14.01 7.09994 14.4C7.17994 14.24 6.98994 14.23 7.15994 14.15C7.15994 14.54 7.34994 14.15 7.41994 14.34C7.32994 14.52 7.24994 14.34 7.31994 14.59C7.48994 14.29 7.51994 14.71 7.61994 14.7C7.72994 14.45 7.86994 14.7 8.05994 14.7C8.05994 14.76 8.28994 14.98 8.36994 15.16C8.53994 14.94 8.65994 15.08 8.79994 15.1C8.74195 15.1933 8.65371 15.2639 8.54994 15.3L8.63994 15.36C8.71994 15.3 8.76994 15.28 8.84994 15.36L8.70994 15.5C8.82994 15.59 9.09994 15.5 9.17994 15.73C9.30994 15.59 9.37994 15.21 9.62994 15.25C9.62994 15.33 9.46994 15.48 9.39994 15.47C9.32994 15.46 9.50994 15.47 9.50994 15.47L9.32994 15.55C9.32994 15.67 9.45994 15.46 9.50994 15.55C9.40994 15.67 9.50994 15.67 9.39994 15.76C9.28994 15.85 9.39994 15.67 9.32994 15.69C9.35257 15.7403 9.36427 15.7948 9.36427 15.85C9.36427 15.9052 9.35257 15.9597 9.32994 16.01C9.37994 15.94 9.44994 15.86 9.50994 15.88C9.56994 15.9 9.43994 16.05 9.50994 16.17C9.60994 16.17 9.61994 16.26 9.75994 16.1C9.75994 16.1 9.75994 16.21 9.70994 16.27C9.83994 16.27 10.0299 16.5 10.1099 16.27C10.4599 16.27 10.4599 16.74 10.7299 16.85V16.9C10.9099 16.9 11.0399 17.11 11.2299 17.06C11.2299 17.06 11.2299 17.24 11.1599 17.29C11.2899 17.29 11.3499 17.29 11.4199 17.49C11.2299 17.49 11.4199 17.61 11.2499 17.49C11.3399 17.64 11.2999 17.76 11.5599 17.72C11.5304 17.7281 11.5043 17.7457 11.4857 17.7701C11.4671 17.7945 11.457 17.8243 11.457 17.855C11.457 17.8857 11.4671 17.9155 11.4857 17.9399C11.5043 17.9643 11.5304 17.9819 11.5599 17.99V17.81C11.6394 17.8405 11.7063 17.8969 11.7499 17.97L11.5599 18.13C11.6399 18.6 12.3699 18.13 12.2799 18.67C12.4599 18.58 12.1999 18.45 12.3899 18.34C12.4899 18.46 12.3899 18.85 12.4699 18.88C12.5799 19.12 12.8399 18.69 12.9899 18.88C12.9899 18.79 13.1099 18.57 13.2999 18.59C13.4899 18.61 13.2999 19.01 13.1499 19.02C12.9999 19.03 13.1499 18.97 13.1499 18.95C13.1499 18.93 13.0099 18.95 13.0199 19.06L12.9999 19C12.9999 19.12 13.2199 19.23 13.0999 19.33C13.2499 19.33 13.2199 19.23 13.1599 19.14C13.2799 19.37 13.4399 19.32 13.5999 19.48C13.5999 19.48 13.5999 19.32 13.5999 19.33C13.8399 19.57 13.8099 19.24 14.0099 19.33C14.2099 19.42 13.8399 19.6 14.0799 19.59C14.1699 19.73 14.0199 19.82 13.9399 19.87C14.1799 19.8 14.2499 20.12 14.3599 20.19H14.2199C14.2816 20.1694 14.3483 20.1694 14.4099 20.19V20C14.4099 20 14.5099 20.07 14.4799 20.14C14.5899 20.05 14.5399 19.84 14.7099 19.73C14.7599 19.84 14.9699 19.73 14.9299 19.95C14.6999 19.79 14.9299 20.19 14.6599 20.15C14.6895 20.145 14.7199 20.1479 14.748 20.1584C14.7761 20.169 14.8009 20.1868 14.8199 20.21C14.8261 20.2261 14.8261 20.2439 14.8199 20.26C15.0099 20.54 14.9999 20.04 15.2499 20.12C15.1899 20.24 15.2499 20.38 15.3099 20.36C15.1999 20.36 15.3099 20.13 15.4199 20.05C15.5699 20.18 15.6199 20.05 15.6999 20.05L15.6299 20C15.6899 19.87 15.7699 19.9 15.8899 19.88C16.0099 19.86 15.7699 19.94 15.8099 19.99C15.9699 19.78 16.0499 20.28 16.2499 20.15C16.3299 20.25 16.2499 20.4 16.2999 20.47C16.5199 20.31 16.5199 20.66 16.7499 20.52C16.6899 20.34 16.6799 20.39 16.8399 20.22L16.4799 20.33L16.7199 20.08C16.6199 20.08 16.4899 20.19 16.4299 20.16C16.5499 20.01 16.5299 20.06 16.4999 19.91C16.6199 20.18 16.7799 19.76 16.9299 19.91V20.35C17.1799 20.54 17.3799 20.17 17.6999 20.22L17.5899 20.16C17.5899 19.97 17.7799 20.11 17.8799 20.02C17.8814 20.0731 17.8937 20.1253 17.9161 20.1734C17.9384 20.2216 17.9704 20.2646 18.0099 20.3C17.9499 20.2 18.3599 20.3 18.3099 19.97C18.3929 20.0291 18.4798 20.0826 18.5699 20.13C18.9799 20.13 18.7499 19.69 18.9799 19.54C18.9799 19.72 19.2099 19.7 19.1099 19.94C19.2099 19.87 19.2899 19.8 19.2199 19.73C19.3399 19.73 19.2199 19.34 19.3599 19.34C19.3599 19.25 19.1899 19.16 19.2299 19.06C19.2529 19.0545 19.2769 19.0545 19.2999 19.06C19.2299 19.06 19.2999 18.85 19.0799 18.87C19.6099 18.73 19.2499 18.22 19.6999 18.15C19.7065 17.9781 19.7299 17.8073 19.7699 17.64C19.7699 17.64 19.8399 17.64 19.7699 17.64C19.9699 17.51 19.4199 17.37 19.6499 17.21C19.8799 17.05 19.7299 17.37 19.8399 17.34C20.2999 17.49 19.8399 17.05 20.2099 17.02C20.3999 17.02 20.1599 16.68 20.2699 16.52H20.3299C20.1999 16.3113 20.1569 16.0601 20.2099 15.82C20.3599 15.96 20.2699 15.95 20.4599 16C20.4599 15.91 20.1699 15.89 20.1899 15.71C20.3365 15.6646 20.4934 15.6646 20.6399 15.71L20.5799 15.86C20.8599 15.86 20.6599 15.67 20.7399 15.61L20.8399 15.67C20.9099 15.43 20.6499 15.3 20.7899 15.07H20.6999C20.4999 14.8 20.8999 15.07 20.7699 14.8L21.0499 14.9C21.0022 14.7004 20.982 14.4951 20.9899 14.29C21.0919 14.4738 21.1629 14.6731 21.1999 14.88C21.2499 14.8 21.3299 14.58 21.1999 14.47C21.1999 14.47 21.2499 14.59 21.1999 14.61C21.1303 14.5345 21.0846 14.4401 21.0686 14.3386C21.0526 14.2372 21.067 14.1333 21.1099 14.04C21.6099 14.34 21.4699 13.67 21.9299 13.76C21.9299 13.36 22.3299 13.21 22.4799 12.84C22.0199 12.76 22.4799 12.73 22.1099 12.54C22.1099 12.44 22.1099 12.41 22.1799 12.42L22.5499 12.3C22.6999 12.3 22.5999 12.42 22.6899 12.46C22.8199 12.3 22.9099 12.46 23.0799 12.46C22.9199 12.41 22.8999 12.29 23.0099 12.21H22.7399C22.6599 11.85 23.1999 12.21 23.1099 11.8L23.1999 11.94C23.1999 11.77 23.4499 11.44 23.1999 11.15C23.2599 11.15 23.3799 11.15 23.3899 11.25C23.4668 11.0598 23.501 10.8549 23.4899 10.65C23.4949 10.3757 23.5858 10.1099 23.7499 9.89001H23.8599C23.8599 9.78001 23.6899 9.72001 23.8599 9.58001C23.9099 9.58001 23.9699 9.58001 23.9899 9.58001C24.0099 9.58001 23.8699 9.35001 23.9899 9.22001L24.0999 9.29001C24.1549 9.20141 24.1839 9.09924 24.1839 8.99501C24.1839 8.89077 24.1549 8.78861 24.0999 8.70001C24.0399 8.56001 23.8399 8.55001 23.8199 8.41001C23.9463 8.33096 24.0473 8.21737 24.1111 8.08268C24.1749 7.94799 24.1988 7.79784 24.1799 7.65001C24.0349 7.48446 23.8325 7.38002 23.6136 7.35776C23.3946 7.33549 23.1753 7.39704 22.9999 7.53001C22.9399 7.30001 22.6499 7.24001 22.0699 7.53001C21.9153 7.59825 21.7546 7.65182 21.5899 7.69001C21.6899 7.69001 21.5899 7.99001 21.4899 8.06001C21.3899 8.13001 21.1999 8.43001 21.1399 8.13001H21.1899C21.1607 8.08316 21.1191 8.04529 21.0697 8.02059C21.0202 7.99589 20.965 7.9853 20.9099 7.99001C20.8499 7.99001 20.7999 7.99001 20.7499 8.04001L20.8399 8.42001C20.6099 8.17001 20.4599 8.28001 20.2999 8.35001C20.1399 8.42001 19.9799 8.49001 19.9199 8.23001C19.8499 8.33001 19.7699 8.33001 19.6999 8.41001V8.20001C19.5776 8.10125 19.4337 8.03273 19.2799 8.00001L19.3699 7.87001C19.2699 7.87001 19.0099 8.39001 18.8799 8.35001L18.9799 8.04001C18.7699 7.95001 18.7399 7.60001 18.3799 7.68001C18.3799 7.68001 18.4699 7.58001 18.5099 7.59001C18.5499 7.60001 18.2999 7.15001 18.0499 7.51001C18.2299 7.30001 17.8699 7.31001 17.6799 7.30001L17.8399 7.16001C17.5699 7.27001 17.5099 7.32001 17.3299 7.24001C17.3299 7.24001 17.4299 7.10001 17.4299 7.17001C17.4299 7.00001 17.2099 7.23001 17.1699 7.03001H17.3199C17.2299 6.91001 17.1899 6.96001 17.0199 7.03001C16.8499 7.10001 16.8699 6.78001 17.0199 6.65001C16.9199 6.71001 16.7499 6.74001 16.7299 6.65001C16.7464 6.63164 16.7664 6.61685 16.7887 6.60652C16.8111 6.5962 16.8353 6.59058 16.8599 6.59001C16.8099 6.31001 16.4399 6.47001 16.4799 6.20001C16.5117 6.17107 16.5387 6.13732 16.5599 6.10001C16.6372 6.1853 16.7043 6.27926 16.7599 6.38001C16.8999 6.26001 16.8299 6.12001 17.1099 6.04001C16.9199 6.04001 16.5299 6.04001 16.4999 5.89001V5.83001C16.4999 5.83001 16.4499 5.83001 16.4099 5.77001C16.4201 5.72727 16.4201 5.68274 16.4099 5.64001C16.5199 5.52001 16.3499 5.44001 16.3099 5.37001C16.1499 5.51001 16.1099 5.37001 16.0399 5.60001C16.0399 5.60001 16.0399 5.60001 16.1099 5.60001L16.2499 5.74001C16.1299 5.74001 16.0199 5.74001 16.0499 5.63001L15.7199 5.76001C15.8699 5.48001 15.8499 5.22001 15.9599 5.07001C15.7099 4.96001 15.5099 4.67001 15.1099 4.83001C15.0199 4.83001 15.1099 4.69001 15.1099 4.62001C15.1099 4.55001 15.1999 4.62001 15.2499 4.62001C15.0799 4.62001 14.9299 4.33001 14.6999 4.50001C14.6999 4.28001 14.9599 4.39001 14.6999 4.25001H14.7899C14.7099 3.56001 13.7299 4.25001 13.6299 3.46001C13.6396 3.47854 13.6446 3.49912 13.6446 3.52001C13.6446 3.5409 13.6396 3.56148 13.6299 3.58001C13.2199 2.98001 12.3999 3.10001 11.9099 2.58001C11.7499 2.45001 11.6899 2.58001 11.5499 2.73001V2.46001L11.3099 2.68001C11.0399 2.82001 10.8999 2.07001 10.5199 2.41001V2.56001C10.3999 2.56001 10.1499 2.66001 10.1599 2.48001C10.1599 2.48001 10.1599 2.64001 10.0799 2.57001V2.45001L9.99994 2.67001C9.75994 2.61001 9.99994 2.19001 9.63994 2.22001C9.50994 2.28001 9.32994 2.61001 9.38994 2.68001C9.43227 2.68753 9.47127 2.70787 9.50168 2.73827C9.53208 2.76867 9.55242 2.80768 9.55994 2.85001L9.45994 2.93001C9.45994 3.28001 9.45994 3.64001 9.76994 3.85001L9.89994 3.61001L9.96994 3.77001H9.83994C9.93994 3.92001 9.95994 3.77001 10.0099 3.67001C10.0203 3.736 10.0479 3.79808 10.0899 3.85001C10.0899 3.73001 10.1799 3.61001 10.2199 3.50001C10.2199 3.64001 10.2199 3.77001 10.2799 3.85001C10.3399 3.69001 10.1899 3.54001 10.2799 3.44001C10.3599 3.59001 10.3399 3.72001 10.4299 3.58001C10.4441 3.60966 10.4515 3.64213 10.4515 3.67501C10.4515 3.70789 10.4441 3.74035 10.4299 3.77001C10.5099 3.66001 10.6399 3.71001 10.6799 3.53001C10.7499 3.73001 10.9499 3.53001 10.9199 3.83001C10.9199 3.75001 11.0799 3.58001 11.1499 3.57001C10.9799 3.94001 11.4099 3.64001 11.3099 4.06001C11.4599 3.71001 11.6599 3.97001 11.8699 3.83001C11.8699 3.83001 11.8199 3.90001 11.8099 3.88001C11.7999 3.86001 11.8799 4.04001 11.9099 4.13001C12.0199 3.86001 12.1799 3.85001 12.3399 3.72001C12.3399 4.02001 12.1299 4.01001 12.0599 4.27001C12.1499 4.05001 12.3399 4.13001 12.3899 3.93001C12.4223 4.04783 12.4223 4.17219 12.3899 4.29001C12.5699 3.96001 12.4899 4.29001 12.6699 4.10001C12.6699 4.33001 12.5299 4.42001 12.6699 4.39001C12.6099 4.55001 12.4399 4.60001 12.4399 4.60001ZM15.5199 6.69001L15.4599 6.63001L15.5199 6.69001ZM15.7399 6.95001C15.7399 6.95001 15.6799 6.88001 15.6499 6.83001C15.6199 6.78001 15.7599 6.74001 15.7799 6.77001C15.7999 6.80001 15.7499 6.88001 15.7399 7.00001V6.95001ZM16.3899 5.46001C16.4499 5.46001 16.3899 5.53001 16.3899 5.56001L16.3099 5.50001C16.3348 5.48331 16.3617 5.46986 16.3899 5.46001Z" fill="#7C7C7C"/>
<path d="M16.12 5.57001V5.63001H16.18L16.12 5.57001Z" fill="#7C7C7C"/>
<path d="M19.9 10.07V10.02L19.86 10.06L19.9 10.07Z" fill="#7C7C7C"/>
<path d="M9 14.58C9.00468 14.5603 9.00468 14.5397 9 14.52C9 14.52 9 14.55 9 14.58Z" fill="#7C7C7C"/>
<path d="M8.31999 14.1L8.23999 14C8.26207 14.0368 8.28898 14.0704 8.31999 14.1Z" fill="#7C7C7C"/>
<path d="M13.27 18.08H13.41C13.41 18.08 13.34 18 13.27 18.08Z" fill="#7C7C7C"/>
<path d="M17.91 18.41L17.92 18.42V18.41H17.91Z" fill="#7C7C7C"/>
<path d="M13.52 18.11C13.5116 18.0881 13.4963 18.0695 13.4765 18.0569C13.4567 18.0443 13.4334 18.0384 13.41 18.04C13.41 18.04 13.46 18.12 13.52 18.11Z" fill="#7C7C7C"/>
<path d="M4.44999 14.06L4.50999 14C4.50999 14 4.42999 14 4.44999 14.06Z" fill="#7C7C7C"/>
<path d="M5.62997 13.61V13.53C5.61993 13.5557 5.61993 13.5843 5.62997 13.61Z" fill="#7C7C7C"/>
<path d="M5.89 13.55C5.83 13.55 5.71 13.41 5.63 13.47V13.53C5.66 13.41 5.85 13.68 5.89 13.55Z" fill="#7C7C7C"/>
<path d="M6.94001 14.49L6.76001 14.42C6.76001 14.5 6.76001 14.61 6.76001 14.63C6.93001 14.88 6.70001 14.45 6.94001 14.49Z" fill="#7C7C7C"/>
<path d="M7.45998 14.74C7.34998 14.74 7.45998 14.85 7.39998 14.9C7.33998 14.95 7.49998 14.83 7.45998 14.74Z" fill="#7C7C7C"/>
<path d="M11.0701 17.4L10.9301 17.54C11.0001 17.58 11.0001 17.48 11.0701 17.4Z" fill="#7C7C7C"/>
<path d="M12.38 17.2L12.39 17.06L12.26 17.17L12.38 17.2Z" fill="#7C7C7C"/>
<path d="M11.9899 18.61H11.9399L12.0999 18.64L11.9899 18.61Z" fill="#7C7C7C"/>
<path d="M19.85 18.45L19.61 18.4C19.64 18.46 19.88 18.56 19.85 18.45Z" fill="#7C7C7C"/>
<path d="M20.9399 15.33C21.0699 15.33 21.1799 15.33 21.0999 15.19C21.0499 15.25 20.9399 15.28 20.9399 15.33Z" fill="#7C7C7C"/>
<path d="M20.6101 8.09999L20.6401 8.01999L20.5601 8.09999H20.6101Z" fill="#7C7C7C"/>
</svg>
