<svg width="15" height="20" viewBox="0 0 15 20" fill="none" xmlns="http://www.w3.org/2000/svg">
<path d="M13.2749 7.9C11.6999 6.9 10.4999 5.45 8.99994 4.3C7.34994 3.05 7.34994 2.45 6.07494 1.4C3.74994 -0.4 3.44994 0.05 1.94994 2.98023e-08C0.524937 -0.05 0.0749366 1.5 1.42494 2.6C4.19994 4.9 4.42494 6 7.19994 8.15C8.09994 8.85 8.62494 9.25 9.37494 9.85C8.39994 10.65 7.87494 11.5 6.82494 12.25C4.04994 14.35 3.82494 15.25 1.04994 17.35C-0.300063 18.4 0.149937 20 1.57494 19.95C2.99994 19.9 3.37494 20.3 5.69994 18.55C6.82494 17.7 6.97494 17.3 8.62494 16.1C10.1249 14.95 11.2499 13.1 12.8999 12.1C14.3249 11.2 13.6499 11.25 14.6999 10.3C15.2249 10.1 14.8499 8.9 13.2749 7.9Z" fill="#EAB1F3"/>
</svg>
