<?xml version="1.0" encoding="UTF-8"?>
<svg width="210px" height="110px" viewBox="0 0 210 110" version="1.1" xmlns="http://www.w3.org/2000/svg" xmlns:xlink="http://www.w3.org/1999/xlink">
    <!-- Generator: Sketch 50.2 (55047) - http://www.bohemiancoding.com/sketch -->
    <title>black+ text </title>
    <desc>Created with Sketch.</desc>
    <defs>
        <polygon id="path-1" points="0 0.624 74.6155924 0.624 74.6155924 102.84851 0 102.84851"></polygon>
        <polygon id="path-3" points="0 109.376 210.422 109.376 210.422 1 0 1"></polygon>
    </defs>
    <g id="Page-1" stroke="none" stroke-width="1" fill="none" fill-rule="evenodd">
        <g id="black+-text-">
            <g id="Group-3">
                <mask id="mask-2" fill="white">
                    <use xlink:href="#path-1"></use>
                </mask>
                <g id="Clip-2"></g>
                <path d="M73.6099,60.7319 C78.8659,34.1939 63.0229,8.3729 37.7009,0.6239 C58.8649,10.6149 71.3699,34.0229 66.6169,58.0219 C61.0099,86.3329 33.5129,104.7389 5.2019,99.1319 C3.4269,98.7809 1.6929,98.3429 -0.0001,97.8249 C3.8029,99.6209 7.8819,100.9889 12.1949,101.8429 C40.5059,107.4499 68.0029,89.0439 73.6099,60.7319" id="Fill-1" fill="#FFDA00" mask="url(#mask-2)"></path>
            </g>
            <path d="M17.127,51.7570126 L18.458,51.7580126 C20.54,51.7590126 21.873,51.2140126 21.874,49.9510126 C21.874,48.8590126 20.987,48.1760126 18.905,48.1740126 C18.189,48.1740126 17.71,48.2420126 17.13,48.3090126 L17.127,51.7570126 Z M17.088,58.9590126 C17.634,59.0280126 18.044,59.0280126 18.829,59.0290126 C20.604,59.0300126 22.38,58.5190126 22.381,56.8810126 C22.382,55.4470126 21.017,54.7640126 18.593,54.7620126 L17.091,54.7610126 L17.088,58.9590126 Z M12.012,45.4040126 C13.274,45.2350126 16.143,44.9980126 18.736,45.0000126 C21.569,45.0020126 26.997,45.3130126 26.994,49.2720126 C26.993,51.4230126 25.251,52.5480126 23.578,52.8880126 L23.578,52.9570126 C26.069,53.3680126 27.707,54.7680126 27.706,57.0210126 C27.702,61.7650126 21.25,62.1710126 17.837,62.1690126 C15.516,62.1670126 13.059,61.9950126 12,61.8570126 L12.012,45.4040126 Z" id="Fill-4" fill="#231F20"></path>
            <polygon id="Fill-6" fill="#231F20" points="78.543 45.011 78.531 61.702 73.309 61.699 73.317 48.967 68.197 48.964 68.189 61.696 63 61.692 63.012 45"></polygon>
            <path d="M120.061003,51.8280026 C120.062002,50.5650026 119.518002,48.4490026 117.128002,48.4470026 C114.944002,48.4450026 114.055002,50.4250026 113.917002,51.8240026 L120.061003,51.8280026 Z M113.950002,55.3740026 C114.118002,57.5240026 116.235002,58.5500026 118.658002,58.5520026 C120.433002,58.5530026 121.867002,58.3150026 123.266002,57.8720026 L123.947002,61.3890026 C122.239002,62.0700026 120.157002,62.4100026 117.904002,62.4080026 C112.238002,62.4040026 108.997002,59.1250026 109.000002,53.9030026 C109.003002,49.6700026 111.635002,44.9960026 117.438002,45.0000026 C122.831002,45.0030026 124.876002,49.2030026 124.873002,53.3330026 C124.873002,54.2210026 124.770002,55.0060026 124.702002,55.3810026 L113.950002,55.3740026 Z" id="Fill-8" fill="#231F20"></path>
            <path d="M147.318,54.8950033 C147.318,55.3050033 147.352,55.6800033 147.421,55.9880033 C147.76,57.3870033 148.955,58.4460033 150.457,58.4470033 C152.71,58.4490033 154.042,56.5720033 154.044,53.7390033 C154.046,51.0770033 152.851,49.0620033 150.531,49.0610033 C149.063,49.0600033 147.765,50.1510033 147.423,51.6870033 C147.354,51.9590033 147.32,52.3010033 147.32,52.6080033 L147.318,54.8950033 Z M142.132,50.9660033 C142.134,48.7810033 142.067,46.9040033 142,45.3680033 L146.506,45.3710033 L146.743,47.6920033 L146.811,47.6920033 C148.042,45.9180033 149.953,44.9980033 152.377,45.0000033 C156.029,45.0020033 159.304,48.1790033 159.3,53.5040033 C159.297,59.5800033 155.437,62.4440033 151.716,62.4420033 C149.703,62.4400033 148.133,61.6200033 147.382,60.5270033 L147.314,60.5270033 L147.309,68.8210033 L142.121,68.8180033 L142.132,50.9660033 Z" id="Fill-10" fill="#231F20"></path>
            <polygon id="Fill-12" fill="#231F20" points="173.166 45.004 173.157 57.736 177.253 57.738 177.262 45.006 182.416 45.01 182.407 57.742 186.504 57.745 186.513 45.013 191.667 45.017 191.655 61.708 168 61.691 168.012 45"></polygon>
            <path d="M205.061003,51.8280026 C205.062002,50.5650026 204.518002,48.4490026 202.128002,48.4470026 C199.944002,48.4450026 199.055002,50.4250026 198.917002,51.8240026 L205.061003,51.8280026 Z M198.950002,55.3740026 C199.118002,57.5240026 201.235002,58.5500026 203.658002,58.5520026 C205.433002,58.5530026 206.867002,58.3150026 208.266002,57.8720026 L208.947002,61.3890026 C207.239002,62.0700026 205.157002,62.4100026 202.904002,62.4080026 C197.238002,62.4040026 193.997002,59.1250026 194.000002,53.9030026 C194.003002,49.6700026 196.635002,44.9960026 202.438002,45.0000026 C207.831002,45.0030026 209.876002,49.2030026 209.873002,53.3330026 C209.873002,54.2210026 209.770002,55.0060026 209.702002,55.3810026 L198.950002,55.3740026 Z" id="Fill-14" fill="#231F20"></path>
            <path d="M19.315,86.841 C18.893,87.036 18.065,87.247 17.075,87.247 C14.607,87.247 13,85.672 13,83.22 C13,80.85 14.623,79 17.399,79 C18.129,79 18.877,79.162 19.332,79.373 L18.974,80.866 C18.649,80.72 18.178,80.558 17.464,80.558 C15.938,80.558 15.029,81.678 15.045,83.123 C15.045,84.747 16.1,85.672 17.464,85.672 C18.163,85.672 18.649,85.526 19.039,85.364 L19.315,86.841 Z" id="Fill-16" fill="#231F20"></path>
            <path d="M25.39,82.295 C25.407,81.565 25.082,80.363 23.75,80.363 C22.517,80.363 21.997,81.483 21.916,82.295 L25.39,82.295 Z M21.916,83.691 C21.965,85.12 23.085,85.737 24.351,85.737 C25.277,85.737 25.943,85.607 26.543,85.38 L26.835,86.76 C26.154,87.036 25.211,87.247 24.076,87.247 C21.51,87.247 20,85.672 20,83.253 C20,81.061 21.331,79 23.865,79 C26.429,79 27.274,81.11 27.274,82.847 C27.274,83.22 27.242,83.513 27.208,83.691 L21.916,83.691 Z" id="Fill-18" fill="#231F20"></path>
            <path d="M30.997,79 L30.997,82.28 L31.289,82.28 L33.725,79 L36.095,79 L32.945,82.475 C34.033,82.637 34.699,83.498 35.234,84.764 C35.478,85.348 35.77,86.225 36.128,86.907 L34.05,86.907 C33.839,86.566 33.611,85.981 33.319,85.218 C32.896,84.147 32.296,83.627 31.257,83.627 L30.997,83.627 L30.997,86.907 L29,86.907 L29,79 L30.997,79 Z" id="Fill-20" fill="#231F20"></path>
            <path d="M42.315,86.841 C41.893,87.036 41.065,87.247 40.075,87.247 C37.607,87.247 36,85.672 36,83.22 C36,80.85 37.623,79 40.399,79 C41.129,79 41.877,79.162 42.332,79.373 L41.974,80.866 C41.649,80.72 41.178,80.558 40.464,80.558 C38.938,80.558 38.029,81.678 38.045,83.123 C38.045,84.747 39.1,85.672 40.464,85.672 C41.163,85.672 41.649,85.526 42.039,85.364 L42.315,86.841 Z" id="Fill-22" fill="#231F20"></path>
            <path d="M45.191,79 L46.62,83.238 C46.783,83.725 46.945,84.325 47.058,84.78 L47.107,84.78 C47.237,84.325 47.383,83.741 47.529,83.221 L48.763,79 L50.906,79 L48.925,84.39 C47.837,87.345 47.107,88.66 46.166,89.472 C45.386,90.17 44.575,90.43 44.071,90.495 L43.617,88.806 C43.958,88.725 44.379,88.546 44.786,88.254 C45.159,88.011 45.597,87.54 45.874,87.004 C45.955,86.858 46.003,86.745 46.003,86.647 C46.003,86.566 45.987,86.452 45.889,86.257 L43,79 L45.191,79 Z" id="Fill-24" fill="#231F20"></path>
            <path d="M56.741,83.221 C55.328,83.189 53.98,83.497 53.98,84.699 C53.98,85.478 54.484,85.835 55.117,85.835 C55.913,85.835 56.497,85.316 56.676,84.747 C56.724,84.601 56.741,84.439 56.741,84.309 L56.741,83.221 Z M57.001,87.085 L56.87,86.208 L56.822,86.208 C56.335,86.825 55.507,87.264 54.484,87.264 C52.892,87.264 52,86.111 52,84.909 C52,82.913 53.769,81.906 56.692,81.922 L56.692,81.792 C56.692,81.273 56.481,80.412 55.085,80.412 C54.305,80.412 53.493,80.656 52.958,80.997 L52.568,79.698 C53.152,79.341 54.176,79 55.426,79 C57.958,79 58.688,80.607 58.688,82.328 L58.688,85.186 C58.688,85.9 58.721,86.598 58.803,87.085 L57.001,87.085 Z" id="Fill-26" fill="#231F20"></path>
            <path d="M67.517,79 L67.517,86.907 L65.503,86.907 L65.503,80.542 L63.361,80.542 L63.361,82.263 C63.361,84.325 63.133,85.722 62.192,86.419 C61.738,86.858 61.153,87.069 60.211,87.069 L60,85.51 C60.341,85.446 60.65,85.316 60.844,85.121 C61.429,84.634 61.494,83.725 61.494,82.199 L61.494,79 L67.517,79 Z" id="Fill-28" fill="#231F20"></path>
            <path d="M70.98,85.559 C71.24,85.592 71.5,85.624 71.905,85.624 C72.831,85.624 74,85.316 74,84.195 C74,83.042 72.766,82.783 71.873,82.783 C71.532,82.783 71.256,82.815 70.98,82.864 L70.98,85.559 Z M70.997,79 L70.997,81.5 C71.321,81.435 71.84,81.403 72.262,81.403 C74.081,81.403 75.997,82.02 75.997,84.114 C75.997,85.039 75.607,85.673 75.022,86.095 C74.081,86.809 72.587,86.988 71.402,86.988 C70.558,86.988 69.713,86.939 69,86.874 L69,79 L70.997,79 Z" id="Fill-30" fill="#231F20"></path>
            <polygon id="Fill-32" fill="#231F20" points="79.997 79 79.997 82.02 83.049 82.02 83.049 79 85.046 79 85.046 86.907 83.049 86.907 83.049 83.579 79.997 83.579 79.997 86.907 78 86.907 78 79"></polygon>
            <path d="M90.74,83.221 C89.328,83.189 87.98,83.497 87.98,84.699 C87.98,85.478 88.484,85.835 89.117,85.835 C89.913,85.835 90.497,85.316 90.676,84.747 C90.724,84.601 90.74,84.439 90.74,84.309 L90.74,83.221 Z M91,87.085 L90.871,86.208 L90.822,86.208 C90.335,86.825 89.507,87.264 88.484,87.264 C86.892,87.264 86,86.111 86,84.909 C86,82.913 87.769,81.906 90.692,81.922 L90.692,81.792 C90.692,81.273 90.48,80.412 89.085,80.412 C88.305,80.412 87.494,80.656 86.958,80.997 L86.568,79.698 C87.152,79.341 88.176,79 89.426,79 C91.958,79 92.689,80.607 92.689,82.328 L92.689,85.186 C92.689,85.9 92.721,86.598 92.803,87.085 L91,87.085 Z" id="Fill-34" fill="#231F20"></path>
            <path d="M100.062,83.14 C100.062,84.666 100.809,85.819 102.027,85.819 C103.164,85.819 103.958,84.699 103.958,83.108 C103.958,81.874 103.407,80.461 102.043,80.461 C100.63,80.461 100.062,81.825 100.062,83.14 M106.021,83.059 C106.021,85.965 103.975,87.264 101.961,87.264 C99.721,87.264 98,85.722 98,83.189 C98,80.591 99.706,79 102.091,79 C104.446,79 106.021,80.656 106.021,83.059" id="Fill-36" fill="#231F20"></path>
            <path d="M113.315,86.841 C112.893,87.036 112.065,87.247 111.075,87.247 C108.607,87.247 107,85.672 107,83.22 C107,80.85 108.623,79 111.399,79 C112.129,79 112.877,79.162 113.332,79.373 L112.974,80.866 C112.649,80.72 112.178,80.558 111.464,80.558 C109.938,80.558 109.029,81.678 109.045,83.123 C109.045,84.747 110.1,85.672 111.464,85.672 C112.163,85.672 112.649,85.526 113.039,85.364 L113.315,86.841 Z" id="Fill-38" fill="#231F20"></path>
            <path d="M116.948,82.296 L117.776,82.296 C118.799,82.296 119.642,82.004 119.642,81.257 C119.642,80.624 119.091,80.282 117.905,80.282 C117.516,80.282 117.257,80.315 116.948,80.348 L116.948,82.296 Z M116.931,85.803 C117.257,85.835 117.5,85.851 117.905,85.851 C118.815,85.851 119.919,85.608 119.919,84.682 C119.919,83.789 119.042,83.497 117.792,83.497 L116.931,83.497 L116.931,85.803 Z M115,79.195 C115.584,79.097 116.785,79 117.873,79 C119.204,79 121.607,79.179 121.607,80.997 C121.607,82.004 120.828,82.572 119.983,82.75 L119.983,82.783 C121.153,82.962 121.965,83.611 121.965,84.715 C121.965,86.89 119.107,87.102 117.516,87.102 C116.525,87.102 115.47,87.036 115,86.988 L115,79.195 Z" id="Fill-40" fill="#231F20"></path>
            <mask id="mask-4" fill="white">
                <use xlink:href="#path-3"></use>
            </mask>
            <g id="Clip-43"></g>
            <path d="M123.114,87.202 L125.128,87.202 L125.128,79.295 L123.114,79.295 L123.114,87.202 Z M125.241,77.087 C125.241,77.688 124.802,78.159 124.104,78.159 C123.439,78.159 123,77.688 123,77.087 C123,76.471 123.454,76 124.12,76 C124.802,76 125.224,76.471 125.241,77.087 Z" id="Fill-42" fill="#231F20" mask="url(#mask-4)"></path>
            <polygon id="Fill-44" fill="#231F20" mask="url(#mask-4)" points="133.737 79 133.737 80.542 131.367 80.542 131.367 86.907 129.37 86.907 129.37 80.542 127 80.542 127 79"></polygon>
            <path d="M138.741,83.221 C137.328,83.189 135.98,83.497 135.98,84.699 C135.98,85.478 136.484,85.835 137.117,85.835 C137.913,85.835 138.497,85.316 138.676,84.747 C138.724,84.601 138.741,84.439 138.741,84.309 L138.741,83.221 Z M139.001,87.085 L138.87,86.208 L138.822,86.208 C138.335,86.825 137.507,87.264 136.484,87.264 C134.892,87.264 134,86.111 134,84.909 C134,82.913 135.769,81.906 138.692,81.922 L138.692,81.792 C138.692,81.273 138.481,80.412 137.085,80.412 C136.305,80.412 135.493,80.656 134.958,80.997 L134.568,79.698 C135.152,79.341 136.176,79 137.426,79 C139.958,79 140.688,80.607 140.688,82.328 L140.688,85.186 C140.688,85.9 140.721,86.598 140.803,87.085 L139.001,87.085 Z" id="Fill-45" fill="#231F20" mask="url(#mask-4)"></path>
            <path d="M15.637,101.565 C15.637,102.409 15.523,103.253 15.295,104.017 C15.166,104.52 14.954,105.007 14.711,105.429 L17.796,105.429 L17.796,100.493 L15.637,100.493 L15.637,101.565 Z M19.728,99 L19.728,105.461 L20.573,105.494 L20.491,109.439 L18.965,109.439 L18.884,106.906 L13.689,106.906 L13.591,109.439 L12.065,109.439 L12,105.51 L12.714,105.461 C13.039,104.958 13.315,104.406 13.493,103.838 C13.77,102.929 13.9,101.971 13.9,100.997 L13.9,99 L19.728,99 Z" id="Fill-46" fill="#231F20" mask="url(#mask-4)"></path>
            <path d="M28.517,99 L28.517,106.907 L26.503,106.907 L26.503,100.542 L24.361,100.542 L24.361,102.263 C24.361,104.325 24.133,105.722 23.192,106.419 C22.738,106.858 22.153,107.069 21.211,107.069 L21,105.51 C21.341,105.446 21.65,105.316 21.844,105.121 C22.429,104.634 22.494,103.725 22.494,102.199 L22.494,99 L28.517,99 Z" id="Fill-47" fill="#231F20" mask="url(#mask-4)"></path>
            <path d="M35.39,100.348 C35.115,100.299 34.838,100.267 34.4,100.267 C33.523,100.267 32.63,100.576 32.63,101.452 C32.63,102.28 33.62,102.637 34.4,102.637 C34.87,102.637 35.13,102.637 35.39,102.621 L35.39,100.348 Z M37.37,107.021 L35.39,107.021 L35.39,103.888 L34.643,103.888 C34.091,103.888 33.702,104.098 33.425,104.407 C32.922,104.845 32.728,105.69 32.452,106.371 C32.354,106.599 32.273,106.793 32.143,107.021 L30,107.021 C30.195,106.777 30.341,106.469 30.487,106.144 C30.795,105.446 31.072,104.423 31.672,103.871 C31.915,103.628 32.224,103.416 32.614,103.335 L32.614,103.286 C31.672,103.189 30.552,102.573 30.552,101.338 C30.552,100.429 31.072,99.861 31.77,99.504 C32.452,99.147 33.507,99 34.562,99 C35.666,99 36.673,99.082 37.37,99.179 L37.37,107.021 Z" id="Fill-48" fill="#231F20" mask="url(#mask-4)"></path>
            <polygon id="Fill-49" fill="#231F20" mask="url(#mask-4)" points="49.98 99 49.98 106.907 47.967 106.907 47.967 100.542 44.996 100.542 44.996 106.907 43 106.907 43 99"></polygon>
            <path d="M52.114,106.203 L54.128,106.203 L54.128,98.296 L52.114,98.296 L52.114,106.203 Z M54.24,96.088 C54.24,96.689 53.802,97.159 53.104,97.159 C52.439,97.159 52,96.689 52,96.088 C52,95.471 52.454,95 53.12,95 C53.802,95 54.225,95.471 54.24,96.088 Z" id="Fill-50" fill="#231F20" mask="url(#mask-4)"></path>
            <path d="M58.637,101.565 C58.637,102.409 58.523,103.253 58.295,104.017 C58.166,104.52 57.954,105.007 57.711,105.429 L60.796,105.429 L60.796,100.493 L58.637,100.493 L58.637,101.565 Z M62.728,99 L62.728,105.461 L63.573,105.494 L63.491,109.439 L61.965,109.439 L61.884,106.906 L56.689,106.906 L56.591,109.439 L55.065,109.439 L55,105.51 L55.714,105.461 C56.039,104.958 56.315,104.406 56.493,103.838 C56.77,102.929 56.9,101.971 56.9,100.997 L56.9,99 L62.728,99 Z" id="Fill-51" fill="#231F20" mask="url(#mask-4)"></path>
            <path d="M71.517,99 L71.517,106.907 L69.503,106.907 L69.503,100.542 L67.361,100.542 L67.361,102.263 C67.361,104.325 67.133,105.722 66.192,106.419 C65.738,106.858 65.153,107.069 64.211,107.069 L64,105.51 C64.341,105.446 64.65,105.316 64.844,105.121 C65.429,104.634 65.494,103.725 65.494,102.199 L65.494,99 L71.517,99 Z" id="Fill-52" fill="#231F20" mask="url(#mask-4)"></path>
            <path d="M74.114,106.203 L76.128,106.203 L76.128,98.296 L74.114,98.296 L74.114,106.203 Z M76.241,96.088 C76.241,96.689 75.802,97.159 75.104,97.159 C74.439,97.159 74,96.689 74,96.088 C74,95.471 74.454,95 75.121,95 C75.802,95 76.224,95.471 76.241,96.088 Z" id="Fill-53" fill="#231F20" mask="url(#mask-4)"></path>
            <polygon id="Fill-54" fill="#231F20" mask="url(#mask-4)" points="83.738 99 83.738 100.542 81.368 100.542 81.368 106.907 79.371 106.907 79.371 100.542 77 100.542 77 99"></polygon>
            <path d="M86.997,99 L86.997,102.28 L87.289,102.28 L89.725,99 L92.095,99 L88.945,102.475 C90.033,102.637 90.699,103.498 91.234,104.764 C91.478,105.348 91.77,106.225 92.128,106.907 L90.05,106.907 C89.838,106.566 89.611,105.981 89.318,105.218 C88.896,104.147 88.296,103.627 87.257,103.627 L86.997,103.627 L86.997,106.907 L85,106.907 L85,99 L86.997,99 Z" id="Fill-55" fill="#231F20" mask="url(#mask-4)"></path>
            <path d="M93.113,106.203 L95.127,106.203 L95.127,98.296 L93.113,98.296 L93.113,106.203 Z M95.24,96.088 C95.24,96.689 94.801,97.159 94.103,97.159 C93.438,97.159 93,96.689 93,96.088 C93,95.471 93.454,95 94.12,95 C94.801,95 95.224,95.471 95.24,96.088 Z" id="Fill-56" fill="#231F20" mask="url(#mask-4)"></path>
            <path d="M99.948,102.296 L100.776,102.296 C101.799,102.296 102.642,102.004 102.642,101.257 C102.642,100.624 102.091,100.282 100.905,100.282 C100.516,100.282 100.257,100.315 99.948,100.348 L99.948,102.296 Z M99.931,105.803 C100.257,105.835 100.5,105.851 100.905,105.851 C101.815,105.851 102.919,105.608 102.919,104.682 C102.919,103.789 102.042,103.497 100.792,103.497 L99.931,103.497 L99.931,105.803 Z M98,99.195 C98.584,99.097 99.785,99 100.873,99 C102.204,99 104.607,99.179 104.607,100.997 C104.607,102.004 103.828,102.572 102.983,102.75 L102.983,102.783 C104.153,102.962 104.965,103.611 104.965,104.715 C104.965,106.89 102.107,107.102 100.516,107.102 C99.525,107.102 98.47,107.036 98,106.988 L98,99.195 Z" id="Fill-57" fill="#231F20" mask="url(#mask-4)"></path>
        </g>
    </g>
</svg>