<?xml version="1.0" encoding="UTF-8"?>
<svg width="211px" height="103px" viewBox="0 0 211 103" version="1.1" xmlns="http://www.w3.org/2000/svg" xmlns:xlink="http://www.w3.org/1999/xlink">
    <!-- Generator: Sketch 50.2 (55047) - http://www.bohemiancoding.com/sketch -->
    <title>black</title>
    <desc>Created with Sketch.</desc>
    <defs></defs>
    <g id="Page-1" stroke="none" stroke-width="1" fill="none" fill-rule="evenodd">
        <g id="black">
            <path d="M73.6098,60.1531 C78.8658,33.6151 63.0228,7.7941 37.7008,0.0451 C58.8648,10.0361 71.3698,33.4431 66.6168,57.4431 C61.0098,85.7541 33.5128,104.1601 5.2018,98.5531 C3.4268,98.2021 1.6928,97.7641 0.0008,97.2461 C3.8028,99.0421 7.8818,100.4091 12.1948,101.2641 C40.5058,106.8711 68.0038,88.4651 73.6098,60.1531" id="Fill-35" fill="#FFDA00"></path>
            <path d="M17.9965,50.7454 L19.3275,50.7464 C21.4095,50.7474 22.7425,50.2024 22.7435,48.9394 C22.7435,47.8474 21.8565,47.1644 19.7745,47.1624 C19.0585,47.1624 18.5795,47.2304 17.9995,47.2974 L17.9965,50.7454 Z M17.9575,57.9474 C18.5035,58.0164 18.9135,58.0164 19.6985,58.0174 C21.4735,58.0184 23.2495,57.5074 23.2505,55.8694 C23.2515,54.4354 21.8865,53.7524 19.4625,53.7504 L17.9605,53.7494 L17.9575,57.9474 Z M12.8815,44.3924 C14.1435,44.2234 17.0125,43.9864 19.6055,43.9884 C22.4385,43.9904 27.8665,44.3014 27.8635,48.2604 C27.8625,50.4114 26.1205,51.5364 24.4475,51.8764 L24.4475,51.9454 C26.9385,52.3564 28.5765,53.7564 28.5755,56.0094 C28.5715,60.7534 22.1195,61.1594 18.7065,61.1574 C16.3855,61.1554 13.9285,60.9834 12.8695,60.8454 L12.8815,44.3924 Z" id="Fill-37" fill="#231F20"></path>
            <polygon id="Fill-39" fill="#231F20" points="78.7319 44.2698 78.7199 60.9608 73.4979 60.9578 73.5059 48.2258 68.3859 48.2228 68.3779 60.9548 63.1889 60.9508 63.2009 44.2588"></polygon>
            <path d="M120.576601,50.7498 C120.5776,49.4868 120.0336,47.3708 117.6436,47.3688 C115.4596,47.3668 114.5706,49.3468 114.4326,50.7458 L120.576601,50.7498 Z M114.4656,54.2958 C114.6336,56.4458 116.7506,57.4718 119.1736,57.4738 C120.9486,57.4748 122.3826,57.2368 123.7816,56.7938 L124.4626,60.3108 C122.7546,60.9918 120.6726,61.3318 118.4196,61.3298 C112.7536,61.3258 109.5126,58.0468 109.5156,52.8248 C109.5186,48.5918 112.1506,43.9178 117.9536,43.9218 C123.3466,43.9248 125.3916,48.1248 125.3886,52.2548 C125.3886,53.1428 125.2856,53.9278 125.2176,54.3028 L114.4656,54.2958 Z" id="Fill-41" fill="#231F20"></path>
            <path d="M147.475,53.8406 C147.475,54.2506 147.509,54.6256 147.578,54.9336 C147.917,56.3326 149.112,57.3916 150.614,57.3926 C152.867,57.3946 154.199,55.5176 154.201,52.6846 C154.203,50.0226 153.008,48.0076 150.688,48.0066 C149.22,48.0056 147.922,49.0966 147.58,50.6326 C147.511,50.9046 147.477,51.2466 147.477,51.5536 L147.475,53.8406 Z M142.289,49.9116 C142.291,47.7266 142.224,45.8496 142.157,44.3136 L146.663,44.3166 L146.9,46.6376 L146.968,46.6376 C148.199,44.8636 150.11,43.9436 152.534,43.9456 C156.186,43.9476 159.461,47.1246 159.457,52.4496 C159.454,58.5256 155.594,61.3896 151.873,61.3876 C149.86,61.3856 148.29,60.5656 147.539,59.4726 L147.471,59.4726 L147.466,67.7666 L142.278,67.7636 L142.289,49.9116 Z" id="Fill-43" fill="#231F20"></path>
            <polygon id="Fill-45" fill="#231F20" points="173.8002 44.3358 173.7912 57.0678 177.8872 57.0698 177.8962 44.3378 183.0502 44.3418 183.0412 57.0738 187.1382 57.0768 187.1472 44.3448 192.3012 44.3488 192.2892 61.0398 168.6342 61.0228 168.6462 44.3318"></polygon>
            <path d="M205.608801,50.8084 C205.6098,49.5454 205.0658,47.4294 202.6758,47.4274 C200.4918,47.4254 199.6028,49.4054 199.4648,50.8044 L205.608801,50.8084 Z M199.4978,54.3544 C199.6658,56.5044 201.7828,57.5304 204.2058,57.5324 C205.9808,57.5334 207.4148,57.2954 208.8138,56.8524 L209.4948,60.3694 C207.7868,61.0504 205.7048,61.3904 203.4518,61.3884 C197.7858,61.3844 194.5448,58.1054 194.5478,52.8834 C194.5508,48.6504 197.1828,43.9764 202.9858,43.9804 C208.3788,43.9834 210.4238,48.1834 210.4208,52.3134 C210.4208,53.2014 210.3178,53.9864 210.2498,54.3614 L199.4978,54.3544 Z" id="Fill-47" fill="#231F20"></path>
        </g>
    </g>
</svg>