<?xml version="1.0" encoding="UTF-8"?>
<svg width="220px" height="107px" viewBox="0 0 220 107" version="1.1" xmlns="http://www.w3.org/2000/svg" xmlns:xlink="http://www.w3.org/1999/xlink">
    <!-- Generator: Sketch 50.2 (55047) - http://www.bohemiancoding.com/sketch -->
    <title>eng black+text</title>
    <desc>Created with Sketch.</desc>
    <defs>
        <polygon id="path-1" points="0 106.022 219.901 106.022 219.901 0 0 0"></polygon>
    </defs>
    <g id="Page-1" stroke="none" stroke-width="1" fill="none" fill-rule="evenodd">
        <g id="eng-black+text">
            <path d="M73.61,60.108 C78.865,33.57 63.023,7.749 37.701,0 C58.864,9.991 71.37,33.398 66.617,57.397 C61.009,85.709 33.513,104.115 5.201,98.508 C3.427,98.156 1.692,97.719 0,97.201 C3.802,98.996 7.881,100.364 12.194,101.218 C40.506,106.825 68.003,88.42 73.61,60.108" id="Fill-1" fill="#FFDA00"></path>
            <path d="M13.391,85.25 C13.845,85.526 14.705,85.818 15.42,85.818 C16.296,85.818 16.686,85.461 16.686,84.941 C16.686,84.406 16.362,84.129 15.387,83.789 C13.845,83.253 13.196,82.409 13.212,81.483 C13.212,80.087 14.365,79 16.2,79 C17.076,79 17.839,79.227 18.293,79.47 L17.904,80.882 C17.563,80.688 16.93,80.428 16.232,80.428 C15.517,80.428 15.127,80.769 15.127,81.256 C15.127,81.759 15.501,82.003 16.508,82.36 C17.936,82.879 18.602,83.61 18.619,84.779 C18.619,86.208 17.498,87.247 15.404,87.247 C14.446,87.247 13.585,87.02 13,86.695 L13.391,85.25 Z" id="Fill-3" fill="#231F20"></path>
            <path d="M25.39,82.295 C25.407,81.565 25.082,80.363 23.75,80.363 C22.517,80.363 21.997,81.483 21.916,82.295 L25.39,82.295 Z M21.916,83.691 C21.965,85.12 23.085,85.737 24.351,85.737 C25.277,85.737 25.943,85.607 26.543,85.38 L26.835,86.76 C26.154,87.036 25.211,87.247 24.076,87.247 C21.51,87.247 20,85.672 20,83.253 C20,81.061 21.331,79 23.865,79 C26.429,79 27.274,81.11 27.274,82.847 C27.274,83.22 27.242,83.513 27.208,83.691 L21.916,83.691 Z" id="Fill-5" fill="#231F20"></path>
            <path d="M29.322,79 L30.263,80.494 C30.523,80.916 30.75,81.306 30.977,81.711 L31.026,81.711 C31.254,81.273 31.481,80.867 31.708,80.461 L32.585,79 L34.76,79 L32.114,82.799 L34.809,86.907 L32.552,86.907 L31.578,85.332 C31.318,84.91 31.092,84.488 30.864,84.049 L30.832,84.049 C30.604,84.504 30.377,84.894 30.117,85.332 L29.208,86.907 L27,86.907 L29.744,82.88 L27.097,79 L29.322,79 Z" id="Fill-7" fill="#231F20"></path>
            <path d="M43.111,84.537 C43.111,85.478 43.143,86.258 43.175,86.907 L41.423,86.907 L41.325,85.706 L41.293,85.706 C40.952,86.274 40.173,87.086 38.759,87.086 C37.315,87.086 36,86.225 36,83.644 L36,79 L37.997,79 L37.997,83.303 C37.997,84.618 38.419,85.462 39.474,85.462 C40.269,85.462 40.789,84.894 41.001,84.391 C41.065,84.212 41.114,84.001 41.114,83.774 L41.114,79 L43.111,79 L43.111,84.537 Z" id="Fill-9" fill="#231F20"></path>
            <path d="M49.741,83.221 C48.328,83.189 46.98,83.497 46.98,84.699 C46.98,85.478 47.484,85.835 48.117,85.835 C48.913,85.835 49.497,85.316 49.676,84.747 C49.724,84.601 49.741,84.439 49.741,84.309 L49.741,83.221 Z M50.001,87.085 L49.87,86.208 L49.822,86.208 C49.335,86.825 48.507,87.264 47.484,87.264 C45.892,87.264 45,86.111 45,84.909 C45,82.913 46.769,81.906 49.692,81.922 L49.692,81.792 C49.692,81.273 49.481,80.412 48.085,80.412 C47.305,80.412 46.493,80.656 45.958,80.997 L45.568,79.698 C46.152,79.341 47.176,79 48.426,79 C50.958,79 51.688,80.607 51.688,82.328 L51.688,85.186 C51.688,85.9 51.721,86.598 51.803,87.085 L50.001,87.085 Z" id="Fill-11" fill="#231F20"></path>
            <mask id="mask-2" fill="white">
                <use xlink:href="#path-1"></use>
            </mask>
            <g id="Clip-14"></g>
            <polygon id="Fill-13" fill="#231F20" mask="url(#mask-2)" points="54 86.527 56.014 86.527 56.014 75 54 75"></polygon>
            <path d="M66.39,82.295 C66.407,81.565 66.081,80.363 64.75,80.363 C63.517,80.363 62.997,81.483 62.916,82.295 L66.39,82.295 Z M62.916,83.691 C62.964,85.12 64.085,85.737 65.351,85.737 C66.277,85.737 66.943,85.607 67.543,85.38 L67.835,86.76 C67.154,87.036 66.212,87.247 65.076,87.247 C62.51,87.247 61,85.672 61,83.253 C61,81.061 62.331,79 64.865,79 C67.429,79 68.274,81.11 68.274,82.847 C68.274,83.22 68.242,83.513 68.208,83.691 L62.916,83.691 Z" id="Fill-15" fill="#231F20" mask="url(#mask-2)"></path>
            <path d="M74.796115,81.917 C74.796115,81.754 74.779115,81.56 74.747115,81.397 C74.568115,80.618 73.936115,79.985 73.026115,79.985 C71.743115,79.985 71.029115,81.122 71.029115,82.599 C71.029115,84.044 71.743115,85.099 73.010115,85.099 C73.821115,85.099 74.536115,84.547 74.732115,83.687 C74.779115,83.508 74.796115,83.313 74.796115,83.102 L74.796115,81.917 Z M76.793115,75 L76.793115,84.304 C76.793115,85.115 76.825115,85.992 76.858115,86.528 L75.072115,86.528 L74.991115,85.278 L74.958115,85.278 C74.487115,86.154 73.529115,86.707 72.377115,86.707 C70.493115,86.707 69.000115,85.099 69.000115,82.664 C68.984115,80.018 70.640115,78.443 72.539115,78.443 C73.627115,78.443 74.406115,78.897 74.764115,79.482 L74.796115,79.482 L74.796115,75 L76.793115,75 Z" id="Fill-16" fill="#231F20" mask="url(#mask-2)"></path>
            <path d="M86.111,84.537 C86.111,85.478 86.143,86.258 86.175,86.907 L84.423,86.907 L84.325,85.706 L84.293,85.706 C83.952,86.274 83.173,87.086 81.759,87.086 C80.315,87.086 79,86.225 79,83.644 L79,79 L80.997,79 L80.997,83.303 C80.997,84.618 81.419,85.462 82.474,85.462 C83.269,85.462 83.789,84.894 84,84.391 C84.065,84.212 84.114,84.001 84.114,83.774 L84.114,79 L86.111,79 L86.111,84.537 Z" id="Fill-17" fill="#231F20" mask="url(#mask-2)"></path>
            <path d="M94.315,86.841 C93.893,87.036 93.065,87.247 92.075,87.247 C89.607,87.247 88,85.672 88,83.22 C88,80.85 89.623,79 92.399,79 C93.129,79 93.877,79.162 94.332,79.373 L93.974,80.866 C93.649,80.72 93.178,80.558 92.464,80.558 C90.938,80.558 90.029,81.678 90.045,83.123 C90.045,84.747 91.1,85.672 92.464,85.672 C93.163,85.672 93.649,85.526 94.039,85.364 L94.315,86.841 Z" id="Fill-18" fill="#231F20" mask="url(#mask-2)"></path>
            <path d="M99.74,83.221 C98.328,83.189 96.98,83.497 96.98,84.699 C96.98,85.478 97.484,85.835 98.117,85.835 C98.913,85.835 99.497,85.316 99.676,84.747 C99.724,84.601 99.74,84.439 99.74,84.309 L99.74,83.221 Z M100,87.085 L99.871,86.208 L99.822,86.208 C99.335,86.825 98.507,87.264 97.484,87.264 C95.892,87.264 95,86.111 95,84.909 C95,82.913 96.769,81.906 99.692,81.922 L99.692,81.792 C99.692,81.273 99.48,80.412 98.085,80.412 C97.305,80.412 96.494,80.656 95.958,80.997 L95.568,79.698 C96.152,79.341 97.176,79 98.426,79 C100.958,79 101.689,80.607 101.689,82.328 L101.689,85.186 C101.689,85.9 101.721,86.598 101.803,87.085 L100,87.085 Z" id="Fill-19" fill="#231F20" mask="url(#mask-2)"></path>
            <path d="M106.084,77 L106.084,79.256 L107.984,79.256 L107.984,80.75 L106.084,80.75 L106.084,84.241 C106.084,85.199 106.344,85.702 107.107,85.702 C107.448,85.702 107.708,85.653 107.887,85.604 L107.919,87.131 C107.627,87.244 107.107,87.325 106.474,87.325 C105.743,87.325 105.127,87.082 104.753,86.676 C104.331,86.222 104.136,85.507 104.136,84.468 L104.136,80.75 L103,80.75 L103,79.256 L104.136,79.256 L104.136,77.471 L106.084,77 Z" id="Fill-20" fill="#231F20" mask="url(#mask-2)"></path>
            <path d="M109.114,86.202 L111.128,86.202 L111.128,78.295 L109.114,78.295 L109.114,86.202 Z M111.241,76.087 C111.241,76.688 110.802,77.159 110.104,77.159 C109.439,77.159 109,76.688 109,76.087 C109,75.471 109.454,75 110.12,75 C110.802,75 111.224,75.471 111.241,76.087 Z" id="Fill-21" fill="#231F20" mask="url(#mask-2)"></path>
            <path d="M115.062,83.14 C115.062,84.666 115.809,85.819 117.027,85.819 C118.164,85.819 118.958,84.699 118.958,83.108 C118.958,81.874 118.407,80.461 117.042,80.461 C115.63,80.461 115.062,81.825 115.062,83.14 M121.021,83.059 C121.021,85.965 118.975,87.264 116.961,87.264 C114.721,87.264 113,85.722 113,83.189 C113,80.591 114.705,79 117.091,79 C119.446,79 121.021,80.656 121.021,83.059" id="Fill-22" fill="#231F20" mask="url(#mask-2)"></path>
            <path d="M123.064,81.532 C123.064,80.623 123.048,79.86 123,79.178 L124.752,79.178 L124.85,80.363 L124.899,80.363 C125.24,79.746 126.1,79 127.416,79 C128.795,79 130.224,79.892 130.224,82.393 L130.224,87.085 L128.227,87.085 L128.227,82.62 C128.227,81.484 127.805,80.623 126.717,80.623 C125.921,80.623 125.37,81.191 125.159,81.792 C125.093,81.97 125.078,82.214 125.078,82.441 L125.078,87.085 L123.064,87.085 L123.064,81.532 Z" id="Fill-23" fill="#231F20" mask="url(#mask-2)"></path>
            <path d="M13.071,105.706 L13.071,99.293 L12,99.293 L12,97.799 L13.071,97.799 L13.071,97.458 C13.071,96.435 13.347,95.413 14.029,94.764 C14.613,94.211 15.409,94 16.091,94 C16.627,94 17.049,94.081 17.374,94.195 L17.227,95.737 C17.016,95.656 16.74,95.591 16.384,95.591 C15.392,95.591 15.051,96.419 15.051,97.393 L15.051,97.799 L16.789,97.799 L16.789,99.293 L15.068,99.293 L15.068,105.706 L13.071,105.706 Z" id="Fill-24" fill="#231F20" mask="url(#mask-2)"></path>
            <path d="M20.062,102.14 C20.062,103.666 20.809,104.819 22.027,104.819 C23.164,104.819 23.958,103.699 23.958,102.108 C23.958,100.874 23.407,99.461 22.043,99.461 C20.63,99.461 20.062,100.825 20.062,102.14 M26.021,102.059 C26.021,104.965 23.975,106.264 21.961,106.264 C19.721,106.264 18,104.722 18,102.189 C18,99.591 19.706,98 22.091,98 C24.446,98 26.021,99.656 26.021,102.059" id="Fill-25" fill="#231F20" mask="url(#mask-2)"></path>
            <path d="M27.064,100.728 C27.064,99.656 27.048,98.893 27,98.179 L28.737,98.179 L28.801,99.689 L28.867,99.689 C29.256,98.568 30.181,98 31.026,98 C31.22,98 31.335,98.017 31.497,98.049 L31.497,99.932 C31.335,99.9 31.156,99.867 30.912,99.867 C29.954,99.867 29.305,100.484 29.127,101.377 C29.093,101.556 29.061,101.767 29.061,101.994 L29.061,106.085 L27.064,106.085 L27.064,100.728 Z" id="Fill-26" fill="#231F20" mask="url(#mask-2)"></path>
            <path d="M39.084,96 L39.084,98.256 L40.984,98.256 L40.984,99.75 L39.084,99.75 L39.084,103.241 C39.084,104.199 39.344,104.702 40.107,104.702 C40.448,104.702 40.708,104.653 40.887,104.604 L40.919,106.131 C40.627,106.244 40.107,106.325 39.474,106.325 C38.743,106.325 38.127,106.082 37.753,105.676 C37.331,105.222 37.136,104.507 37.136,103.468 L37.136,99.75 L36,99.75 L36,98.256 L37.136,98.256 L37.136,96.471 L39.084,96 Z" id="Fill-27" fill="#231F20" mask="url(#mask-2)"></path>
            <path d="M47.39,101.295 C47.407,100.565 47.082,99.363 45.75,99.363 C44.517,99.363 43.997,100.483 43.916,101.295 L47.39,101.295 Z M43.916,102.691 C43.965,104.12 45.085,104.737 46.351,104.737 C47.277,104.737 47.943,104.607 48.543,104.38 L48.835,105.76 C48.154,106.036 47.211,106.247 46.076,106.247 C43.51,106.247 42,104.672 42,102.253 C42,100.061 43.331,98 45.865,98 C48.429,98 49.274,100.11 49.274,101.847 C49.274,102.22 49.242,102.513 49.208,102.691 L43.916,102.691 Z" id="Fill-28" fill="#231F20" mask="url(#mask-2)"></path>
            <path d="M55.39,101.295 C55.407,100.565 55.082,99.363 53.75,99.363 C52.517,99.363 51.997,100.483 51.916,101.295 L55.39,101.295 Z M51.916,102.691 C51.965,104.12 53.085,104.737 54.351,104.737 C55.277,104.737 55.943,104.607 56.543,104.38 L56.835,105.76 C56.154,106.036 55.211,106.247 54.076,106.247 C51.51,106.247 50,104.672 50,102.253 C50,100.061 51.331,98 53.865,98 C56.429,98 57.274,100.11 57.274,101.847 C57.274,102.22 57.242,102.513 57.208,102.691 L51.916,102.691 Z" id="Fill-29" fill="#231F20" mask="url(#mask-2)"></path>
            <path d="M59.064,100.532 C59.064,99.623 59.048,98.86 59,98.178 L60.752,98.178 L60.85,99.363 L60.899,99.363 C61.24,98.746 62.1,98 63.416,98 C64.795,98 66.224,98.892 66.224,101.393 L66.224,106.085 L64.227,106.085 L64.227,101.62 C64.227,100.484 63.805,99.623 62.717,99.623 C61.921,99.623 61.37,100.191 61.159,100.792 C61.093,100.97 61.078,101.214 61.078,101.441 L61.078,106.085 L59.064,106.085 L59.064,100.532 Z" id="Fill-30" fill="#231F20" mask="url(#mask-2)"></path>
            <path d="M68.391,104.25 C68.845,104.526 69.705,104.818 70.42,104.818 C71.296,104.818 71.686,104.461 71.686,103.941 C71.686,103.406 71.362,103.129 70.387,102.789 C68.845,102.253 68.196,101.409 68.212,100.483 C68.212,99.087 69.365,98 71.2,98 C72.076,98 72.839,98.227 73.293,98.47 L72.904,99.882 C72.563,99.688 71.93,99.428 71.232,99.428 C70.517,99.428 70.127,99.769 70.127,100.256 C70.127,100.759 70.501,101.003 71.508,101.36 C72.936,101.879 73.602,102.61 73.619,103.779 C73.619,105.208 72.498,106.247 70.404,106.247 C69.446,106.247 68.585,106.02 68,105.695 L68.391,104.25 Z" id="Fill-31" fill="#231F20" mask="url(#mask-2)"></path>
            <path d="M21.631,43.004 L23.879,50.754 C24.287,52.154 24.594,53.485 24.832,54.817 L24.934,54.817 C25.209,53.451 25.483,52.189 25.86,50.755 L28.014,43.008 L33.477,43.012 L27.252,59.699 L22.065,59.696 L16,43 L21.631,43.004 Z" id="Fill-32" fill="#231F20" mask="url(#mask-2)"></path>
            <path d="M75.318,52.8950033 C75.318,53.3050033 75.351,53.6800033 75.42,53.9880033 C75.759,55.3870033 76.955,56.4460033 78.457,56.4470033 C80.709,56.4490033 82.041,54.5720033 82.043,51.7390033 C82.045,49.0770033 80.851,47.0620033 78.531,47.0610033 C77.064,47.0600033 75.765,48.1510033 75.423,49.6870033 C75.355,49.9590033 75.32,50.3010033 75.32,50.6080033 L75.318,52.8950033 Z M70.132,48.9660033 C70.134,46.7810033 70.066,44.9040033 70,43.3680033 L74.506,43.3710033 L74.744,45.6920033 L74.812,45.6920033 C76.041,43.9180033 77.953,42.9980033 80.377,43.0000033 C84.029,43.0020033 87.304,46.1790033 87.3,51.5040033 C87.297,57.5800033 83.437,60.4440033 79.716,60.4420033 C77.703,60.4400033 76.132,59.6200033 75.382,58.5270033 L75.314,58.5270033 L75.308,66.8210033 L70.121,66.8180033 L70.132,48.9660033 Z" id="Fill-33" fill="#231F20" mask="url(#mask-2)"></path>
            <path d="M128.062001,49.8290026 C128.062001,48.5660026 127.517001,46.4490026 125.128001,46.4480026 C122.943001,46.4460026 122.056001,48.4260026 121.917001,49.8250026 L128.062001,49.8290026 Z M121.949001,53.3750026 C122.119001,55.5250026 124.234001,56.5510026 126.658001,56.5530026 C128.433001,56.5540026 129.867001,56.3160026 131.265001,55.8730026 L131.947001,59.3900026 C130.240001,60.0710026 128.156001,60.4110026 125.904001,60.4090026 C120.238001,60.4050026 116.998001,57.1260026 117.000001,51.9040026 C117.003001,47.6710026 119.636001,42.9960026 125.439001,43.0000026 C130.832001,43.0040026 132.876001,47.2040026 132.874001,51.3340026 C132.873001,52.2220026 132.771001,53.0070026 132.701001,53.3820026 L121.949001,53.3750026 Z" id="Fill-34" fill="#231F20" mask="url(#mask-2)"></path>
            <path d="M150.133,48.8650007 C150.135,46.4070007 150.067,44.8030007 150,43.3690007 L154.471,43.3720007 L154.641,46.4440007 L154.778,46.4440007 C155.633,44.0220007 157.682,42.9990007 159.285,43.0000007 C159.764,43.0000007 160.002,43.0010007 160.377,43.0690007 L160.373,47.9500007 C159.998,47.8820007 159.555,47.8130007 158.975,47.8130007 C157.063,47.8120007 155.764,48.8350007 155.422,50.4380007 C155.354,50.7800007 155.32,51.1890007 155.32,51.5990007 L155.315,60.0640007 L150.125,60.0610007 L150.133,48.8650007 Z" id="Fill-35" fill="#231F20" mask="url(#mask-2)"></path>
            <path d="M169.924,55.5220029 C170.879,56.1030029 172.86,56.7870029 174.395,56.7880029 C175.965,56.7890029 176.613,56.2430029 176.615,55.3900029 C176.615,54.5370029 176.104,54.1270029 174.158,53.4770029 C170.711,52.3140029 169.381,50.4360029 169.418,48.4560029 C169.42,45.3500029 172.084,42.9970029 176.215,43.0000029 C178.16,43.0010029 179.899,43.4460029 180.924,43.9580029 L179.998,47.5420029 C179.248,47.1320029 177.815,46.5840029 176.381,46.5840029 C175.119,46.5830029 174.403,47.0940029 174.401,47.9470029 C174.401,48.7320029 175.049,49.1430029 177.096,49.8610029 C180.27,50.9560029 181.6,52.5610029 181.633,55.0180029 C181.631,58.1240029 179.17,60.4100029 174.393,60.4060029 C172.207,60.4050029 170.264,59.9250029 169,59.2420029 L169.924,55.5220029 Z" id="Fill-36" fill="#231F20" mask="url(#mask-2)"></path>
            <path d="M185.018,36 L190.205,36.003 L190.2,45.526 L190.268,45.526 C190.813,44.81 191.497,44.265 192.317,43.821 C193.067,43.412 194.059,43.174 195.014,43.175 C198.325,43.177 200.848,45.466 200.844,50.483 L200.838,60.246 L195.651,60.242 L195.657,51.06 C195.659,48.875 194.909,47.373 192.963,47.372 C191.598,47.371 190.743,48.258 190.368,49.179 C190.231,49.52 190.196,49.964 190.196,50.339 L190.19,60.238 L185,60.235 L185.018,36 Z" id="Fill-37" fill="#231F20" mask="url(#mask-2)"></path>
            <path d="M215.063,49.8280026 C215.063,48.5650026 214.518,46.4490026 212.129,46.4470026 C209.944,46.4450026 209.057,48.4250026 208.918,49.8240026 L215.063,49.8280026 Z M208.95,53.3740026 C209.12,55.5240026 211.235,56.5500026 213.659,56.5520026 C215.434,56.5530026 216.868,56.3150026 218.266,55.8720026 L218.948,59.3890026 C217.241,60.0700026 215.157,60.4100026 212.905,60.4080026 C207.239,60.4040026 203.999,57.1250026 204,51.9030026 C204.004,47.6700026 206.637,42.9960026 212.44,43.0000026 C217.833,43.0030026 219.877,47.2030026 219.875,51.3330026 C219.874,52.2210026 219.772,53.0060026 219.702,53.3810026 L208.95,53.3740026 Z" id="Fill-38" fill="#231F20" mask="url(#mask-2)"></path>
        </g>
    </g>
</svg>